<svg width="31" height="31" viewBox="0 0 31 31" fill="none" xmlns="http://www.w3.org/2000/svg">
<path fill-rule="evenodd" clip-rule="evenodd" d="M20.8713 10.6341C20.8713 13.6691 18.4518 16.1027 15.4343 16.1027C12.4168 16.1027 9.99729 13.6691 9.99729 10.6341C9.99729 7.59795 12.4168 5.16669 15.4343 5.16669C18.4518 5.16669 20.8713 7.59795 20.8713 10.6341ZM15.4342 25.8333C11.0023 25.8333 7.21799 25.1307 7.21799 22.3202C7.21799 19.5086 10.978 18.7804 15.4342 18.7804C19.8661 18.7804 23.6504 19.483 23.6504 22.2946C23.6504 25.1051 19.8904 25.8333 15.4342 25.8333ZM23.1949 10.7328C23.1949 12.2799 22.7334 13.7213 21.9238 14.9194C21.8405 15.0427 21.9145 15.2091 22.0614 15.2347C22.2638 15.2696 22.4732 15.2894 22.686 15.2952C24.8083 15.351 26.7131 13.9772 27.2393 11.9089C28.0189 8.83662 25.73 6.07848 22.8155 6.07848C22.4986 6.07848 22.1956 6.11221 21.9007 6.1727C21.8602 6.18201 21.8174 6.20062 21.7943 6.23668C21.7665 6.28089 21.7873 6.34022 21.8151 6.3786C22.6906 7.61285 23.1949 9.11814 23.1949 10.7328ZM26.7093 17.4537C28.1354 17.7341 29.0733 18.3064 29.4619 19.1382C29.7904 19.821 29.7904 20.6132 29.4619 21.2949C28.8675 22.585 26.951 22.9991 26.2062 23.1061C26.0524 23.1294 25.9286 22.9956 25.9448 22.8409C26.3253 19.2661 23.2986 17.5712 22.5156 17.1815C22.4821 17.1641 22.4752 17.1373 22.4786 17.121C22.4809 17.1094 22.4948 17.0908 22.5203 17.0873C24.2146 17.0559 26.0362 17.2886 26.7093 17.4537ZM8.31469 15.295C8.5275 15.2892 8.73568 15.2706 8.93924 15.2345C9.08612 15.2089 9.16014 15.0426 9.07687 14.9193C8.26727 13.7211 7.80581 12.2798 7.80581 10.7326C7.80581 9.11798 8.31007 7.61269 9.18558 6.37844C9.21334 6.34005 9.233 6.28072 9.2064 6.23652C9.18327 6.20162 9.13932 6.18185 9.1 6.17254C8.80392 6.11205 8.5009 6.07831 8.184 6.07831C5.26947 6.07831 2.98063 8.83646 3.76131 11.9087C4.28754 13.977 6.1924 15.3509 8.31469 15.295ZM8.52113 17.1204C8.5246 17.1378 8.51766 17.1634 8.48527 17.182C7.70113 17.5717 4.6744 19.2666 5.05491 22.8402C5.0711 22.9961 4.94851 23.1287 4.79469 23.1066C4.04986 22.9996 2.13344 22.5855 1.53896 21.2954C1.20934 20.6126 1.20934 19.8215 1.53896 19.1387C1.92757 18.3069 2.86438 17.7346 4.29042 17.4531C4.9647 17.289 6.78513 17.0564 8.48065 17.0878C8.50609 17.0913 8.51881 17.1099 8.52113 17.1204Z" fill="#00CC52"/>
</svg>
