<svg width="16" height="14" viewBox="0 0 16 14" fill="none" xmlns="http://www.w3.org/2000/svg">
<path d="M6.76923 0C6.096 0 5.53846 0.551478 5.53846 1.21739V1.82609H3.69231V1.21739H2.46154V1.82609H1.23077C0.557539 1.82609 0 2.37757 0 3.04348V12.7826C0 13.4485 0.557539 14 1.23077 14H14.7692C15.4425 14 16 13.4485 16 12.7826V3.04348C16 2.37757 15.4425 1.82609 14.7692 1.82609H13.5385V1.21739H12.3077V1.82609H10.4615V1.21739C10.4615 0.551478 9.904 0 9.23077 0H6.76923ZM6.76923 1.21739H9.23077V1.82609H6.76923V1.21739ZM1.23077 3.04348H14.7692V12.7826H13.5385V3.65217H12.3077V12.7826H3.69231V3.65217H2.46154V12.7826H1.23077V3.04348Z" fill="#979797"/>
</svg>
