<svg width="648" height="408" viewBox="0 0 648 408" fill="none" xmlns="http://www.w3.org/2000/svg">
<rect width="648" height="408" rx="30" fill="white"/>
<path d="M174 124.777L171.435 127.317C170.645 128.099 170.645 129.376 171.435 130.159L174 132.699V124.777Z" fill="#0E144A"/>
<rect x="174" y="114.874" width="49" height="28" rx="6" fill="#0E144A"/>
<path d="M195.461 129.663H194.486V127.505H192.679V129.663H190.313L193.329 123.774H191.405L188.376 129.663V131.327H192.679V132.874H194.486V131.327H195.461V129.663ZM195.559 123.774V125.49H199.446L196.456 132.874H198.354L201.435 125.295V123.774H195.559ZM207.203 128.142C207.788 127.726 208.152 127.102 208.152 126.257C208.152 124.502 206.8 123.592 205.201 123.592C203.602 123.592 202.237 124.502 202.237 126.257C202.237 127.102 202.614 127.726 203.186 128.142C202.393 128.623 201.938 129.416 201.938 130.339C201.938 132.016 203.173 133.056 205.201 133.056C207.216 133.056 208.464 132.016 208.464 130.339C208.464 129.416 208.009 128.623 207.203 128.142ZM205.201 125.282C205.877 125.282 206.371 125.672 206.371 126.348C206.371 127.011 205.877 127.427 205.201 127.427C204.525 127.427 204.031 127.011 204.031 126.348C204.031 125.672 204.525 125.282 205.201 125.282ZM205.201 131.366C204.343 131.366 203.719 130.924 203.719 130.105C203.719 129.299 204.343 128.857 205.201 128.857C206.059 128.857 206.683 129.299 206.683 130.105C206.683 130.924 206.059 131.366 205.201 131.366Z" fill="white"/>
<path d="M32.36 52H35.768L36.848 48.88H43.64L44.72 52H48.128L41.888 34.48H38.6L32.36 52ZM40.256 39.112L42.56 45.76H37.952L40.256 39.112ZM55.4088 52.288C58.6728 52.288 61.0488 50.464 62.1528 47.872L59.2488 46.624C58.6008 48.16 57.2808 49.24 55.4568 49.24C53.0568 49.24 51.2808 47.32 51.2808 44.992C51.2808 42.616 53.0568 40.72 55.4328 40.72C57.1608 40.72 58.5528 41.704 59.2008 43.24L62.1048 42.016C61.0248 39.472 58.5528 37.672 55.4088 37.672C51.3048 37.672 48.1128 40.888 48.1128 44.992C48.1128 49.024 51.3048 52.288 55.4088 52.288ZM62.6429 40.864H65.0429V46.144C65.0429 50.608 66.3629 52 70.7069 52H71.1629V48.952C68.6669 48.952 68.3069 48.568 68.3069 46.12V40.864H71.1629V37.96H68.3069V33.592L65.0429 35.824V37.96H62.6429V40.864ZM72.7329 52H75.9969V37.96H72.7329V52ZM72.3249 34.528C72.3249 35.752 73.0449 36.544 74.3649 36.544C75.6369 36.544 76.4049 35.752 76.4049 34.528C76.4049 33.304 75.6369 32.488 74.3649 32.488C73.1169 32.488 72.3249 33.304 72.3249 34.528ZM82.4977 52H85.7617L91.0417 37.96H87.7057L84.1537 47.848L80.5297 37.96H77.1457L82.4977 52ZM98.1148 52.288C101.283 52.288 103.443 50.776 104.667 48.496L102.003 46.96C101.331 48.472 99.9388 49.432 98.1148 49.432C95.8108 49.432 94.2508 48.112 93.7948 46.12H105.219V44.896C105.219 40.744 102.171 37.672 97.9948 37.672C93.8908 37.672 90.6988 40.912 90.6988 45.016C90.6988 49.072 93.6988 52.288 98.1148 52.288ZM97.9948 40.528C100.011 40.528 101.451 41.512 101.931 43.408H93.9628C94.5388 41.68 96.0508 40.528 97.9948 40.528ZM125.201 37.96H121.961V45.664C121.961 48.136 120.641 49.48 118.841 49.48C116.801 49.48 115.841 48.136 115.841 45.952V37.96H112.553V46.288C112.553 50.104 114.593 52.288 117.953 52.288C119.753 52.288 121.097 51.568 121.985 50.392V52H125.201V37.96ZM132.364 52.288C136.372 52.288 138.124 49.672 138.124 47.704C138.124 44.752 135.484 43.936 133.18 43.48C131.068 43.024 129.964 42.784 129.964 41.848C129.964 41.056 130.684 40.336 132.22 40.336C133.564 40.336 134.62 40.96 135.196 41.944L137.956 40.552C136.876 38.752 135.076 37.648 132.22 37.648C128.884 37.648 126.7 39.688 126.7 41.944C126.7 44.896 129.22 45.664 131.62 46.168C133.348 46.552 134.908 46.744 134.908 47.776C134.908 48.712 134.116 49.48 132.508 49.48C130.972 49.48 129.796 48.76 129.124 47.44L126.124 48.88C127.252 51.088 129.22 52.288 132.364 52.288ZM146.466 52.288C149.634 52.288 151.794 50.776 153.018 48.496L150.354 46.96C149.682 48.472 148.29 49.432 146.466 49.432C144.162 49.432 142.602 48.112 142.146 46.12H153.57V44.896C153.57 40.744 150.522 37.672 146.346 37.672C142.242 37.672 139.05 40.912 139.05 45.016C139.05 49.072 142.05 52.288 146.466 52.288ZM146.346 40.528C148.362 40.528 149.802 41.512 150.282 43.408H142.314C142.89 41.68 144.402 40.528 146.346 40.528ZM155.022 52H158.262V44.512C158.262 42.088 159.246 41.08 161.142 41.08C162.078 41.08 162.606 41.32 163.086 41.632L164.31 38.56C163.662 38.2 162.87 37.96 161.838 37.96C160.086 37.96 158.886 38.656 158.238 40.048V37.96H155.022V52ZM170.521 52.288C174.529 52.288 176.281 49.672 176.281 47.704C176.281 44.752 173.641 43.936 171.337 43.48C169.225 43.024 168.121 42.784 168.121 41.848C168.121 41.056 168.841 40.336 170.377 40.336C171.721 40.336 172.777 40.96 173.353 41.944L176.113 40.552C175.033 38.752 173.233 37.648 170.377 37.648C167.041 37.648 164.857 39.688 164.857 41.944C164.857 44.896 167.377 45.664 169.777 46.168C171.505 46.552 173.065 46.744 173.065 47.776C173.065 48.712 172.273 49.48 170.665 49.48C169.129 49.48 167.953 48.76 167.281 47.44L164.281 48.88C165.409 51.088 167.377 52.288 170.521 52.288Z" fill="#18243C"/>
<path d="M487.871 111.029H493.331V109.365H489.847V102.267H487.871V111.029ZM499.774 107.272C499.774 105.764 499.111 104.516 496.992 104.516C495.835 104.516 494.964 104.841 494.522 105.088L494.886 106.362C495.302 106.102 495.991 105.881 496.641 105.881C497.616 105.881 497.798 106.362 497.798 106.713V106.791C495.549 106.791 494.067 107.571 494.067 109.222C494.067 110.236 494.834 111.172 496.121 111.172C496.875 111.172 497.525 110.899 497.941 110.392H497.98L498.097 111.029H499.878C499.8 110.678 499.774 110.093 499.774 109.495V107.272ZM497.863 108.715C497.863 108.832 497.85 108.949 497.824 109.053C497.694 109.456 497.278 109.781 496.797 109.781C496.355 109.781 496.017 109.534 496.017 109.027C496.017 108.273 496.823 108.026 497.863 108.026V108.715ZM500.988 110.717C501.469 110.977 502.21 111.172 503.042 111.172C504.862 111.172 505.785 110.301 505.785 109.105C505.772 108.182 505.278 107.558 504.069 107.142C503.289 106.869 503.042 106.713 503.042 106.401C503.042 106.089 503.315 105.894 503.796 105.894C504.329 105.894 504.888 106.102 505.174 106.258L505.512 104.893C505.122 104.698 504.472 104.516 503.731 104.516C502.158 104.516 501.144 105.413 501.144 106.609C501.131 107.363 501.638 108.078 502.964 108.52C503.692 108.767 503.887 108.923 503.887 109.261C503.887 109.586 503.64 109.781 503.042 109.781C502.457 109.781 501.703 109.534 501.339 109.313L500.988 110.717ZM507.261 103.489V104.672H506.416V106.128H507.261V108.728C507.261 109.625 507.443 110.236 507.807 110.613C508.132 110.938 508.665 111.159 509.302 111.159C509.848 111.159 510.329 111.081 510.576 110.99L510.563 109.495C510.381 109.534 510.251 109.547 509.978 109.547C509.393 109.547 509.198 109.196 509.198 108.429V106.128H510.615V104.672H509.198V102.956L507.261 103.489ZM520.149 111.029V109.404H516.951V109.378L517.731 108.728C518.966 107.636 519.98 106.505 519.98 105.075C519.98 103.554 518.94 102.436 517.016 102.436C515.885 102.436 514.884 102.826 514.26 103.307L514.819 104.711C515.261 104.386 515.898 104.022 516.626 104.022C517.601 104.022 518.004 104.568 518.004 105.257C517.991 106.245 517.094 107.194 515.235 108.858L514.156 109.833V111.029H520.149ZM526.723 111.029V109.014H527.724V107.532H526.723V102.579H524.292L521.107 107.727V109.014H524.851V111.029H526.723ZM522.94 107.532L522.953 107.506L524.071 105.66C524.357 105.127 524.591 104.633 524.864 104.087H524.903C524.877 104.633 524.851 105.153 524.851 105.66V107.532H522.94ZM531.517 102.267V111.029H533.493V107.363H536.756V111.029H538.732V102.267H536.756V105.634H533.493V102.267H531.517ZM543.406 104.516C541.352 104.516 540 105.829 540 107.896C540 109.95 541.43 111.172 543.289 111.172C544.992 111.172 546.643 110.106 546.643 107.779C546.643 105.855 545.343 104.516 543.406 104.516ZM543.341 105.933C544.238 105.933 544.602 106.895 544.602 107.831C544.602 108.988 544.121 109.755 543.341 109.755C542.496 109.755 542.041 108.936 542.041 107.844C542.041 106.908 542.405 105.933 543.341 105.933ZM553.86 104.672H551.884V108.455C551.884 108.624 551.858 108.767 551.806 108.884C551.689 109.196 551.364 109.573 550.818 109.573C550.116 109.573 549.817 109.014 549.817 108.091V104.672H547.841V108.403C547.841 110.366 548.777 111.172 550.077 111.172C551.221 111.172 551.819 110.522 552.066 110.132H552.105L552.196 111.029H553.912C553.886 110.496 553.86 109.82 553.86 108.988V104.672ZM555.446 111.029H557.422V107.805C557.422 107.649 557.435 107.493 557.461 107.363C557.591 106.752 558.085 106.362 558.813 106.362C559.034 106.362 559.19 106.388 559.346 106.414V104.555C559.203 104.529 559.112 104.516 558.93 104.516C558.306 104.516 557.539 104.906 557.214 105.842H557.162L557.084 104.672H555.394C555.433 105.218 555.446 105.829 555.446 106.765V111.029ZM560.021 110.717C560.502 110.977 561.243 111.172 562.075 111.172C563.895 111.172 564.818 110.301 564.818 109.105C564.805 108.182 564.311 107.558 563.102 107.142C562.322 106.869 562.075 106.713 562.075 106.401C562.075 106.089 562.348 105.894 562.829 105.894C563.362 105.894 563.921 106.102 564.207 106.258L564.545 104.893C564.155 104.698 563.505 104.516 562.764 104.516C561.191 104.516 560.177 105.413 560.177 106.609C560.164 107.363 560.671 108.078 561.997 108.52C562.725 108.767 562.92 108.923 562.92 109.261C562.92 109.586 562.673 109.781 562.075 109.781C561.49 109.781 560.736 109.534 560.372 109.313L560.021 110.717Z" fill="white"/>
<path d="M61.484 146.694C61.316 146.682 61.088 146.67 60.752 146.706C59.54 146.766 58.52 147.138 57.752 147.846C56.9 148.638 56.36 149.862 56.36 151.326C56.36 153.186 57.38 154.734 59.468 154.734C61.148 154.734 62.336 153.462 62.336 151.914C62.336 150.294 61.232 149.37 59.924 149.37C59.204 149.37 58.652 149.598 58.268 149.982H58.232C58.436 149.082 59.156 148.254 60.776 148.122C61.064 148.098 61.28 148.086 61.484 148.098V146.694ZM59.444 153.39C58.604 153.39 58.208 152.646 58.172 151.818C58.172 151.602 58.196 151.458 58.256 151.35C58.424 150.966 58.832 150.666 59.324 150.666C60.104 150.666 60.488 151.29 60.488 152.01C60.488 152.802 60.08 153.39 59.444 153.39ZM66.0163 146.67C64.0003 146.67 63.0522 148.446 63.0522 150.714C63.0643 152.922 63.9523 154.734 65.9683 154.734C67.9483 154.734 68.9203 153.066 68.9203 150.666C68.9203 148.53 68.0923 146.67 66.0163 146.67ZM65.9923 148.05C66.7243 148.05 67.0963 148.962 67.0963 150.69C67.0963 152.466 66.7123 153.354 66.0043 153.354C65.3083 153.354 64.8763 152.502 64.8763 150.714C64.8763 148.89 65.3323 148.05 65.9923 148.05ZM72.6725 146.67C70.6565 146.67 69.7085 148.446 69.7085 150.714C69.7205 152.922 70.6085 154.734 72.6245 154.734C74.6045 154.734 75.5765 153.066 75.5765 150.666C75.5765 148.53 74.7485 146.67 72.6725 146.67ZM72.6485 148.05C73.3805 148.05 73.7525 148.962 73.7525 150.69C73.7525 152.466 73.3685 153.354 72.6605 153.354C71.9645 153.354 71.5325 152.502 71.5325 150.714C71.5325 148.89 71.9885 148.05 72.6485 148.05Z" fill="#A3A7B1"/>
<path d="M63.2183 204.117V202.257H64.1423V200.889H63.2183V196.317H60.9743L58.0343 201.069V202.257H61.4903V204.117H63.2183ZM59.7263 200.889L59.7383 200.865L60.7703 199.161C61.0343 198.669 61.2503 198.213 61.5023 197.709H61.5383C61.5143 198.213 61.4903 198.693 61.4903 199.161V200.889H59.7263ZM67.7746 196.185C65.7586 196.185 64.8106 197.961 64.8106 200.229C64.8226 202.437 65.7106 204.249 67.7266 204.249C69.7066 204.249 70.6786 202.581 70.6786 200.181C70.6786 198.045 69.8506 196.185 67.7746 196.185ZM67.7506 197.565C68.4826 197.565 68.8546 198.477 68.8546 200.205C68.8546 201.981 68.4706 202.869 67.7626 202.869C67.0666 202.869 66.6346 202.017 66.6346 200.229C66.6346 198.405 67.0906 197.565 67.7506 197.565ZM74.4308 196.185C72.4148 196.185 71.4668 197.961 71.4668 200.229C71.4788 202.437 72.3668 204.249 74.3828 204.249C76.3628 204.249 77.3348 202.581 77.3348 200.181C77.3348 198.045 76.5068 196.185 74.4308 196.185ZM74.4068 197.565C75.1388 197.565 75.5108 198.477 75.5108 200.205C75.5108 201.981 75.1268 202.869 74.4188 202.869C73.7228 202.869 73.2908 202.017 73.2908 200.229C73.2908 198.405 73.7468 197.565 74.4068 197.565Z" fill="#A3A7B1"/>
<path d="M63.8063 254.622V253.122H60.8543V253.098L61.5743 252.498C62.7143 251.49 63.6503 250.446 63.6503 249.126C63.6503 247.722 62.6903 246.69 60.9143 246.69C59.8703 246.69 58.9463 247.05 58.3703 247.494L58.8863 248.79C59.2943 248.49 59.8823 248.154 60.5543 248.154C61.4543 248.154 61.8263 248.658 61.8263 249.294C61.8143 250.206 60.9863 251.082 59.2703 252.618L58.2743 253.518V254.622H63.8063ZM67.7746 246.69C65.7586 246.69 64.8106 248.466 64.8106 250.734C64.8226 252.942 65.7106 254.754 67.7266 254.754C69.7066 254.754 70.6786 253.086 70.6786 250.686C70.6786 248.55 69.8506 246.69 67.7746 246.69ZM67.7506 248.07C68.4826 248.07 68.8546 248.982 68.8546 250.71C68.8546 252.486 68.4706 253.374 67.7626 253.374C67.0666 253.374 66.6346 252.522 66.6346 250.734C66.6346 248.91 67.0906 248.07 67.7506 248.07ZM74.4308 246.69C72.4148 246.69 71.4668 248.466 71.4668 250.734C71.4788 252.942 72.3668 254.754 74.3828 254.754C76.3628 254.754 77.3348 253.086 77.3348 250.686C77.3348 248.55 76.5068 246.69 74.4308 246.69ZM74.4068 248.07C75.1388 248.07 75.5108 248.982 75.5108 250.71C75.5108 252.486 75.1268 253.374 74.4188 253.374C73.7228 253.374 73.2908 252.522 73.2908 250.734C73.2908 248.91 73.7468 248.07 74.4068 248.07Z" fill="#A3A7B1"/>
<path d="M59.36 295.214C57.344 295.214 56.396 296.99 56.396 299.258C56.408 301.466 57.296 303.278 59.312 303.278C61.292 303.278 62.264 301.61 62.264 299.21C62.264 297.074 61.436 295.214 59.36 295.214ZM59.336 296.594C60.068 296.594 60.44 297.506 60.44 299.234C60.44 301.01 60.056 301.898 59.348 301.898C58.652 301.898 58.22 301.046 58.22 299.258C58.22 297.434 58.676 296.594 59.336 296.594Z" fill="#A3A7B1"/>
<path d="M56.792 106.902V111.414C56.792 113.982 57.98 115.122 60.02 115.122C62.132 115.122 63.392 113.934 63.392 111.438V106.902H61.568V111.546C61.568 112.986 61.04 113.658 60.08 113.658C59.156 113.658 58.616 112.95 58.616 111.546V106.902H56.792ZM64.4233 114.702C64.8673 114.942 65.5513 115.122 66.3193 115.122C67.9993 115.122 68.8513 114.318 68.8513 113.214C68.8393 112.362 68.3833 111.786 67.2673 111.402C66.5473 111.15 66.3193 111.006 66.3193 110.718C66.3193 110.43 66.5713 110.25 67.0153 110.25C67.5073 110.25 68.0233 110.442 68.2873 110.586L68.5993 109.326C68.2393 109.146 67.6393 108.978 66.9553 108.978C65.5033 108.978 64.5673 109.806 64.5673 110.91C64.5553 111.606 65.0233 112.266 66.2473 112.674C66.9193 112.902 67.0993 113.046 67.0993 113.358C67.0993 113.658 66.8713 113.838 66.3193 113.838C65.7793 113.838 65.0833 113.61 64.7473 113.406L64.4233 114.702ZM75.1465 112.638C75.1705 112.506 75.2065 112.23 75.2065 111.918C75.2065 110.466 74.4865 108.99 72.5905 108.99C70.5505 108.99 69.6265 110.634 69.6265 112.122C69.6265 113.958 70.7665 115.11 72.7585 115.11C73.5505 115.11 74.2825 114.99 74.8825 114.738L74.6425 113.502C74.1505 113.67 73.6465 113.754 73.0225 113.754C72.1705 113.754 71.4145 113.394 71.3665 112.638H75.1465ZM71.3545 111.39C71.4025 110.91 71.7145 110.202 72.4825 110.202C73.3225 110.202 73.5145 110.946 73.5145 111.39H71.3545ZM76.3023 114.99H78.1263V112.014C78.1263 111.87 78.1383 111.726 78.1623 111.606C78.2823 111.042 78.7383 110.682 79.4103 110.682C79.6143 110.682 79.7583 110.706 79.9023 110.73V109.014C79.7703 108.99 79.6863 108.978 79.5183 108.978C78.9423 108.978 78.2343 109.338 77.9343 110.202H77.8863L77.8143 109.122H76.2543C76.2903 109.626 76.3023 110.19 76.3023 111.054V114.99ZM80.5249 114.702C80.9689 114.942 81.6529 115.122 82.4209 115.122C84.1009 115.122 84.9529 114.318 84.9529 113.214C84.9409 112.362 84.4849 111.786 83.3689 111.402C82.6489 111.15 82.4209 111.006 82.4209 110.718C82.4209 110.43 82.6729 110.25 83.1169 110.25C83.6089 110.25 84.1249 110.442 84.3889 110.586L84.7009 109.326C84.3409 109.146 83.7409 108.978 83.0569 108.978C81.6049 108.978 80.6689 109.806 80.6689 110.91C80.6569 111.606 81.1249 112.266 82.3489 112.674C83.0209 112.902 83.2009 113.046 83.2009 113.358C83.2009 113.658 82.9729 113.838 82.4209 113.838C81.8809 113.838 81.1849 113.61 80.8489 113.406L80.5249 114.702Z" fill="#A3A7B1"/>
<path d="M100.432 325.454L98.2238 326.234L98.6318 327.65L100.216 327.206V333.854H101.872V325.454H100.432ZM103.056 333.854H108.672V332.258H105.516L107.16 330.614C107.952 329.822 108.54 328.946 108.54 327.926C108.54 326.246 107.208 325.286 105.768 325.286C104.628 325.286 103.536 325.862 102.996 327.062L104.388 327.878C104.664 327.278 105.144 326.894 105.792 326.894C106.428 326.894 106.884 327.314 106.884 327.986C106.884 328.55 106.464 329.102 105.924 329.666L103.056 332.618V333.854ZM115.287 333.854H117.087L114.135 325.454H112.083L109.143 333.854H110.931L111.435 332.342H114.783L115.287 333.854ZM111.963 330.794L113.115 327.362L114.267 330.794H111.963ZM126.123 325.454H124.419L122.019 329.426L119.607 325.454H117.903V333.854H119.559V328.418L121.923 332.306H122.115L124.479 328.406V333.854H126.123V325.454Z" fill="#A3A7B1"/>
<path d="M197.081 330.89H196.181V328.898H194.513V330.89H192.329L195.113 325.454H193.337L190.541 330.89V332.426H194.513V333.854H196.181V332.426H197.081V330.89ZM203.43 333.854H205.23L202.278 325.454H200.226L197.286 333.854H199.074L199.578 332.342H202.926L203.43 333.854ZM200.106 330.794L201.258 327.362L202.41 330.794H200.106ZM214.265 325.454H212.561L210.161 329.426L207.749 325.454H206.045V333.854H207.701V328.418L210.065 332.306H210.257L212.621 328.406V333.854H214.265V325.454Z" fill="#A3A7B1"/>
<path d="M238.992 329.486C239.532 329.102 239.868 328.526 239.868 327.746C239.868 326.126 238.62 325.286 237.144 325.286C235.668 325.286 234.408 326.126 234.408 327.746C234.408 328.526 234.756 329.102 235.284 329.486C234.552 329.93 234.132 330.662 234.132 331.514C234.132 333.062 235.272 334.022 237.144 334.022C239.004 334.022 240.156 333.062 240.156 331.514C240.156 330.662 239.736 329.93 238.992 329.486ZM237.144 326.846C237.768 326.846 238.224 327.206 238.224 327.83C238.224 328.442 237.768 328.826 237.144 328.826C236.52 328.826 236.064 328.442 236.064 327.83C236.064 327.206 236.52 326.846 237.144 326.846ZM237.144 332.462C236.352 332.462 235.776 332.054 235.776 331.298C235.776 330.554 236.352 330.146 237.144 330.146C237.936 330.146 238.512 330.554 238.512 331.298C238.512 332.054 237.936 332.462 237.144 332.462ZM246.619 333.854H248.419L245.467 325.454H243.415L240.475 333.854H242.263L242.767 332.342H246.115L246.619 333.854ZM243.295 330.794L244.447 327.362L245.599 330.794H243.295ZM257.455 325.454H255.751L253.351 329.426L250.939 325.454H249.235V333.854H250.891V328.418L253.255 332.306H253.447L255.811 328.406V333.854H257.455V325.454Z" fill="#A3A7B1"/>
<path d="M276.313 325.454L274.105 326.234L274.513 327.65L276.097 327.206V333.854H277.753V325.454H276.313ZM282.394 334.022C284.542 334.022 285.754 332.246 285.754 329.654C285.754 327.062 284.542 325.286 282.394 325.286C280.258 325.286 279.034 327.062 279.034 329.654C279.034 332.246 280.258 334.022 282.394 334.022ZM282.394 332.402C281.266 332.402 280.69 331.43 280.69 329.654C280.69 327.878 281.266 326.894 282.394 326.894C283.522 326.894 284.11 327.878 284.11 329.654C284.11 331.43 283.522 332.402 282.394 332.402ZM291.989 333.854H293.789L290.837 325.454H288.785L285.845 333.854H287.633L288.137 332.342H291.485L291.989 333.854ZM288.665 330.794L289.817 327.362L290.969 330.794H288.665ZM302.824 325.454H301.12L298.72 329.426L296.308 325.454H294.604V333.854H296.26V328.418L298.624 332.306H298.816L301.18 328.406V333.854H302.824V325.454Z" fill="#A3A7B1"/>
<path d="M320.511 325.454L318.303 326.234L318.711 327.65L320.295 327.206V333.854H321.951V325.454H320.511ZM323.135 333.854H328.751V332.258H325.595L327.239 330.614C328.031 329.822 328.619 328.946 328.619 327.926C328.619 326.246 327.287 325.286 325.847 325.286C324.707 325.286 323.615 325.862 323.075 327.062L324.467 327.878C324.743 327.278 325.223 326.894 325.871 326.894C326.507 326.894 326.963 327.314 326.963 327.986C326.963 328.55 326.543 329.102 326.003 329.666L323.135 332.618V333.854ZM333.098 325.454H329.966V333.854H331.622V331.094H333.098C334.718 331.094 335.966 329.846 335.966 328.274C335.966 326.702 334.718 325.454 333.098 325.454ZM333.098 329.546H331.622V327.002H333.098C333.806 327.002 334.322 327.542 334.322 328.274C334.322 328.994 333.806 329.546 333.098 329.546ZM345.264 325.454H343.56L341.16 329.426L338.748 325.454H337.044V333.854H338.7V328.418L341.064 332.306H341.256L343.62 328.406V333.854H345.264V325.454Z" fill="#A3A7B1"/>
<path d="M450.76 325.454L448.552 326.234L448.96 327.65L450.544 327.206V333.854H452.2V325.454H450.76ZM458.316 329.486C458.856 329.102 459.192 328.526 459.192 327.746C459.192 326.126 457.944 325.286 456.468 325.286C454.992 325.286 453.732 326.126 453.732 327.746C453.732 328.526 454.08 329.102 454.608 329.486C453.876 329.93 453.456 330.662 453.456 331.514C453.456 333.062 454.596 334.022 456.468 334.022C458.328 334.022 459.48 333.062 459.48 331.514C459.48 330.662 459.06 329.93 458.316 329.486ZM456.468 326.846C457.092 326.846 457.548 327.206 457.548 327.83C457.548 328.442 457.092 328.826 456.468 328.826C455.844 328.826 455.388 328.442 455.388 327.83C455.388 327.206 455.844 326.846 456.468 326.846ZM456.468 332.462C455.676 332.462 455.1 332.054 455.1 331.298C455.1 330.554 455.676 330.146 456.468 330.146C457.26 330.146 457.836 330.554 457.836 331.298C457.836 332.054 457.26 332.462 456.468 332.462ZM463.793 325.454H460.661V333.854H462.317V331.094H463.793C465.413 331.094 466.661 329.846 466.661 328.274C466.661 326.702 465.413 325.454 463.793 325.454ZM463.793 329.546H462.317V327.002H463.793C464.501 327.002 465.017 327.542 465.017 328.274C465.017 328.994 464.501 329.546 463.793 329.546ZM475.959 325.454H474.255L471.855 329.426L469.443 325.454H467.739V333.854H469.395V328.418L471.759 332.306H471.951L474.315 328.406V333.854H475.959V325.454Z" fill="#A3A7B1"/>
<path d="M364.052 325.454L361.844 326.234L362.252 327.65L363.836 327.206V333.854H365.492V325.454H364.052ZM373.144 330.89H372.244V328.898H370.576V330.89H368.392L371.176 325.454H369.4L366.604 330.89V332.426H370.576V333.854H372.244V332.426H373.144V330.89ZM377.225 325.454H374.093V333.854H375.749V331.094H377.225C378.845 331.094 380.093 329.846 380.093 328.274C380.093 326.702 378.845 325.454 377.225 325.454ZM377.225 329.546H375.749V327.002H377.225C377.933 327.002 378.449 327.542 378.449 328.274C378.449 328.994 377.933 329.546 377.225 329.546ZM389.392 325.454H387.688L385.288 329.426L382.876 325.454H381.172V333.854H382.828V328.418L385.192 332.306H385.384L387.748 328.406V333.854H389.392V325.454Z" fill="#A3A7B1"/>
<path d="M490.884 333.854H496.5V332.258H493.344L494.988 330.614C495.78 329.822 496.368 328.946 496.368 327.926C496.368 326.246 495.036 325.286 493.596 325.286C492.456 325.286 491.364 325.862 490.824 327.062L492.216 327.878C492.492 327.278 492.972 326.894 493.62 326.894C494.256 326.894 494.712 327.314 494.712 327.986C494.712 328.55 494.292 329.102 493.752 329.666L490.884 332.618V333.854ZM500.598 334.022C502.746 334.022 503.958 332.246 503.958 329.654C503.958 327.062 502.746 325.286 500.598 325.286C498.462 325.286 497.238 327.062 497.238 329.654C497.238 332.246 498.462 334.022 500.598 334.022ZM500.598 332.402C499.47 332.402 498.894 331.43 498.894 329.654C498.894 327.878 499.47 326.894 500.598 326.894C501.726 326.894 502.314 327.878 502.314 329.654C502.314 331.43 501.726 332.402 500.598 332.402ZM508.289 325.454H505.157V333.854H506.813V331.094H508.289C509.909 331.094 511.157 329.846 511.157 328.274C511.157 326.702 509.909 325.454 508.289 325.454ZM508.289 329.546H506.813V327.002H508.289C508.997 327.002 509.513 327.542 509.513 328.274C509.513 328.994 508.997 329.546 508.289 329.546ZM520.455 325.454H518.751L516.351 329.426L513.939 325.454H512.235V333.854H513.891V328.418L516.255 332.306H516.447L518.811 328.406V333.854H520.455V325.454Z" fill="#A3A7B1"/>
<path d="M407.535 325.454L405.327 326.234L405.735 327.65L407.319 327.206V333.854H408.975V325.454H407.535ZM413.255 328.178L415.115 325.454H413.219L410.603 329.402C410.291 329.87 410.111 330.446 410.111 331.094C410.111 332.81 411.347 334.022 413.147 334.022C414.947 334.022 416.195 332.81 416.195 331.094C416.195 329.414 414.995 328.226 413.255 328.178ZM413.147 332.462C412.367 332.462 411.755 331.946 411.755 331.094C411.755 330.242 412.367 329.738 413.147 329.738C413.927 329.738 414.551 330.254 414.551 331.094C414.551 331.946 413.927 332.462 413.147 332.462ZM420.38 325.454H417.248V333.854H418.904V331.094H420.38C422 331.094 423.248 329.846 423.248 328.274C423.248 326.702 422 325.454 420.38 325.454ZM420.38 329.546H418.904V327.002H420.38C421.088 327.002 421.604 327.542 421.604 328.274C421.604 328.994 421.088 329.546 420.38 329.546ZM432.546 325.454H430.842L428.442 329.426L426.03 325.454H424.326V333.854H425.982V328.418L428.346 332.306H428.538L430.902 328.406V333.854H432.546V325.454Z" fill="#A3A7B1"/>
<path d="M534.221 333.854H539.837V332.258H536.681L538.325 330.614C539.117 329.822 539.705 328.946 539.705 327.926C539.705 326.246 538.373 325.286 536.933 325.286C535.793 325.286 534.701 325.862 534.161 327.062L535.553 327.878C535.829 327.278 536.309 326.894 536.957 326.894C537.593 326.894 538.049 327.314 538.049 327.986C538.049 328.55 537.629 329.102 537.089 329.666L534.221 332.618V333.854ZM540.596 333.854H546.212V332.258H543.056L544.7 330.614C545.492 329.822 546.08 328.946 546.08 327.926C546.08 326.246 544.748 325.286 543.308 325.286C542.168 325.286 541.076 325.862 540.536 327.062L541.928 327.878C542.204 327.278 542.684 326.894 543.332 326.894C543.968 326.894 544.424 327.314 544.424 327.986C544.424 328.55 544.004 329.102 543.464 329.666L540.596 332.618V333.854ZM550.559 325.454H547.427V333.854H549.083V331.094H550.559C552.179 331.094 553.427 329.846 553.427 328.274C553.427 326.702 552.179 325.454 550.559 325.454ZM550.559 329.546H549.083V327.002H550.559C551.267 327.002 551.783 327.542 551.783 328.274C551.783 328.994 551.267 329.546 550.559 329.546ZM562.725 325.454H561.021L558.621 329.426L556.209 325.454H554.505V333.854H556.161V328.418L558.525 332.306H558.717L561.081 328.406V333.854H562.725V325.454Z" fill="#A3A7B1"/>
<path d="M147.587 333.854H153.203V332.258H150.047L151.691 330.614C152.483 329.822 153.071 328.946 153.071 327.926C153.071 326.246 151.739 325.286 150.299 325.286C149.159 325.286 148.067 325.862 147.527 327.062L148.919 327.878C149.195 327.278 149.675 326.894 150.323 326.894C150.959 326.894 151.415 327.314 151.415 327.986C151.415 328.55 150.995 329.102 150.455 329.666L147.587 332.618V333.854ZM159.818 333.854H161.618L158.666 325.454H156.614L153.674 333.854H155.462L155.966 332.342H159.314L159.818 333.854ZM156.494 330.794L157.646 327.362L158.798 330.794H156.494ZM170.654 325.454H168.95L166.55 329.426L164.138 325.454H162.434V333.854H164.09V328.418L166.454 332.306H166.646L169.01 328.406V333.854H170.654V325.454Z" fill="#A3A7B1"/>
<path d="M115.5 298.078C112.5 298.078 110 294.552 110 290.322V172.145C110 167.914 112.5 164.388 115.5 164.388C118.5 164.388 121 167.914 121 172.145V290.322C120.9 294.693 118.5 298.078 115.5 298.078Z" fill="#0E144A"/>
<rect opacity="0.4" x="110" y="126.757" width="11" height="51" rx="5.5" fill="#0E144A"/>
<rect opacity="0.2" x="39" y="225" width="576" height="2" fill="#A3A7B1"/>
<path opacity="0.4" d="M33 231.728V219.845L38.8665 224.369C39.9288 225.188 39.8993 226.8 38.8076 227.58L33 231.728Z" fill="#A3A7B1"/>
<ellipse cx="158" cy="128.738" rx="4" ry="3.96116" stroke="#0E144A" stroke-width="2"/>
<path d="M159.5 298.078C156.5 298.078 154 294.813 154 290.896V181.473C154 177.556 156.5 174.291 159.5 174.291C162.5 174.291 165 177.556 165 181.473V290.896C164.9 294.944 162.5 298.078 159.5 298.078Z" fill="#0E144A"/>
<rect opacity="0.4" x="154" y="139.631" width="11" height="46.5437" rx="5.5" fill="#0E144A"/>
<path d="M202.5 298.078C199.5 298.078 197 295.283 197 291.93V198.264C197 194.911 199.5 192.117 202.5 192.117C205.5 192.117 208 194.911 208 198.264V291.93C207.9 295.395 205.5 298.078 202.5 298.078Z" fill="#0E144A"/>
<rect opacity="0.4" x="197" y="164.388" width="11" height="46.5437" rx="5.5" fill="#0E144A"/>
<path d="M245.5 298.078C242.5 298.078 240 295.283 240 291.93V198.264C240 194.911 242.5 192.117 245.5 192.117C248.5 192.117 251 194.911 251 198.264V291.93C250.9 295.395 248.5 298.078 245.5 298.078Z" fill="#0E144A"/>
<rect opacity="0.4" x="240" y="160.427" width="11" height="50.5049" rx="5.5" fill="#0E144A"/>
<path d="M288.5 298.078C285.5 298.078 283 295.283 283 291.93V198.264C283 194.911 285.5 192.117 288.5 192.117C291.5 192.117 294 194.911 294 198.264V291.93C293.9 295.395 291.5 298.078 288.5 298.078Z" fill="#0E144A"/>
<rect opacity="0.4" x="283" y="160.427" width="11" height="50.5049" rx="5.5" fill="#0E144A"/>
<path d="M375.5 298.078C372.5 298.078 370 295.283 370 291.93V198.264C370 194.911 372.5 192.117 375.5 192.117C378.5 192.117 381 194.911 381 198.264V291.93C380.9 295.395 378.5 298.078 375.5 298.078Z" fill="#0E144A"/>
<rect opacity="0.4" x="370" y="160.427" width="11" height="50.5049" rx="5.5" fill="#0E144A"/>
<path d="M419.5 298.078C416.5 298.078 414 295.283 414 291.93V198.264C414 194.911 416.5 192.117 419.5 192.117C422.5 192.117 425 194.911 425 198.264V291.93C424.9 295.395 422.5 298.078 419.5 298.078Z" fill="#0E144A"/>
<rect opacity="0.4" x="414" y="160.427" width="11" height="50.5049" rx="5.5" fill="#0E144A"/>
<path d="M462.5 298.078C459.5 298.078 457 295.283 457 291.93V198.264C457 194.911 459.5 192.117 462.5 192.117C465.5 192.117 468 194.911 468 198.264V291.93C467.9 295.395 465.5 298.078 462.5 298.078Z" fill="#0E144A"/>
<rect opacity="0.4" x="457" y="160.427" width="11" height="50.5049" rx="5.5" fill="#0E144A"/>
<path d="M505.5 298.078C502.5 298.078 500 295.283 500 291.93V198.264C500 194.911 502.5 192.117 505.5 192.117C508.5 192.117 511 194.911 511 198.264V291.93C510.9 295.395 508.5 298.078 505.5 298.078Z" fill="#0E144A"/>
<rect opacity="0.4" x="500" y="160.427" width="11" height="50.5049" rx="5.5" fill="#0E144A"/>
<path d="M547.5 298.078C544.5 298.078 542 296.746 542 295.148V250.503C542 248.905 544.5 247.573 547.5 247.573C550.5 247.573 553 248.905 553 250.503V295.148C552.9 296.799 550.5 298.078 547.5 298.078Z" fill="#0E144A"/>
<rect opacity="0.4" x="542" y="195.087" width="11" height="59.4175" rx="5.5" fill="#0E144A"/>
<path d="M332.5 298.078C329.5 298.078 327 295.283 327 291.93V198.264C327 194.911 329.5 192.116 332.5 192.116C335.5 192.116 338 194.911 338 198.264V291.93C337.9 295.395 335.5 298.078 332.5 298.078Z" fill="#0E144A"/>
<rect opacity="0.4" x="327" y="174" width="11" height="50.5049" rx="5.5" fill="#9FA1B7"/>
</svg>
