<svg width="18" height="15" viewBox="0 0 18 15" fill="none" xmlns="http://www.w3.org/2000/svg">
<path d="M9 5.72863L7.99425 3.77131C7.7445 3.28663 7.31138 2.5897 6.69825 2.02625C6.09525 1.47154 5.373 1.09409 4.5 1.09409C2.6145 1.09409 1.125 2.54484 1.125 4.28881C1.125 5.61375 1.74825 6.54919 3.2265 7.97588C3.60563 8.3413 4.03762 8.73627 4.51575 9.17172C5.76225 10.3096 7.3125 11.7253 9 13.6181C10.6875 11.7253 12.2378 10.3096 13.4843 9.17172C13.9624 8.73627 14.3955 8.34021 14.7735 7.97588C16.2517 6.54919 16.875 5.61375 16.875 4.28881C16.875 2.54484 15.3855 1.09409 13.5 1.09409C12.6259 1.09409 11.9047 1.47154 11.3017 2.02625C10.6886 2.5897 10.2555 3.28663 10.0057 3.77131L9 5.72863ZM9.441 14.8008C9.38682 14.8632 9.3193 14.9134 9.24313 14.9478C9.16696 14.9822 9.08399 15 9 15C8.91601 15 8.83304 14.9822 8.75687 14.9478C8.6807 14.9134 8.61318 14.8632 8.559 14.8008C6.75787 12.7198 5.12775 11.2319 3.78562 10.0076C1.4625 7.88617 0 6.55248 0 4.28881C0 1.92012 2.01375 0 4.5 0C6.3 0 7.55887 1.14879 8.3295 2.19692C8.622 2.59626 8.84475 2.98029 9 3.28226C9.19462 2.90433 9.41878 2.54148 9.6705 2.19692C10.4411 1.1477 11.7 0 13.5 0C15.9862 0 18 1.92012 18 4.28881C18 6.55248 16.5375 7.88617 14.2144 10.0076C12.8723 11.233 11.2421 12.7209 9.441 14.7997V14.8008Z" fill="#979797"/>
</svg>
