<svg width="193" height="34" viewBox="0 0 193 34" fill="none" xmlns="http://www.w3.org/2000/svg">
<path d="M0.263828 0.799998V26H5.23183V0.799998H0.263828ZM29.5886 7.496C27.1406 7.496 25.3406 8.468 24.2246 10.088C23.2166 8.432 21.5606 7.496 19.3286 7.496C17.0246 7.496 15.3326 8.396 14.3246 9.908V8H9.68064V26H14.3246V15.884C14.3246 13.184 15.7286 11.816 17.7086 11.816C19.6526 11.816 20.7326 13.112 20.7326 15.236V26H25.3766V15.884C25.3766 13.184 26.6726 11.816 28.7246 11.816C30.6686 11.816 31.7486 13.112 31.7486 15.236V26H36.3926V14.912C36.3926 10.412 33.6926 7.496 29.5886 7.496ZM50.8129 7.496C48.1849 7.496 46.2769 8.468 44.9809 10.124V8H40.3369V33.2H44.9809V23.876C46.2769 25.532 48.1849 26.504 50.8129 26.504C55.6369 26.504 59.5969 22.364 59.5969 17C59.5969 11.636 55.6369 7.496 50.8129 7.496ZM49.9489 22.076C47.1049 22.076 44.9809 20.024 44.9809 17C44.9809 13.976 47.1049 11.924 49.9489 11.924C52.8289 11.924 54.9529 13.976 54.9529 17C54.9529 20.024 52.8289 22.076 49.9489 22.076ZM67.516 11.096V8H62.872V26H67.516V17.396C67.516 13.616 70.576 12.536 72.988 12.824V7.64C70.72 7.64 68.452 8.648 67.516 11.096ZM78.9601 18.908H92.5321C92.6401 18.296 92.7121 17.684 92.7121 17C92.7121 11.708 88.9321 7.496 83.6041 7.496C77.9521 7.496 74.1001 11.636 74.1001 17C74.1001 22.364 77.9161 26.504 83.9641 26.504C87.4201 26.504 90.1201 25.1 91.8121 22.652L88.0681 20.492C87.2761 21.536 85.8361 22.292 84.0361 22.292C81.5881 22.292 79.6081 21.284 78.9601 18.908ZM78.8881 15.308C79.4281 13.004 81.1201 11.672 83.6041 11.672C85.5481 11.672 87.4921 12.716 88.0681 15.308H78.8881ZM99.535 13.112C99.535 12.14 100.471 11.636 101.623 11.636C102.955 11.636 103.963 12.32 104.503 13.472L108.463 11.312C107.059 8.828 104.539 7.496 101.623 7.496C97.915 7.496 94.783 9.548 94.783 13.22C94.783 19.556 104.071 18.116 104.071 20.744C104.071 21.788 103.063 22.292 101.587 22.292C99.787 22.292 98.563 21.428 98.059 19.952L94.027 22.22C95.323 24.992 97.987 26.504 101.587 26.504C105.439 26.504 108.823 24.632 108.823 20.744C108.823 14.12 99.535 15.776 99.535 13.112ZM115.144 13.112C115.144 12.14 116.08 11.636 117.232 11.636C118.564 11.636 119.572 12.32 120.112 13.472L124.072 11.312C122.668 8.828 120.148 7.496 117.232 7.496C113.524 7.496 110.392 9.548 110.392 13.22C110.392 19.556 119.68 18.116 119.68 20.744C119.68 21.788 118.672 22.292 117.196 22.292C115.396 22.292 114.172 21.428 113.668 19.952L109.636 22.22C110.932 24.992 113.596 26.504 117.196 26.504C121.048 26.504 124.432 24.632 124.432 20.744C124.432 14.12 115.144 15.776 115.144 13.112ZM129.723 5.84C131.307 5.84 132.603 4.544 132.603 2.996C132.603 1.448 131.307 0.115999 129.723 0.115999C128.175 0.115999 126.879 1.448 126.879 2.996C126.879 4.544 128.175 5.84 129.723 5.84ZM127.419 26H132.063V8H127.419V26ZM144.881 26.504C150.173 26.504 154.421 22.364 154.421 17C154.421 11.636 150.173 7.496 144.881 7.496C139.589 7.496 135.377 11.636 135.377 17C135.377 22.364 139.589 26.504 144.881 26.504ZM144.881 21.968C142.145 21.968 140.021 19.916 140.021 17C140.021 14.084 142.145 12.032 144.881 12.032C147.653 12.032 149.777 14.084 149.777 17C149.777 19.916 147.653 21.968 144.881 21.968ZM167.696 7.496C165.284 7.496 163.412 8.396 162.332 10.016V8H157.688V26H162.332V16.28C162.332 13.148 164.024 11.816 166.292 11.816C168.38 11.816 169.856 13.076 169.856 15.524V26H174.5V14.948C174.5 10.16 171.512 7.496 167.696 7.496ZM182.75 13.112C182.75 12.14 183.686 11.636 184.838 11.636C186.17 11.636 187.178 12.32 187.718 13.472L191.678 11.312C190.274 8.828 187.754 7.496 184.838 7.496C181.13 7.496 177.998 9.548 177.998 13.22C177.998 19.556 187.286 18.116 187.286 20.744C187.286 21.788 186.278 22.292 184.802 22.292C183.002 22.292 181.778 21.428 181.274 19.952L177.242 22.22C178.538 24.992 181.202 26.504 184.802 26.504C188.654 26.504 192.038 24.632 192.038 20.744C192.038 14.12 182.75 15.776 182.75 13.112Z" fill="#231F20"/>
</svg>
