<svg width="158" height="98" viewBox="0 0 158 98" fill="none" xmlns="http://www.w3.org/2000/svg">
<g clip-path="url(#clip0_8527_3034)">
<path d="M15.5092 58.2H18.8212V75H15.5092V58.2ZM35.0591 62.664C36.4351 62.664 37.5311 63.112 38.3471 64.008C39.1791 64.904 39.5951 66.104 39.5951 67.608V75H36.4991V67.824C36.4991 67.104 36.3231 66.544 35.9711 66.144C35.6191 65.744 35.1231 65.544 34.4831 65.544C33.7791 65.544 33.2271 65.776 32.8271 66.24C32.4431 66.704 32.2511 67.376 32.2511 68.256V75H29.1551V67.824C29.1551 67.104 28.9791 66.544 28.6271 66.144C28.2751 65.744 27.7791 65.544 27.1391 65.544C26.4511 65.544 25.8991 65.776 25.4831 66.24C25.0831 66.704 24.8831 67.376 24.8831 68.256V75H21.7871V63H24.8831V64.272C25.6031 63.2 26.7151 62.664 28.2191 62.664C29.6911 62.664 30.7791 63.24 31.4831 64.392C32.2831 63.24 33.4751 62.664 35.0591 62.664ZM49.2086 62.664C50.8246 62.664 52.2006 63.28 53.3366 64.512C54.4886 65.728 55.0646 67.224 55.0646 69C55.0646 70.776 54.4886 72.28 53.3366 73.512C52.2006 74.728 50.8246 75.336 49.2086 75.336C47.5286 75.336 46.2326 74.752 45.3206 73.584V79.8H42.2246V63H45.3206V64.416C46.2326 63.248 47.5286 62.664 49.2086 62.664ZM46.2566 71.448C46.8806 72.072 47.6726 72.384 48.6326 72.384C49.5926 72.384 50.3846 72.072 51.0086 71.448C51.6486 70.808 51.9686 69.992 51.9686 69C51.9686 68.008 51.6486 67.2 51.0086 66.576C50.3846 65.936 49.5926 65.616 48.6326 65.616C47.6726 65.616 46.8806 65.936 46.2566 66.576C45.6326 67.2 45.3206 68.008 45.3206 69C45.3206 69.992 45.6326 70.808 46.2566 71.448ZM60.344 65.064C60.632 64.296 61.104 63.72 61.76 63.336C62.432 62.952 63.176 62.76 63.992 62.76V66.216C63.048 66.104 62.2 66.296 61.448 66.792C60.712 67.288 60.344 68.112 60.344 69.264V75H57.248V63H60.344V65.064ZM67.9734 70.272C68.3894 71.776 69.5174 72.528 71.3574 72.528C72.5414 72.528 73.4374 72.128 74.0454 71.328L76.5414 72.768C75.3574 74.48 73.6134 75.336 71.3094 75.336C69.3254 75.336 67.7334 74.736 66.5334 73.536C65.3334 72.336 64.7334 70.824 64.7334 69C64.7334 67.192 65.3254 65.688 66.5094 64.488C67.6934 63.272 69.2134 62.664 71.0694 62.664C72.8294 62.664 74.2774 63.272 75.4134 64.488C76.5654 65.704 77.1414 67.208 77.1414 69C77.1414 69.4 77.1014 69.824 77.0214 70.272H67.9734ZM67.9254 67.872H74.0454C73.8694 67.056 73.5014 66.448 72.9414 66.048C72.3974 65.648 71.7734 65.448 71.0694 65.448C70.2374 65.448 69.5494 65.664 69.0054 66.096C68.4614 66.512 68.1014 67.104 67.9254 67.872ZM81.69 66.408C81.69 66.728 81.898 66.992 82.314 67.2C82.746 67.392 83.266 67.568 83.874 67.728C84.482 67.872 85.09 68.064 85.698 68.304C86.306 68.528 86.818 68.912 87.234 69.456C87.666 70 87.882 70.68 87.882 71.496C87.882 72.728 87.418 73.68 86.49 74.352C85.578 75.008 84.434 75.336 83.058 75.336C80.594 75.336 78.914 74.384 78.018 72.48L80.706 70.968C81.058 72.008 81.842 72.528 83.058 72.528C84.162 72.528 84.714 72.184 84.714 71.496C84.714 71.176 84.498 70.92 84.066 70.728C83.65 70.52 83.138 70.336 82.53 70.176C81.922 70.016 81.314 69.816 80.706 69.576C80.098 69.336 79.578 68.96 79.146 68.448C78.73 67.92 78.522 67.264 78.522 66.48C78.522 65.296 78.954 64.368 79.818 63.696C80.698 63.008 81.786 62.664 83.082 62.664C84.058 62.664 84.946 62.888 85.746 63.336C86.546 63.768 87.178 64.392 87.642 65.208L85.002 66.648C84.618 65.832 83.978 65.424 83.082 65.424C82.682 65.424 82.346 65.512 82.074 65.688C81.818 65.864 81.69 66.104 81.69 66.408ZM92.0962 66.408C92.0962 66.728 92.3042 66.992 92.7202 67.2C93.1522 67.392 93.6722 67.568 94.2802 67.728C94.8882 67.872 95.4962 68.064 96.1042 68.304C96.7122 68.528 97.2242 68.912 97.6402 69.456C98.0722 70 98.2882 70.68 98.2882 71.496C98.2882 72.728 97.8242 73.68 96.8962 74.352C95.9842 75.008 94.8402 75.336 93.4642 75.336C91.0002 75.336 89.3202 74.384 88.4242 72.48L91.1122 70.968C91.4642 72.008 92.2482 72.528 93.4642 72.528C94.5682 72.528 95.1202 72.184 95.1202 71.496C95.1202 71.176 94.9042 70.92 94.4722 70.728C94.0562 70.52 93.5442 70.336 92.9362 70.176C92.3282 70.016 91.7202 69.816 91.1122 69.576C90.5042 69.336 89.9842 68.96 89.5522 68.448C89.1362 67.92 88.9282 67.264 88.9282 66.48C88.9282 65.296 89.3602 64.368 90.2242 63.696C91.1042 63.008 92.1922 62.664 93.4882 62.664C94.4642 62.664 95.3522 62.888 96.1522 63.336C96.9522 63.768 97.5842 64.392 98.0482 65.208L95.4082 66.648C95.0242 65.832 94.3842 65.424 93.4882 65.424C93.0882 65.424 92.7522 65.512 92.4802 65.688C92.2242 65.864 92.0962 66.104 92.0962 66.408ZM101.815 61.56C101.303 61.56 100.855 61.376 100.471 61.008C100.103 60.624 99.9193 60.176 99.9193 59.664C99.9193 59.152 100.103 58.704 100.471 58.32C100.855 57.936 101.303 57.744 101.815 57.744C102.343 57.744 102.791 57.936 103.159 58.32C103.543 58.704 103.735 59.152 103.735 59.664C103.735 60.176 103.543 60.624 103.159 61.008C102.791 61.376 102.343 61.56 101.815 61.56ZM100.279 75V63H103.375V75H100.279ZM116.433 73.512C115.201 74.728 113.697 75.336 111.921 75.336C110.145 75.336 108.641 74.728 107.409 73.512C106.193 72.28 105.585 70.776 105.585 69C105.585 67.224 106.193 65.728 107.409 64.512C108.641 63.28 110.145 62.664 111.921 62.664C113.697 62.664 115.201 63.28 116.433 64.512C117.665 65.728 118.281 67.224 118.281 69C118.281 70.776 117.665 72.28 116.433 73.512ZM109.593 71.376C110.217 72 110.993 72.312 111.921 72.312C112.849 72.312 113.625 72 114.249 71.376C114.873 70.752 115.185 69.96 115.185 69C115.185 68.04 114.873 67.248 114.249 66.624C113.625 66 112.849 65.688 111.921 65.688C110.993 65.688 110.217 66 109.593 66.624C108.985 67.248 108.681 68.04 108.681 69C108.681 69.96 108.985 70.752 109.593 71.376ZM127.131 62.664C128.443 62.664 129.523 63.104 130.371 63.984C131.235 64.864 131.667 66.08 131.667 67.632V75H128.571V68.016C128.571 67.216 128.355 66.608 127.923 66.192C127.491 65.76 126.915 65.544 126.195 65.544C125.395 65.544 124.755 65.792 124.275 66.288C123.795 66.784 123.555 67.528 123.555 68.52V75H120.459V63H123.555V64.344C124.307 63.224 125.499 62.664 127.131 62.664ZM137.167 66.408C137.167 66.728 137.375 66.992 137.791 67.2C138.223 67.392 138.743 67.568 139.351 67.728C139.959 67.872 140.567 68.064 141.175 68.304C141.783 68.528 142.295 68.912 142.711 69.456C143.143 70 143.359 70.68 143.359 71.496C143.359 72.728 142.895 73.68 141.967 74.352C141.055 75.008 139.911 75.336 138.535 75.336C136.071 75.336 134.391 74.384 133.495 72.48L136.183 70.968C136.535 72.008 137.319 72.528 138.535 72.528C139.639 72.528 140.191 72.184 140.191 71.496C140.191 71.176 139.975 70.92 139.543 70.728C139.127 70.52 138.615 70.336 138.007 70.176C137.399 70.016 136.791 69.816 136.183 69.576C135.575 69.336 135.055 68.96 134.623 68.448C134.207 67.92 133.999 67.264 133.999 66.48C133.999 65.296 134.431 64.368 135.295 63.696C136.175 63.008 137.263 62.664 138.559 62.664C139.535 62.664 140.423 62.888 141.223 63.336C142.023 63.768 142.655 64.392 143.119 65.208L140.479 66.648C140.095 65.832 139.455 65.424 138.559 65.424C138.159 65.424 137.823 65.512 137.551 65.688C137.295 65.864 137.167 66.104 137.167 66.408Z" fill="#231F20"/>
<path d="M66.9227 38.1158C74.3268 40.248 82.4078 37.1316 87.819 31.9629C87.819 31.9082 87.819 31.8493 87.819 31.7905C87.8143 31.6841 87.8316 31.5778 87.8697 31.4784C87.9077 31.3789 87.9658 31.2883 88.0403 31.2123C88.1148 31.1362 88.2041 31.0762 88.3027 31.036C88.4014 30.9959 88.5072 30.9764 88.6136 30.9788C88.6231 30.6135 88.5763 30.2489 88.4749 29.8979C87.1902 31.4241 85.556 32.6172 83.7113 33.3758C81.8665 34.1344 79.8659 34.436 77.8796 34.255H77.7282H77.6273H77.5012L77.2868 34.2297H77.2027L77.0345 34.2045H76.9336L76.7738 34.1751H76.6897L76.4585 34.1288H76.3828L76.2062 34.091H76.1263L75.8993 34.0321H75.8194L75.6512 33.9858L75.5629 33.9606L75.3401 33.8975H75.277L75.1046 33.8428L75.0037 33.8092L74.8482 33.7545L74.7262 33.7082L74.5581 33.6452L74.4613 33.6073L74.31 33.5484L74.2049 33.5022L74.0199 33.4223L73.9316 33.3844L73.7592 33.3045L73.7045 33.2793L73.4817 33.1699L73.4186 33.1405L73.221 33.0353H73.1874L72.9561 32.9092L72.9141 32.8839C72.8384 32.8419 72.7627 32.7998 72.6913 32.7536L72.4558 32.6106H72.4264C72.2694 32.5152 72.1138 32.4143 71.9597 32.3078L71.9218 32.2783L71.7032 32.1227L71.514 31.9839L71.4257 31.9166L71.3206 31.8325L71.1146 31.6643H71.0936C69.8417 30.6261 68.8084 29.3495 68.0537 27.9087L68.0285 27.8666L67.957 27.7236L67.9024 27.6101L67.8435 27.4923C67.8183 27.4418 67.793 27.3914 67.772 27.3409L67.7384 27.2736L67.6417 27.0591V27.0213C67.0943 25.7435 66.7646 24.3831 66.6662 22.9965V22.7105C66.6662 22.6432 66.6662 22.5759 66.6662 22.5086V22.2899C66.5956 20.7864 66.8008 19.2826 67.2717 17.853C67.3642 17.5838 67.4651 17.3188 67.5786 17.0581L67.6333 16.9277L67.6921 16.8226C67.7174 16.7637 67.7426 16.709 67.772 16.6501L67.8057 16.5702L67.9066 16.3726L67.9318 16.3179C67.9696 16.2464 68.0033 16.1749 68.0411 16.1076L68.0663 16.0571L68.1841 15.8469C69.7061 13.1297 72.1941 11.0845 75.154 10.1176C78.114 9.1507 81.3292 9.33277 84.1611 10.6276L91.1237 3.65889C88.2128 1.72411 84.8812 0.514525 81.4074 0.131269C77.9335 -0.251986 74.4184 0.202228 71.156 1.45593C67.8936 2.70964 64.9786 4.7264 62.6549 7.33759C60.3311 9.94878 58.6661 13.0785 57.799 16.4651C57.7612 16.6123 57.7275 16.7595 57.6939 16.9109V16.9656C56.9809 20.0401 56.9417 23.2326 57.5789 26.3238C58.2161 29.415 59.5147 32.3316 61.3854 34.8732C61.5253 34.9024 61.6555 34.9667 61.7636 35.0602C61.8718 35.1536 61.9543 35.2731 62.0035 35.4073C62.714 37.1989 64.6271 37.5985 66.2794 38.1915C66.374 38.1312 66.481 38.093 66.5924 38.0799C66.7038 38.0668 66.8167 38.0791 66.9227 38.1158Z" fill="#32908F"/>
<path d="M99.1249 30.4279C100.285 27.7003 100.881 24.7662 100.878 21.8021C100.878 21.3437 100.878 20.8895 100.836 20.4395V20.2797C100.374 13.5506 96.6023 7.42299 91.1238 3.65894L91.3383 21.7432V21.7895C91.3454 23.5566 90.9741 25.3047 90.2493 26.9162V26.954C89.5126 28.5854 88.4327 30.0385 87.0833 31.2143C83.8544 34.1102 79.898 36.0715 75.6387 36.8878C72.5847 37.516 69.4323 37.4902 66.3889 36.8121C64.4721 36.3563 62.6617 35.5337 61.0576 34.3896C63.2193 37.5459 66.1777 40.0735 69.6323 41.7156C73.0869 43.3577 76.9145 44.0557 80.7262 43.7388L81.0457 43.7093H81.1214C81.3821 43.6841 81.6427 43.6504 81.9034 43.6168C83.0056 43.4624 84.0947 43.2263 85.1619 42.9102H85.1829C85.3174 42.8724 85.4562 42.8303 85.6034 42.7841L85.679 42.7588L86.0028 42.6537L86.1836 42.5906L86.3938 42.5149C86.8142 42.3551 87.2599 42.1827 87.6846 41.9976H87.6425C92.4507 39.9194 96.3577 36.1903 98.6582 31.4835V31.4583V31.4204C98.8096 31.1092 98.9498 30.7896 99.0787 30.4615L99.1249 30.4279Z" fill="#DEEBBB"/>
<path fill-rule="evenodd" clip-rule="evenodd" d="M75.4283 14.9301C74.3693 14.9312 73.354 15.3525 72.6052 16.1015C71.8564 16.8506 71.4352 17.8662 71.4341 18.9255C71.4341 20.2839 72.0732 21.575 73.3639 22.8493C73.9988 23.4718 78.6237 28.1232 78.9433 28.4344L84.51 22.8535C85.8176 21.5918 86.4441 20.2881 86.4441 18.9297C86.4454 18.0428 86.1517 17.1807 85.6093 16.4792C85.0669 15.7777 84.3066 15.2767 83.4482 15.055C82.5897 14.8334 81.6819 14.9037 80.8678 15.255C80.0538 15.6062 79.3796 16.2184 78.9517 16.9951V17.0497V16.9951C78.6058 16.3709 78.0996 15.8504 77.4854 15.4874C76.8712 15.1244 76.1712 14.932 75.4578 14.9301H75.4283Z" fill="#ED2224"/>
</g>
<defs>
<clipPath id="clip0_8527_3034">
<rect width="158" height="98" fill="white"/>
</clipPath>
</defs>
</svg>
