<svg width="16" height="19" viewBox="0 0 16 19" fill="none" xmlns="http://www.w3.org/2000/svg">
<path d="M8.0271 4.71597e-05L8.26726 0.00450306C12.574 0.147934 16.0146 3.73537 16 8.12506L15.9998 8.22228C15.9508 10.8407 14.6528 13.419 12.4993 15.72C11.4369 16.837 10.2505 17.8258 8.9638 18.6669L8.97318 18.6599L8.92782 18.6987C8.41346 19.0717 7.73183 19.0984 7.19357 18.7786L7.07204 18.6987L7.01526 18.6537L6.62614 18.3893C5.00999 17.2647 3.57064 15.9003 2.35946 14.3458L2.06144 13.9533C0.792539 12.2747 0.0721024 10.2373 0 8.09999L0.00435559 7.82933C0.145973 3.46883 3.6892 -0.0147807 8.0271 4.71597e-05ZM8.02227 1.44164L7.79619 1.44472C4.26854 1.55328 1.43585 4.47665 1.42377 8.07492L1.44173 8.41409C1.564 10.1056 2.17146 11.727 3.19658 13.0832C4.46924 14.8039 6.03103 16.2845 7.81051 17.4572L7.88789 17.5162C7.95222 17.5725 8.04764 17.5725 8.11197 17.5162L8.19159 17.4558C9.38611 16.675 10.4875 15.757 11.4698 14.7242C13.3962 12.6659 14.5349 10.4039 14.5761 8.20863L14.5731 7.8937C14.4659 4.32199 11.5785 1.45391 8.02227 1.44164ZM7.99993 5.13123C9.68313 5.13123 11.0476 6.51277 11.0476 8.21698C11.0476 9.9212 9.68313 11.3027 7.99993 11.3027C6.31674 11.3027 4.95224 9.9212 4.95224 8.21698C4.95224 6.51277 6.31674 5.13123 7.99993 5.13123ZM7.99993 6.57278C7.10306 6.57278 6.37601 7.30891 6.37601 8.21698C6.37601 9.12505 7.10306 9.86119 7.99993 9.86119C8.8968 9.86119 9.62385 9.12505 9.62385 8.21698C9.62385 7.30891 8.8968 6.57278 7.99993 6.57278Z" fill="#979797"/>
</svg>
