<svg width="152" height="152" viewBox="0 0 152 152" fill="none" xmlns="http://www.w3.org/2000/svg">
<path d="M34.0284 132.234C59.7525 139.632 87.8283 128.82 106.628 110.889C106.628 110.699 106.628 110.495 106.628 110.291C106.612 109.921 106.672 109.553 106.805 109.208C106.937 108.863 107.139 108.549 107.397 108.285C107.656 108.021 107.967 107.813 108.309 107.673C108.652 107.534 109.019 107.466 109.389 107.475C109.422 106.207 109.26 104.943 108.907 103.725C104.444 109.019 98.7661 113.159 92.3569 115.79C85.9478 118.422 78.997 119.469 72.0959 118.841H71.57H71.2195H70.7812L70.0363 118.753H69.7441L69.1598 118.665H68.8092L68.2541 118.563H67.962L67.1585 118.403H66.8956L66.2821 118.272H66.0045L65.2157 118.067H64.9382L64.3539 117.907L64.0471 117.819L63.2729 117.6H63.0538L62.4549 117.411L62.1043 117.294L61.5638 117.104L61.1402 116.944L60.5559 116.725L60.2199 116.594L59.694 116.389L59.3289 116.229L58.6861 115.952L58.3793 115.82L57.7804 115.543L57.5905 115.456L56.8163 115.076L56.5972 114.974L55.9106 114.609H55.7938L54.9904 114.172L54.8443 114.084C54.5814 113.938 54.3184 113.792 54.0701 113.632L53.2521 113.136H53.1498C52.6045 112.805 52.064 112.455 51.5284 112.085L51.3969 111.983L50.6373 111.443L49.9799 110.962L49.6732 110.728L49.308 110.437L48.5922 109.853H48.5192C44.1698 106.251 40.58 101.822 37.9579 96.8238L37.8702 96.6779L37.6219 96.1818L37.432 95.7878L37.2275 95.3793C37.1398 95.2042 37.0522 95.0292 36.9792 94.8541L36.8623 94.6206L36.5263 93.8765V93.7452C34.6246 89.3124 33.4791 84.5928 33.1373 79.7823V78.7901C33.1373 78.5567 33.1373 78.3232 33.1373 78.0898V77.3311C32.892 72.115 33.605 66.898 35.2408 61.9383C35.5622 61.0045 35.9128 60.0854 36.3072 59.1808L36.4971 58.7285L36.7016 58.3637C36.7893 58.1594 36.8769 57.9698 36.9792 57.7655L37.096 57.4883L37.4466 56.8025L37.5343 56.6129C37.6657 56.3648 37.7826 56.1168 37.9141 55.8833L38.0017 55.7083L38.4107 54.9787C43.6987 45.5523 52.3429 38.4572 62.6266 35.1028C72.9102 31.7483 84.0808 32.38 93.9197 36.8722L118.11 12.696C107.997 5.98386 96.4217 1.78754 84.3525 0.457943C72.2833 -0.871653 60.0708 0.704115 48.7361 5.05349C37.4014 9.40287 27.274 16.3995 19.2006 25.4582C11.1271 34.517 5.34231 45.3747 2.32984 57.1235C2.19837 57.6342 2.08151 58.1448 1.96465 58.6701V58.8598C-0.512495 69.5261 -0.648792 80.6016 1.56511 91.3256C3.77902 102.05 8.29066 112.168 14.7902 120.985C15.2762 121.086 15.7285 121.31 16.1042 121.634C16.4799 121.958 16.7667 122.373 16.9375 122.838C19.4062 129.054 26.0526 130.44 31.7934 132.497C32.1221 132.288 32.4938 132.156 32.8808 132.11C33.2678 132.065 33.6601 132.107 34.0284 132.234Z" fill="#32908F"/>
<path d="M145.909 105.563C149.938 96.1004 152.01 85.9215 152 75.6384C152 74.0481 152 72.4723 151.854 70.9111V70.3567C150.247 47.0122 137.144 25.7541 118.11 12.6958L118.855 75.4341V75.5946C118.88 81.725 117.59 87.7896 115.072 93.3802V93.5115C112.512 99.171 108.76 104.212 104.072 108.292C92.8541 118.338 79.1081 125.142 64.3103 127.974C53.6996 130.153 42.747 130.064 32.1735 127.711C25.5141 126.13 19.2242 123.276 13.651 119.307C21.1612 130.257 31.4397 139.026 43.442 144.723C55.4443 150.419 68.7426 152.841 81.9855 151.741L83.0957 151.639H83.3587C84.2643 151.552 85.17 151.435 86.0757 151.318C89.905 150.783 93.689 149.964 97.3966 148.867H97.4696C97.9371 148.736 98.4191 148.59 98.9304 148.429L99.1933 148.342L100.318 147.977L100.946 147.758L101.677 147.496C103.137 146.941 104.686 146.343 106.161 145.701H106.015C122.72 138.491 136.294 125.554 144.287 109.225V109.138V109.006C144.813 107.927 145.3 106.818 145.748 105.68L145.909 105.563Z" fill="#DEEBBB"/>
<path fill-rule="evenodd" clip-rule="evenodd" d="M63.5795 51.7981C59.9002 51.802 56.3727 53.2635 53.771 55.8621C51.1694 58.4607 49.7061 61.984 49.7022 65.6589C49.7022 70.3716 51.9226 74.8508 56.4071 79.2717C58.6129 81.431 74.6813 97.5679 75.7915 98.6476L95.132 79.2862C99.675 74.9091 101.852 70.3862 101.852 65.6735C101.856 62.5969 100.836 59.6061 98.9514 57.1725C97.0669 54.7388 94.4253 53.0006 91.4428 52.2316C88.4603 51.4626 85.3064 51.7066 82.478 52.9251C79.6496 54.1437 77.3075 56.2675 75.8207 58.9619V59.1516V58.9619C74.6191 56.7966 72.8604 54.9909 70.7264 53.7315C68.5924 52.4721 66.1604 51.8047 63.6817 51.7981H63.5795Z" fill="#ED2224"/>
</svg>
