<svg width="15" height="19" viewBox="0 0 15 19" fill="none" xmlns="http://www.w3.org/2000/svg">
<path d="M5.46569 12.1798C6.81923 12.0588 8.18058 12.0588 9.53411 12.1798L9.96627 12.2169C10.5574 12.2759 11.1443 12.3684 11.7219 12.4934C13.1941 12.8007 14.2632 13.3458 14.7364 14.3571C15.0879 15.1095 15.0879 15.9829 14.7362 16.7356C14.2618 17.7494 13.179 18.2992 11.7329 18.5882L11.2948 18.6804C10.7092 18.7943 10.1186 18.872 9.53206 18.9127C8.43135 19.0077 7.3255 19.025 6.25877 18.9655C6.14119 18.9655 6.06226 18.9651 5.99272 18.9635L5.85748 18.9583C5.69306 18.9498 5.54241 18.9324 5.4792 18.9136C4.73706 18.8625 3.99985 18.7536 3.29264 18.5919L3.05275 18.5412C1.71358 18.2397 0.72184 17.6957 0.263098 16.7345C0.0893614 16.3615 -0.000503011 15.9538 1.85597e-05 15.5446C-0.00149112 15.1323 0.0891068 14.7252 0.269305 14.3449C0.747068 13.3725 1.86956 12.7873 3.27264 12.4945C3.99959 12.3366 4.73658 12.2311 5.46569 12.1798ZM9.41586 13.5499C8.14101 13.4359 6.8588 13.4359 5.57152 13.5508C4.89341 13.5987 4.21946 13.6951 3.54944 13.8406C2.51176 14.0572 1.71839 14.4708 1.48238 14.951C1.39547 15.1345 1.3507 15.3357 1.35144 15.5429C1.35119 15.7513 1.39656 15.9571 1.48149 16.1395C1.72422 16.6481 2.47287 17.0282 3.56979 17.246L3.90027 17.3169C4.45377 17.4281 5.02382 17.5048 5.65734 17.5532C5.73734 17.5695 5.82367 17.5795 5.92611 17.5848L6.29511 17.5912C7.33591 17.6483 8.37933 17.6319 9.42898 17.5415C10.1055 17.4945 10.7775 17.3956 11.4558 17.2423L11.6667 17.197C12.63 16.9757 13.2965 16.6135 13.5159 16.1447C13.6928 15.766 13.6928 15.3264 13.516 14.948C13.2813 14.4463 12.5392 14.0679 11.4456 13.8396C10.7804 13.6957 10.1062 13.5992 9.42774 13.5508L9.41586 13.5499ZM7.50403 0C10.2547 0 12.4845 2.26921 12.4845 5.06841C12.4845 7.86762 10.2547 10.1368 7.50403 10.1368C4.75338 10.1368 2.52354 7.86762 2.52354 5.06841C2.52354 2.26921 4.75338 0 7.50403 0ZM7.50403 1.37529C5.49975 1.37529 3.87496 3.02876 3.87496 5.06841C3.87496 7.10807 5.49975 8.76154 7.50403 8.76154C9.5083 8.76154 11.1331 7.10807 11.1331 5.06841C11.1331 3.02876 9.5083 1.37529 7.50403 1.37529Z" fill="#979797"/>
</svg>
