<svg width="15" height="18" viewBox="0 0 15 18" fill="none" xmlns="http://www.w3.org/2000/svg">
<path d="M10.75 2.62489H12.375C12.806 2.62489 13.2193 2.7961 13.524 3.10084C13.8288 3.40559 14 3.81892 14 4.24989V15.6249C14 16.0559 13.8288 16.4692 13.524 16.7739C13.2193 17.0787 12.806 17.2499 12.375 17.2499H2.625C2.19402 17.2499 1.7807 17.0787 1.47595 16.7739C1.1712 16.4692 1 16.0559 1 15.6249V4.24989C1 3.81892 1.1712 3.40559 1.47595 3.10084C1.7807 2.7961 2.19402 2.62489 2.625 2.62489H4.25" stroke="#979797" stroke-width="1.5" stroke-linecap="round" stroke-linejoin="round"/>
<path d="M9.9375 1H5.0625C4.61377 1 4.25 1.36377 4.25 1.8125V3.4375C4.25 3.88623 4.61377 4.25 5.0625 4.25H9.9375C10.3862 4.25 10.75 3.88623 10.75 3.4375V1.8125C10.75 1.36377 10.3862 1 9.9375 1Z" stroke="#979797" stroke-width="1.5" stroke-linecap="round" stroke-linejoin="round"/>
</svg>
