<svg width="239" height="164" viewBox="0 0 239 164" fill="none" xmlns="http://www.w3.org/2000/svg">
<path d="M124.401 164C180.004 164 225.079 160.045 225.079 155.167C225.079 150.288 180.004 146.333 124.401 146.333C68.7985 146.333 23.7235 150.288 23.7235 155.167C23.7235 160.045 68.7985 164 124.401 164Z" fill="url(#paint0_linear_430_811)"/>
<path opacity="0.3" d="M82.0437 133.937C81.7098 132.535 81.1557 130.471 81.0226 130.178C78.3746 124.386 72.6584 120.303 71.0909 113.971C70.6107 112.016 70.5582 109.885 69.4805 108.181C68.4049 106.48 65.6838 105.592 64.4122 107.156C63.1006 108.766 63.7354 113.1 60.2677 112.257C57.6184 111.611 57.9523 107.117 58.0937 105.058C58.2152 103.215 58.3614 101.253 57.4748 99.6354C56.5862 98.0147 54.2121 97.0853 52.8453 98.3217C51.4579 99.5726 51.7559 102.287 50.0276 102.984C49.0182 103.395 47.8377 102.781 47.2064 101.889C46.5772 101.001 46.3543 99.8996 46.0687 98.8495C45.0793 95.2149 43.1599 91.8363 40.545 89.1282C39.6412 88.1934 38.6035 87.3089 37.3444 86.9943C36.0825 86.6817 34.5577 87.1081 33.9589 88.2603C33.0605 89.9914 34.5874 91.928 35.8762 93.3921C37.1657 94.8555 38.271 97.2509 36.8159 98.5522C35.5926 99.643 33.5394 98.7957 32.6369 97.4276C31.7372 96.0573 31.5475 94.3546 30.9424 92.8325C29.7502 89.8292 26.7283 87.3406 23.4041 87.4096C22.3644 87.4317 21.2011 87.7849 20.7389 88.7163C20.28 89.6457 20.6913 90.7779 21.3108 91.6065C21.9304 92.4345 22.7521 93.112 23.2613 94.011C25.0917 97.2337 20.7492 98.5322 18.6262 96.7121C16.8172 95.1653 16.3936 92.6373 15.2545 90.6482C13.6318 87.8098 10.4318 85.949 7.16079 85.9414C-0.0132326 85.9228 -1.30895 91.7355 1.12655 97.5835C2.41191 100.673 4.41274 104.023 6.95725 106.249C11.2321 109.991 16.9973 111.977 22.6714 111.664C24.2196 111.579 25.8065 111.335 27.2906 111.78C28.7767 112.227 30.1214 113.648 29.8371 115.174C29.3024 118.052 24.1734 118.062 23.7015 120.955C23.4531 122.487 24.8785 123.884 26.4026 124.186C27.9253 124.485 29.4832 123.992 30.9604 123.51C33.6525 122.627 36.3419 121.74 39.0341 120.857C40.1166 120.501 41.2543 120.143 42.3734 120.354C43.4918 120.565 44.5495 121.565 44.4018 122.693C44.1852 124.336 41.8607 124.877 41.3046 126.437C40.8072 127.842 42.1181 129.371 43.5828 129.655C45.0476 129.941 46.5289 129.354 47.8839 128.725C49.4736 127.985 55.3008 126.235 55.6437 129.638C55.7348 130.578 54.9228 131.332 54.199 131.943C52.8074 133.117 52.0981 135.646 54.5281 136.215C55.514 136.446 56.5331 136.133 57.5038 135.854C65.1636 133.65 73.3621 133.352 81.1613 134.992C81.5407 135.07 81.9167 135.149 82.2914 135.24C82.3411 135.252 82.2252 134.691 82.0437 133.937Z" fill="url(#paint1_linear_430_811)"/>
<path d="M82.0927 87.4675C81.4725 95.3894 86.5111 102.307 87.348 110.02C87.3894 110.411 87.237 113.01 87.0845 114.758C87.0044 115.701 86.923 116.394 86.8727 116.362C86.4746 116.114 86.0703 115.877 85.6611 115.641C77.2749 110.748 67.6812 107.942 57.9792 107.548C56.7498 107.498 55.4513 107.468 54.3998 106.822C51.8098 105.229 53.6016 102.578 55.6617 101.756C56.7332 101.328 57.9613 100.768 58.2173 99.6463C59.1287 95.5805 51.7187 95.3646 49.5971 95.6088C47.7881 95.8151 45.85 95.9241 44.2666 95.032C42.6832 94.1392 41.7545 91.8693 42.8695 90.4356C44.1114 88.846 47.0064 89.113 47.8888 87.2971C48.4925 86.0497 47.6543 84.489 46.442 83.8149C45.2298 83.1409 43.7768 83.1174 42.3886 83.1126C38.9368 83.0995 35.4864 83.0912 32.0347 83.0781C30.1414 83.0684 28.1503 83.0394 26.5054 82.1087C24.8592 81.1738 23.7484 79.0109 24.624 77.335C26.2805 74.1716 32.2147 76.131 33.9389 73.009C34.8531 71.3546 33.8444 69.195 32.2982 68.107C30.7527 67.0231 28.825 66.6954 27.0022 66.1986C20.3222 64.3806 14.4204 59.8705 10.9155 53.9011C8.8298 50.3499 7.80386 45.708 7.50442 41.6422C6.93591 33.9459 10.6671 27.7233 18.954 30.5003C22.7321 31.7657 25.7168 35.1464 26.5027 39.0515C27.0546 41.7885 26.5731 44.8739 28.0702 47.357C29.8248 50.2761 35.3443 50.4438 34.4667 46.015C34.2238 44.7807 33.5339 43.6817 33.1358 42.486C32.7377 41.2903 32.697 39.8228 33.5849 38.9252C34.477 38.0255 35.9577 38.0648 37.1678 38.4388C41.0377 39.6365 43.576 43.6748 43.7996 47.6047C43.9148 49.5965 43.4794 51.6374 43.9934 53.5678C44.5109 55.4969 46.5593 57.2652 48.3925 56.4739C50.5748 55.5287 50.2167 52.3342 49.2887 50.1471C48.3608 47.96 47.3396 45.1333 49.0431 43.4774C50.1781 42.3756 52.1037 42.4687 53.4436 43.3146C54.7786 44.1619 55.6383 45.5824 56.3241 47.0113C58.307 51.1461 59.2274 55.7901 58.9748 60.3721C58.901 61.6961 58.7354 63.0559 59.1218 64.3241C59.5095 65.5963 60.6383 66.7609 61.963 66.6726C64.2294 66.5312 64.927 63.2781 67.012 62.3653C69.0673 61.4608 71.4545 63.4478 71.8595 65.6625C72.2631 67.8731 71.34 70.0851 70.492 72.1687C69.5372 74.4952 67.4252 79.5621 70.2395 81.327C73.9245 83.6355 74.8559 78.3809 76.9906 77.0238C79.0618 75.7033 81.8664 77.7752 82.4563 80.1555C83.0469 82.5392 82.2887 85.023 82.0927 87.4675Z" fill="#00BEC5"/>
<path d="M87.0836 114.758C87.0036 115.701 86.9222 116.394 86.8718 116.362C86.4737 116.114 86.0694 115.877 85.6603 115.641C83.4587 109.197 80.4209 103.146 76.8332 97.3392C69.666 85.7406 59.5646 75.6329 47.8411 68.6458C41.6999 64.9891 35.015 62.3363 28.9291 58.5989C24.0477 55.6066 18.3936 51.0909 16.7943 45.3548C16.6964 45.0084 17.1904 44.7945 17.3705 45.1043C19.4762 48.7099 21.6322 52.1493 24.9847 54.7366C28.2667 57.2701 31.8572 59.2957 35.5491 61.1544C41.9297 64.3647 48.1274 67.4053 53.9871 71.5208C59.3162 75.2638 64.143 79.5331 68.52 84.3545C76.6579 93.3216 82.8439 103.492 87.0836 114.758Z" fill="white"/>
<path opacity="0.3" d="M216.424 97.9201L207.119 95.4501C207.119 95.4501 213.505 94.467 219.54 93.8633C222.126 90.4556 223.224 88.4762 225.347 84.7553L214.465 84.7615L227.334 81.0676C229.135 77.7241 230.286 75.3314 231.677 72.246L224.669 72.84L233.02 69.0467C236.654 60.7205 238.127 55.7405 238.127 55.7405C238.127 55.7405 230.633 57.9828 223.429 60.7467L220.64 70.1058L220.107 62.366C215.835 64.0909 216.008 63.9377 211.238 66.4498L208.744 77.4247L207.003 68.5617C203.863 70.2941 202.77 70.9448 199.862 73.0029L198.008 83.9267L196.246 75.4218C194.729 76.5567 193.276 77.7379 191.91 78.964L192.418 90.2397L188.657 82.0708C186.375 84.2013 186.822 84.0785 185.196 86.4671C184.688 87.2143 184.209 87.9436 183.753 88.6597L184.337 97.3199L181.582 91.4892C174.793 107.071 177.069 114.958 177.069 114.958C177.069 114.958 184.379 119.599 201.06 110.507L196.57 108.487L205.174 108.1C205.772 107.74 205.174 108.1 205.794 107.706C209.631 105.26 213.185 101.844 216.424 97.9201Z" fill="url(#paint2_linear_430_811)"/>
<path d="M220.244 23.3525L212.719 30.1836L219.912 27.1796C219.49 30.9067 219.079 33.8203 218.315 37.9586L205.999 46.2165L217.471 42.5198C216.487 47.161 216.004 49.6221 214.427 54.0922C208.269 56.7747 201.87 59.9788 201.87 59.9788L212.519 59.4262C210.429 64.6601 207.847 69.4717 204.623 73.3492C204.101 73.9722 204.613 73.3892 204.101 73.9722L195.16 77.2971L200.585 77.9097C186.068 93.1492 176.787 90.7282 176.787 90.7282C176.787 90.7282 176.566 90.397 176.224 89.6932C175.973 89.1606 175.642 88.4072 175.31 87.4226C173.974 83.5852 172.407 76.2318 173.592 64.4482L178.474 69.6621L174.928 60.7315C175.169 59.8174 175.42 58.8832 175.712 57.929C176.615 54.8553 176.184 55.1361 177.871 52.1224L184.602 59.4558L180.242 47.7427C181.266 45.9847 182.401 44.2467 183.617 42.5391L188.358 50.9074L186.61 38.7624C188.981 35.608 189.915 34.553 192.637 31.6601L197.479 40.4203L196.384 27.9938C200.563 23.7341 200.433 23.9555 204.361 20.6804L207.546 28.6664L207.314 17.8475C213.975 12.4928 221.117 7.59077 221.117 7.59077C221.117 7.59077 221.249 13.347 220.244 23.3525Z" fill="#00BEC5"/>
<path d="M213.314 35.143C211.911 35.4424 210.647 36.449 209.421 37.1707C208.762 37.5585 208.097 37.94 207.434 38.3257C209.589 33.1152 211.407 27.7992 212.679 22.4287C212.71 22.3183 212.539 22.2279 212.479 22.348C209.628 28.652 206.952 34.976 204.115 41.2262C203.971 37.5571 203.523 33.6134 202.509 30.2768C202.412 29.9587 201.983 30.0422 201.954 30.352C201.549 34.6103 202.14 39.4855 202.967 43.7148C200.862 48.2574 198.638 52.7517 196.182 57.1652C196.107 55.0933 195.559 53.0063 195.176 50.9882C194.722 48.592 194.6 45.7281 193.173 43.7052C193.114 43.6217 192.972 43.623 192.944 43.7348C192.37 46.0109 193.208 48.5472 193.617 50.8178C194.077 53.3713 194.345 56.1296 195.439 58.501C195.334 58.6845 195.237 58.8708 195.131 59.0543C193.87 61.24 192.557 63.3871 191.211 65.5101C190.259 61.6864 188.382 57.5213 186.6 54.1171C186.409 53.7528 185.866 54.0094 185.955 54.3896C186.902 58.4106 188.355 63.205 190.365 66.8431C189.052 68.8763 187.695 70.8765 186.313 72.8587C185.576 71.2884 184.839 69.7187 184.085 68.1567C183.304 66.5353 182.64 64.7553 181.411 63.4196C181.275 63.2719 180.953 63.3768 180.982 63.5969C181.206 65.31 182.065 66.8831 182.768 68.4479C183.627 70.3597 184.502 72.2639 185.381 74.1668C183.938 76.2056 182.459 78.2181 180.954 80.2128C180.126 78.5976 179.168 77.0232 178.117 75.5598C177.998 75.3935 177.676 75.486 177.759 75.7109C178.442 77.5627 179.291 79.3952 180.269 81.1221C178.65 83.2465 176.999 85.348 175.311 87.424C175.643 88.4086 175.974 89.162 176.225 89.6946C177.944 87.6283 179.6 85.5081 181.228 83.3651C182.396 83.5776 183.659 83.174 184.833 82.9249C186.847 82.4972 188.818 81.8107 190.787 81.2132C191.099 81.118 190.968 80.6695 190.653 80.7288C188.539 81.1269 186.414 81.3015 184.283 81.5713C183.655 81.6506 183.028 81.6761 182.426 81.7582C185.547 77.5565 188.518 73.2402 191.306 68.8135C193.494 68.5824 195.668 68.076 197.811 67.5889C199.928 67.108 202.367 66.7886 204.2 65.5915C204.475 65.4121 204.346 65.0389 204.041 65.0064C202.025 64.7926 199.853 65.4963 197.872 65.8972C196.064 66.2628 194.223 66.5816 192.423 67.0135C193.713 64.9202 194.976 62.811 196.195 60.6819C197.302 58.7556 198.393 56.7892 199.47 54.8043C201.088 54.4689 202.653 53.6224 204.158 52.978C206.006 52.1873 208.225 51.5015 209.729 50.1471C209.869 50.0209 209.76 49.7649 209.574 49.7718C207.548 49.8505 205.466 50.9123 203.592 51.634C202.602 52.0148 201.547 52.3536 200.548 52.7834C202.679 48.7611 204.719 44.6455 206.541 40.441C207.781 39.6228 209.003 38.7693 210.228 37.9324C211.356 37.1617 212.682 36.5001 213.52 35.4072C213.622 35.2727 213.45 35.114 213.314 35.143Z" fill="white"/>
<path d="M191.152 124.561L83.4215 144.161L67.4576 56.4152L175.188 36.8153C178.736 36.1695 182.136 38.5229 182.781 42.0706L196.407 116.968C197.053 120.516 194.7 123.916 191.152 124.561Z" fill="#974D0E"/>
<path d="M180.682 54.5966C183.693 41.7143 175.691 28.8301 162.809 25.8189C149.927 22.8077 137.042 30.8098 134.031 43.6921C131.02 56.5744 139.022 69.4586 151.904 72.4699C164.787 75.4811 177.671 67.4789 180.682 54.5966Z" fill="#FFD524"/>
<path d="M176.328 53.5781C178.777 43.1008 172.269 32.6219 161.791 30.1728C151.314 27.7238 140.835 34.232 138.386 44.7093C135.937 55.1867 142.445 65.6655 152.922 68.1146C163.4 70.5636 173.879 64.0554 176.328 53.5781Z" fill="#FFB02D"/>
<path d="M175.294 56.7732C171.673 65.3381 162.303 70.2967 152.943 68.1082C142.464 65.6582 135.954 55.1759 138.404 44.6971C139.083 41.7904 140.376 39.1983 142.117 37.0222C141.677 38.0343 141.319 39.1079 141.057 40.2256C138.607 50.7044 145.118 61.1867 155.596 63.6367C163.178 65.4099 170.752 62.4962 175.294 56.7732Z" fill="#F89723"/>
<path d="M157.397 58.7464L156.466 62.7294L153.003 61.9201L153.94 57.9116C151.573 57.0008 149.441 55.4319 148.031 53.5918L150.75 50.3015C152.247 52.3541 154.816 54.1624 156.717 54.6067C158.122 54.9352 159.13 54.6212 159.355 53.6588C160.079 50.5609 150.035 50.189 151.544 43.7339C152.219 40.8445 154.77 39.3266 158.23 39.5591L159.125 35.732L162.588 36.5413L161.699 40.3415C163.778 41.0749 165.639 42.2789 166.943 43.627L164.264 46.9815C162.593 45.4381 160.347 44.0072 158.837 43.6539C157.693 43.3862 156.84 43.6263 156.645 44.4591C155.939 47.4783 165.947 48.0061 164.413 54.5667C163.666 57.7688 160.78 59.0707 157.397 58.7464Z" fill="#FFD524"/>
<path opacity="0.2" d="M157.061 37.6239C157.165 39.6012 158.023 41.4765 159.159 43.0986C161.136 45.9225 164.004 48.1124 167.249 49.2756C168.249 49.6344 169.302 49.9 170.364 49.8524C173.572 49.7096 174.562 46.4827 173.916 43.763C173.104 40.3443 170.82 37.1644 168.126 34.9593C165.904 33.1406 161.193 30.6506 158.571 33.0316C157.374 34.1196 156.98 36.0667 157.061 37.6239Z" fill="white"/>
<path d="M110.146 51.7043C121.319 49.6316 128.696 38.8942 126.623 27.7216C124.55 16.549 113.813 9.17204 102.64 11.2447C91.4676 13.3175 84.0907 24.0549 86.1634 35.2275C88.2361 46.4001 98.9735 53.777 110.146 51.7043Z" fill="#FFD524"/>
<path d="M109.446 47.9267C118.532 46.241 124.532 37.5083 122.846 28.4218C121.16 19.3352 112.428 13.3356 103.341 15.0213C94.2544 16.707 88.2548 25.4397 89.9406 34.5263C91.6263 43.6129 100.359 49.6125 109.446 47.9267Z" fill="#FFB02D"/>
<path d="M123.127 31.3171C123.231 39.3032 117.57 46.4344 109.452 47.9406C100.365 49.6261 91.6291 43.6243 89.9435 34.537C89.4758 32.016 89.5986 29.5315 90.2182 27.2195C90.2209 28.1675 90.3092 29.1355 90.4893 30.1049C92.1748 39.1921 100.91 45.1939 109.998 43.5084C116.573 42.2886 121.526 37.3858 123.127 31.3171Z" fill="#F89723"/>
<path d="M109.728 39.0404L110.369 42.4942L107.366 43.0517L106.721 39.5751C104.545 39.6751 102.327 39.1756 100.583 38.2145L101.587 34.6889C103.473 35.7873 106.117 36.3241 107.766 36.0184C108.985 35.7921 109.669 35.1981 109.514 34.3633C109.016 31.6766 100.987 34.8469 99.9484 29.2487C99.4833 26.7422 100.967 24.6696 103.769 23.6588L103.153 20.3402L106.156 19.7834L106.768 23.0793C108.657 22.9392 110.535 23.2448 112.025 23.8561L111.075 27.4183C109.229 26.7801 106.969 26.4289 105.658 26.6718C104.665 26.856 104.078 27.3383 104.212 28.0613C104.697 30.6804 112.752 27.6446 113.807 33.3339C114.323 36.1095 112.501 38.129 109.728 39.0404Z" fill="#FFD524"/>
<path opacity="0.2" d="M102.182 22.5398C102.945 24.0597 104.267 25.2388 105.719 26.1234C108.248 27.6633 111.259 28.3967 114.213 28.1932C115.124 28.1304 116.043 27.9765 116.862 27.5729C119.337 26.3545 119.003 23.4754 117.557 21.558C115.74 19.1487 112.846 17.4349 109.966 16.6284C107.592 15.964 103.027 15.6293 101.786 18.4063C101.219 19.6752 101.581 21.3427 102.182 22.5398Z" fill="white"/>
<path d="M66.2756 40.3025C74.6347 36.311 78.1753 26.2989 74.1838 17.9398C70.1923 9.58066 60.1802 6.04002 51.8211 10.0315C43.4619 14.023 39.9213 24.0352 43.9128 32.3943C47.9043 40.7534 57.9165 44.2941 66.2756 40.3025Z" fill="#FFD524"/>
<path d="M64.9265 37.4768C71.7252 34.2303 74.6049 26.0872 71.3585 19.2885C68.1121 12.4898 59.9689 9.61008 53.1702 12.8565C46.3715 16.1029 43.4918 24.2461 46.7382 31.0448C49.9847 37.8435 58.1278 40.7232 64.9265 37.4768Z" fill="#FFB02D"/>
<path d="M72.1837 21.5082C73.9527 27.7735 71.0011 34.584 64.9276 37.4845C58.1289 40.7307 49.9834 37.8501 46.7365 31.0514C45.8362 29.1651 45.4077 27.1829 45.4077 25.2318C45.6099 25.9776 45.8838 26.7214 46.2301 27.4465C49.4763 34.2459 57.6218 37.1264 64.4211 33.8795C69.3404 31.5303 72.2051 26.6241 72.1837 21.5082Z" fill="#F89723"/>
<path d="M63.2649 30.4188L64.4992 33.0033L62.252 34.0762L61.0101 31.4751C59.3177 32.0133 57.4659 32.0885 55.8901 31.7001L55.9363 28.7119C57.6529 29.1783 59.8489 29.0424 61.0819 28.4539C61.994 28.0185 62.4073 27.4059 62.1085 26.7815C61.1488 24.7717 55.4968 28.9637 53.4967 24.7744C52.6011 22.8992 53.3311 20.9535 55.3236 19.5667L54.1383 17.0836L56.3854 16.0108L57.5632 18.4766C59.021 17.9674 60.5644 17.8115 61.867 17.9778L61.8712 20.9832C60.2822 20.8707 58.4291 21.0715 57.4486 21.5393C56.7056 21.8939 56.3447 22.3982 56.6035 22.9385C57.539 24.8979 63.2393 20.8065 65.2719 25.0635C66.2633 27.1409 65.256 29.1155 63.2649 30.4188Z" fill="#FFD524"/>
<path opacity="0.2" d="M53.8381 19.021C54.7599 20.0566 56.0501 20.7058 57.3803 21.0949C59.6964 21.7732 62.2223 21.7152 64.5053 20.9307C65.2091 20.6893 65.9004 20.3733 66.4606 19.8827C68.1517 18.4007 67.281 16.2039 65.7376 15C63.7975 13.4869 61.1577 12.7487 58.7201 12.7218C56.7103 12.6997 53.0454 13.4007 52.6542 15.8493C52.4755 16.9684 53.1123 18.2055 53.8381 19.021Z" fill="white"/>
<path d="M193.222 135.941L85.4914 155.541L69.5275 67.7951L177.258 48.1952C180.806 47.5494 184.206 49.9028 184.851 53.4505L198.477 128.348C199.123 131.896 196.77 135.296 193.222 135.941Z" fill="url(#paint3_linear_430_811)"/>
<path opacity="0.3" d="M184.851 53.4505L186.291 61.3669C185.646 57.8185 182.247 55.4658 178.698 56.1116L70.9681 75.7115L69.5275 67.7951L177.258 48.1952C180.806 47.5494 184.206 49.9021 184.851 53.4505Z" fill="url(#paint4_linear_430_811)"/>
<path d="M195.181 101.108L157.748 107.919L153.927 86.9162L191.36 80.1057C193.339 79.7456 195.235 81.0579 195.595 83.0366L198.113 96.8734C198.472 98.8529 197.16 100.749 195.181 101.108Z" fill="#CB7319"/>
<path d="M167.321 100.335C170.005 99.8467 171.785 97.2753 171.297 94.5916C170.808 91.9079 168.237 90.1282 165.553 90.6165C162.869 91.1048 161.09 93.6762 161.578 96.3599C162.066 99.0436 164.638 100.823 167.321 100.335Z" fill="#532C00"/>
<path d="M164.716 93.7667C164.956 94.3104 165.422 94.7154 165.885 95.088C166.439 95.5337 167.037 95.9738 167.737 96.098C168.438 96.2222 169.262 95.9283 169.522 95.266C169.736 94.7216 169.519 94.0979 169.192 93.6122C168.538 92.6421 167.419 92.0101 166.26 91.9032C165.1 91.7969 164.146 92.4724 164.716 93.7667Z" fill="#774206"/>
<path d="M88.9424 140.462H42.9025H40.14V145.606C40.14 151.915 51.6828 157.028 65.9273 157.028C80.1622 157.028 91.7049 151.915 91.7049 145.606V140.462H88.9424Z" fill="#CB7319"/>
<path d="M91.703 140.256V143.561C91.703 149.87 80.1603 154.983 65.9254 154.983C51.6808 154.983 40.1381 149.87 40.1381 143.561V140.457C40.1381 139.764 40.2788 139.081 40.5596 138.418H91.2904C91.5422 139.01 91.683 139.633 91.703 140.256Z" fill="#F89723"/>
<path d="M91.7136 140.457C91.7136 140.527 91.7136 140.587 91.7039 140.658C91.4728 146.876 80.0108 151.879 65.9263 151.879C51.6818 151.879 40.139 146.766 40.139 140.457C40.139 139.764 40.2798 139.081 40.5606 138.418C42.7208 133.083 53.2583 129.035 65.9263 129.035C78.584 129.035 89.1319 133.084 91.2921 138.418C91.5432 139.01 91.6839 139.633 91.7039 140.256C91.7136 140.327 91.7136 140.387 91.7136 140.457Z" fill="#FFD524"/>
<path d="M65.9257 149.748C77.5072 149.748 86.8958 145.589 86.8958 140.458C86.8958 135.328 77.5072 131.168 65.9257 131.168C54.3442 131.168 44.9556 135.328 44.9556 140.458C44.9556 145.589 54.3442 149.748 65.9257 149.748Z" fill="#FFB02D"/>
<path d="M86.5739 142.06C84.8774 146.431 76.2724 149.75 65.926 149.75C54.344 149.75 44.9518 145.59 44.9518 140.458C44.9518 139.034 45.6707 137.69 46.963 136.491C46.7498 137.009 46.6373 137.546 46.6373 138.094C46.6373 143.225 56.0288 147.386 67.6116 147.386C75.9916 147.386 83.2146 145.211 86.5739 142.06Z" fill="#F89723"/>
<path d="M68.2994 143.915V145.865H64.4716V143.903C61.7677 143.737 59.1487 143.24 57.2203 142.539L59.2633 140.716C61.3358 141.506 64.4716 142.067 66.5725 142.067C68.1263 142.067 69.1046 141.812 69.1046 141.341C69.1046 139.824 58.4864 140.741 58.4864 137.58C58.4864 136.165 60.788 135.183 64.4709 134.915V133.041H68.2987V134.903C70.6583 135.017 72.9027 135.375 74.5993 135.859L72.6143 137.708C70.4852 137.172 67.7806 136.751 66.1109 136.751C64.8456 136.751 64.0107 136.956 64.0107 137.363C64.0107 138.842 74.629 138.001 74.629 141.213C74.6303 142.78 71.9244 143.698 68.2994 143.915Z" fill="#FFD524"/>
<path opacity="0.2" d="M62.7723 135.149C63.3657 136.055 64.7242 136.833 66.3124 137.463C69.0763 138.559 72.6192 139.265 76.3048 139.453C77.4412 139.51 78.6093 139.519 79.7111 139.382C83.0387 138.967 83.2857 137.362 81.9424 136.169C80.2541 134.67 77.0803 133.441 73.7162 132.71C70.9426 132.107 65.3941 131.462 63.2297 132.852C62.2411 133.488 62.3052 134.435 62.7723 135.149Z" fill="white"/>
<path d="M87.2679 132.301H41.228H38.4655V137.444C38.4655 143.753 50.0082 148.866 64.2528 148.866C78.4876 148.866 90.0304 143.753 90.0304 137.444V132.301H87.2679Z" fill="#CB7319"/>
<path d="M90.029 132.094V135.399C90.029 141.708 78.4863 146.821 64.2514 146.821C50.0061 146.821 38.4641 141.708 38.4641 135.399V132.295C38.4641 131.602 38.6049 130.918 38.8857 130.255H89.6164C89.8683 130.848 90.0083 131.471 90.029 132.094Z" fill="#F89723"/>
<path d="M90.0388 132.295C90.0388 132.365 90.0388 132.425 90.0284 132.496C89.7973 138.714 78.3353 143.717 64.2508 143.717C50.0056 143.717 38.4635 138.604 38.4635 132.295C38.4635 131.602 38.6042 130.919 38.8851 130.256C41.0446 124.921 51.5828 120.873 64.2508 120.873C76.9085 120.873 87.4563 124.922 89.6165 130.256C89.8677 130.848 90.0084 131.471 90.0284 132.094C90.0388 132.165 90.0388 132.225 90.0388 132.295Z" fill="#FFD524"/>
<path d="M64.2511 141.586C75.8326 141.586 85.2212 137.427 85.2212 132.296C85.2212 127.166 75.8326 123.006 64.2511 123.006C52.6696 123.006 43.281 127.166 43.281 132.296C43.281 137.427 52.6696 141.586 64.2511 141.586Z" fill="#FFB02D"/>
<path d="M84.8994 133.899C83.2028 138.268 74.5978 141.588 64.2515 141.588C52.6694 141.588 43.2772 137.428 43.2772 132.296C43.2772 130.873 43.9961 129.529 45.2877 128.33C45.0745 128.847 44.9621 129.385 44.9621 129.933C44.9621 135.064 54.3536 139.225 65.9363 139.225C74.3171 139.224 81.5407 137.049 84.8994 133.899Z" fill="#F89723"/>
<path d="M66.6256 135.753V137.703H62.7978V135.741C60.0939 135.574 57.4749 135.078 55.5465 134.377L57.5894 132.554C59.662 133.344 62.7978 133.905 64.8987 133.905C66.4524 133.905 67.4308 133.65 67.4308 133.179C67.4308 131.662 56.8132 132.579 56.8132 129.418C56.8132 128.003 59.1149 127.021 62.7978 126.753V124.88H66.6256V126.74C68.9852 126.855 71.2296 127.212 72.9261 127.697L70.9412 129.545C68.812 129.01 66.1075 128.589 64.4378 128.589C63.1724 128.589 62.3376 128.793 62.3376 129.201C62.3376 130.679 72.9551 129.838 72.9551 133.051C72.9558 134.618 70.2506 135.536 66.6256 135.753Z" fill="#FFD524"/>
<path opacity="0.2" d="M61.0978 126.987C61.6911 127.894 63.0496 128.671 64.6378 129.301C67.4017 130.397 70.9446 131.103 74.6303 131.29C75.7666 131.348 76.9354 131.357 78.0365 131.22C81.3641 130.805 81.6111 129.2 80.2678 128.007C78.5795 126.508 75.4058 125.279 72.0416 124.548C69.2674 123.945 63.7195 123.3 61.5552 124.69C60.5665 125.326 60.6307 126.272 61.0978 126.987Z" fill="white"/>
<path d="M96.2049 122.672H50.165H47.4025V127.815C47.4025 134.124 58.9452 139.237 73.1898 139.237C87.4247 139.237 98.9674 134.124 98.9674 127.815V122.672H96.2049Z" fill="#CB7319"/>
<path d="M98.9659 122.465V125.77C98.9659 132.079 87.4232 137.192 73.1883 137.192C58.943 137.192 47.401 132.079 47.401 125.77V122.666C47.401 121.973 47.5417 121.29 47.8226 120.627H98.5533C98.8052 121.219 98.9459 121.842 98.9659 122.465Z" fill="#F89723"/>
<path d="M98.9757 122.666C98.9757 122.737 98.9757 122.797 98.9653 122.867C98.7342 129.085 87.2722 134.088 73.1877 134.088C58.9424 134.088 47.4004 128.975 47.4004 122.666C47.4004 121.973 47.5411 121.29 47.8219 120.627C49.9815 115.292 60.5197 111.244 73.1877 111.244C85.8454 111.244 96.3932 115.293 98.5534 120.627C98.8046 121.219 98.9453 121.842 98.9653 122.465C98.9757 122.536 98.9757 122.596 98.9757 122.666Z" fill="#FFD524"/>
<path d="M73.188 131.958C84.7695 131.958 94.1581 127.798 94.1581 122.668C94.1581 117.537 84.7695 113.378 73.188 113.378C61.6065 113.378 52.2179 117.537 52.2179 122.668C52.2179 127.798 61.6065 131.958 73.188 131.958Z" fill="#FFB02D"/>
<path d="M93.8362 124.27C92.1397 128.639 83.5347 131.959 73.1876 131.959C61.6056 131.959 52.2134 127.799 52.2134 122.667C52.2134 121.244 52.9323 119.9 54.2239 118.7C54.0107 119.218 53.8982 119.755 53.8982 120.303C53.8982 125.434 63.2897 129.595 74.8725 129.595C83.2539 129.595 90.4776 127.421 93.8362 124.27Z" fill="#F89723"/>
<path d="M75.5624 126.124V128.074H71.7346V126.111C69.0307 125.946 66.4117 125.448 64.4833 124.747L66.5262 122.924C68.5988 123.715 71.7346 124.276 73.8355 124.276C75.3892 124.276 76.3682 124.021 76.3682 123.549C76.3682 122.032 65.75 122.95 65.75 119.788C65.75 118.373 68.0517 117.392 71.7346 117.124V115.25H75.5624V117.112C77.922 117.226 80.1664 117.583 81.8629 118.068L79.878 119.916C77.7488 119.381 75.0442 118.96 73.3746 118.96C72.1092 118.96 71.2751 119.164 71.2751 119.572C71.2751 121.05 81.8933 120.209 81.8933 123.422C81.8926 124.989 79.1873 125.908 75.5624 126.124Z" fill="#FFD524"/>
<path opacity="0.2" d="M70.0353 117.358C70.6286 118.264 71.9871 119.042 73.5753 119.672C76.3393 120.768 79.8821 121.474 83.5678 121.662C84.7041 121.72 85.8729 121.729 86.974 121.591C90.3016 121.177 90.5486 119.571 89.2053 118.378C87.517 116.879 84.3433 115.65 80.9791 114.919C78.2049 114.316 72.657 113.671 70.4927 115.061C69.504 115.696 69.5682 116.644 70.0353 117.358Z" fill="white"/>
<path d="M81.2448 116.744H35.2049H32.4424V121.887C32.4424 128.196 43.9851 133.309 58.2297 133.309C72.4646 133.309 84.0073 128.196 84.0073 121.887V116.744H81.2448Z" fill="#CB7319"/>
<path d="M84.0058 116.538V119.842C84.0058 126.151 72.4631 131.264 58.2282 131.264C43.983 131.264 32.4409 126.151 32.4409 119.842V116.738C32.4409 116.045 32.5817 115.362 32.8632 114.699H83.5939C83.8451 115.292 83.9858 115.915 84.0058 116.538Z" fill="#F89723"/>
<path d="M84.0156 116.739C84.0156 116.809 84.0156 116.869 84.0052 116.94C83.7741 123.158 72.3121 128.161 58.2276 128.161C43.9824 128.161 32.4403 123.048 32.4403 116.739C32.4403 116.046 32.5811 115.363 32.8626 114.699C35.0221 109.365 45.5603 105.317 58.2283 105.317C70.886 105.317 81.4338 109.366 83.594 114.699C83.8452 115.292 83.9859 115.915 84.0059 116.537C84.0156 116.608 84.0156 116.669 84.0156 116.739Z" fill="#FFD524"/>
<path d="M58.2281 126.03C69.8095 126.03 79.1982 121.87 79.1982 116.74C79.1982 111.609 69.8095 107.45 58.2281 107.45C46.6466 107.45 37.2579 111.609 37.2579 116.74C37.2579 121.87 46.6466 126.03 58.2281 126.03Z" fill="#FFB02D"/>
<path d="M78.8763 118.343C77.1797 122.713 68.5748 126.032 58.2284 126.032C46.6463 126.032 37.2542 121.871 37.2542 116.74C37.2542 115.316 37.9731 113.972 39.2646 112.773C39.0514 113.291 38.939 113.828 38.939 114.376C38.939 119.507 48.3305 123.668 59.9132 123.668C68.294 123.668 75.5177 121.493 78.8763 118.343Z" fill="#F89723"/>
<path d="M60.6023 120.196V122.147H56.7745V120.184C54.0699 120.018 51.4516 119.521 49.5232 118.82L51.5661 116.997C53.6387 117.788 56.7745 118.349 58.8754 118.349C60.4291 118.349 61.4081 118.093 61.4081 117.622C61.4081 116.105 50.7906 117.023 50.7906 113.861C50.7906 112.446 53.0916 111.464 56.7752 111.197V109.323H60.603V111.184C62.9626 111.298 65.207 111.656 66.9035 112.14L64.9186 113.988C62.7887 113.453 60.0848 113.032 58.4152 113.032C57.1498 113.032 56.3157 113.236 56.3157 113.644C56.3157 115.122 66.9332 114.281 66.9332 117.494C66.9325 119.062 64.2272 119.98 60.6023 120.196Z" fill="#FFD524"/>
<path opacity="0.2" d="M55.0746 111.431C55.6679 112.337 57.0264 113.115 58.6147 113.745C61.3786 114.841 64.9214 115.547 68.6071 115.734C69.7434 115.792 70.9122 115.801 72.0133 115.664C75.3409 115.249 75.5879 113.644 74.2446 112.451C72.5563 110.952 69.3826 109.723 66.0184 108.992C63.2442 108.389 57.6963 107.744 55.532 109.134C54.5433 109.769 54.6075 110.717 55.0746 111.431Z" fill="white"/>
<path d="M93.7555 104.88H47.7157H44.9531V110.024C44.9531 116.333 56.4958 121.446 70.7404 121.446C84.9753 121.446 96.518 116.333 96.518 110.024V104.88H93.7555Z" fill="#CB7319"/>
<path d="M96.516 104.674V107.979C96.516 114.288 84.9732 119.401 70.7383 119.401C56.4938 119.401 44.951 114.288 44.951 107.979V104.875C44.951 104.181 45.0918 103.498 45.3726 102.835H96.1034C96.3552 103.429 96.496 104.052 96.516 104.674Z" fill="#F89723"/>
<path d="M96.5263 104.875C96.5263 104.946 96.5263 105.006 96.516 105.076C96.2848 111.295 84.8228 116.297 70.7383 116.297C56.4938 116.297 44.951 111.184 44.951 104.875C44.951 104.182 45.0918 103.499 45.3726 102.836C47.5328 97.5012 58.0703 93.4533 70.7383 93.4533C83.396 93.4533 93.9439 97.5019 96.1041 102.836C96.3552 103.429 96.496 104.052 96.516 104.674C96.5263 104.744 96.5263 104.805 96.5263 104.875Z" fill="#FFD524"/>
<path d="M70.738 114.166C82.3195 114.166 91.7082 110.007 91.7082 104.876C91.7082 99.7452 82.3195 95.5859 70.738 95.5859C59.1566 95.5859 49.7679 99.7452 49.7679 104.876C49.7679 110.007 59.1566 114.166 70.738 114.166Z" fill="#FFB02D"/>
<path d="M91.387 106.479C89.6904 110.849 81.0855 114.168 70.7384 114.168C59.1563 114.168 49.7642 110.008 49.7642 104.876C49.7642 103.453 50.4831 102.109 51.7747 100.91C51.5615 101.427 51.449 101.964 51.449 102.512C51.449 107.643 60.8405 111.804 72.4233 111.804C80.8047 111.804 88.0284 109.629 91.387 106.479Z" fill="#F89723"/>
<path d="M73.1132 108.333V110.283H69.2854V108.32C66.5815 108.154 63.9624 107.657 62.0341 106.956L64.077 105.133C66.1496 105.924 69.2853 106.485 71.3862 106.485C72.94 106.485 73.9183 106.23 73.9183 105.758C73.9183 104.241 63.3008 105.159 63.3008 101.998C63.3008 100.582 65.6024 99.6007 69.2854 99.333V97.4591H73.1132V99.3206C75.4728 99.4351 77.7171 99.7925 79.4137 100.277L77.4287 102.125C75.2996 101.59 72.595 101.169 70.9253 101.169C69.66 101.169 68.8258 101.373 68.8258 101.781C68.8258 103.259 79.4434 102.418 79.4434 105.631C79.4434 107.198 76.7381 108.116 73.1132 108.333Z" fill="#FFD524"/>
<path opacity="0.2" d="M67.5853 99.5669C68.1786 100.474 69.5372 101.251 71.1254 101.881C73.8893 102.977 77.4322 103.683 81.1178 103.871C82.2542 103.929 83.4223 103.938 84.5241 103.8C87.8517 103.386 88.0987 101.78 86.7554 100.587C85.0671 99.0881 81.8933 97.8593 78.5292 97.128C75.7549 96.525 70.2071 95.8799 68.0427 97.2701C67.0541 97.9056 67.1182 98.8529 67.5853 99.5669Z" fill="white"/>
<path d="M208.464 141.148H162.424H159.662V146.292C159.662 152.601 171.204 157.714 185.449 157.714C199.684 157.714 211.227 152.601 211.227 146.292V141.148H208.464Z" fill="#CB7319"/>
<path d="M211.224 140.941V144.246C211.224 150.555 199.682 155.668 185.447 155.668C171.202 155.668 159.66 150.555 159.66 144.246V141.142C159.66 140.449 159.8 139.766 160.081 139.103H210.812C211.064 139.696 211.204 140.319 211.224 140.941Z" fill="#F89723"/>
<path d="M211.235 141.143C211.235 141.213 211.235 141.273 211.224 141.344C210.993 147.562 199.531 152.565 185.447 152.565C171.202 152.565 159.66 147.452 159.66 141.143C159.66 140.449 159.8 139.766 160.081 139.103C162.241 133.769 172.779 129.721 185.447 129.721C198.105 129.721 208.652 133.769 210.813 139.103C211.064 139.696 211.204 140.319 211.224 140.941C211.235 141.012 211.235 141.072 211.235 141.143Z" fill="#FFD524"/>
<path d="M185.447 150.434C197.029 150.434 206.417 146.274 206.417 141.143C206.417 136.013 197.029 131.853 185.447 131.853C173.866 131.853 164.477 136.013 164.477 141.143C164.477 146.274 173.866 150.434 185.447 150.434Z" fill="#FFB02D"/>
<path d="M206.095 142.746C204.399 147.116 195.794 150.436 185.447 150.436C173.865 150.436 164.473 146.275 164.473 141.144C164.473 139.72 165.192 138.376 166.484 137.177C166.27 137.695 166.158 138.232 166.158 138.78C166.158 143.911 175.55 148.072 187.132 148.072C195.513 148.072 202.736 145.897 206.095 142.746Z" fill="#F89723"/>
<path d="M187.821 144.6V146.551H183.993V144.588C181.289 144.422 178.67 143.925 176.742 143.224L178.785 141.401C180.857 142.191 183.993 142.752 186.094 142.752C187.648 142.752 188.627 142.497 188.627 142.026C188.627 140.509 178.009 141.426 178.009 138.265C178.009 136.85 180.31 135.868 183.993 135.6V133.727H187.821V135.587C190.181 135.702 192.425 136.059 194.121 136.544L192.137 138.392C190.007 137.857 187.303 137.436 185.633 137.436C184.368 137.436 183.534 137.64 183.534 138.048C183.534 139.526 194.151 138.685 194.151 141.898C194.152 143.466 191.447 144.383 187.821 144.6Z" fill="#FFD524"/>
<path opacity="0.2" d="M182.294 135.834C182.887 136.741 184.246 137.519 185.834 138.148C188.598 139.245 192.141 139.951 195.826 140.138C196.963 140.196 198.131 140.205 199.233 140.068C202.56 139.653 202.807 138.048 201.464 136.855C199.776 135.356 196.602 134.127 193.238 133.395C190.463 132.792 184.916 132.147 182.751 133.538C181.763 134.173 181.827 135.12 182.294 135.834Z" fill="white"/>
<path d="M217.168 131.519H171.128H168.366V136.662C168.366 142.971 179.909 148.084 194.153 148.084C208.388 148.084 219.931 142.971 219.931 136.662V131.519H217.168Z" fill="#CB7319"/>
<path d="M219.929 131.313V134.617C219.929 140.926 208.386 146.039 194.151 146.039C179.906 146.039 168.364 140.926 168.364 134.617V131.513C168.364 130.82 168.505 130.137 168.786 129.474H219.517C219.769 130.067 219.909 130.69 219.929 131.313Z" fill="#F89723"/>
<path d="M219.939 131.514C219.939 131.584 219.939 131.644 219.929 131.715C219.698 137.933 208.236 142.936 194.151 142.936C179.906 142.936 168.364 137.823 168.364 131.514C168.364 130.821 168.505 130.138 168.786 129.475C170.946 124.14 181.484 120.092 194.152 120.092C206.809 120.092 217.357 124.141 219.517 129.475C219.769 130.067 219.909 130.69 219.929 131.313C219.939 131.383 219.939 131.443 219.939 131.514Z" fill="#FFD524"/>
<path d="M194.151 140.805C205.732 140.805 215.121 136.646 215.121 131.515C215.121 126.384 205.732 122.225 194.151 122.225C182.569 122.225 173.181 126.384 173.181 131.515C173.181 136.646 182.569 140.805 194.151 140.805Z" fill="#FFB02D"/>
<path d="M214.8 133.118C213.103 137.488 204.498 140.807 194.151 140.807C182.569 140.807 173.177 136.647 173.177 131.515C173.177 130.092 173.896 128.748 175.188 127.548C174.975 128.066 174.863 128.603 174.863 129.151C174.863 134.282 184.254 138.443 195.837 138.443C204.217 138.443 211.441 136.268 214.8 133.118Z" fill="#F89723"/>
<path d="M196.526 134.971V136.922H192.698V134.959C189.994 134.793 187.375 134.296 185.447 133.595L187.49 131.772C189.562 132.563 192.698 133.124 194.799 133.124C196.353 133.124 197.331 132.868 197.331 132.397C197.331 130.88 186.713 131.798 186.713 128.636C186.713 127.221 189.014 126.239 192.697 125.972V124.098H196.525V125.959C198.885 126.074 201.129 126.431 202.826 126.916L200.841 128.764C198.712 128.229 196.007 127.808 194.337 127.808C193.072 127.808 192.237 128.012 192.237 128.42C192.237 129.898 202.855 129.057 202.855 132.27C202.856 133.837 200.151 134.755 196.526 134.971Z" fill="#FFD524"/>
<path opacity="0.2" d="M190.998 126.206C191.591 127.112 192.951 127.89 194.538 128.52C197.302 129.616 200.845 130.322 204.531 130.51C205.667 130.568 206.836 130.576 207.937 130.439C211.264 130.025 211.511 128.419 210.168 127.226C208.48 125.727 205.306 124.498 201.942 123.767C199.168 123.164 193.62 122.519 191.456 123.909C190.467 124.544 190.531 125.492 190.998 126.206Z" fill="white"/>
<path d="M183.49 13.6767L182.907 11.9511L182.324 13.6767C181.574 15.8983 180.016 17.7556 177.958 18.8809C180.016 20.0062 181.574 21.8635 182.324 24.0852L182.907 25.8107L183.49 24.0852C184.241 21.8635 185.799 20.0062 187.856 18.8809C185.799 17.7556 184.24 15.8976 183.49 13.6767Z" fill="white"/>
<path d="M33.0233 90.3817L32.4403 88.6562L31.8573 90.3817C31.1073 92.6033 29.5487 94.4607 27.4913 95.586C29.5487 96.7112 31.1073 98.5686 31.8573 100.79L32.4403 102.516L33.0233 100.79C33.774 98.5686 35.3325 96.7112 37.3893 95.586C35.3325 94.4607 33.774 92.6033 33.0233 90.3817Z" fill="white"/>
<path d="M170.277 1.29565L169.84 -6.10352e-05L169.402 1.29565C168.839 2.96393 167.668 4.359 166.124 5.20417C167.668 6.04935 168.839 7.44441 169.402 9.11269L169.84 10.4084L170.277 9.11269C170.841 7.44441 172.011 6.04935 173.556 5.20417C172.012 4.359 170.841 2.96324 170.277 1.29565Z" fill="white"/>
<path d="M180.499 102.579L180.062 101.284L179.624 102.579C179.061 104.248 177.891 105.643 176.346 106.488C177.891 107.333 179.061 108.728 179.624 110.396L180.062 111.692L180.499 110.396C181.063 108.728 182.233 107.333 183.778 106.488C182.233 105.643 181.062 104.248 180.499 102.579Z" fill="white"/>
<path d="M132.954 7.61967L132.517 6.32396L132.08 7.61967C131.516 9.28795 130.346 10.683 128.801 11.5282C130.346 12.3734 131.517 13.7684 132.08 15.4367L132.517 16.7324L132.954 15.4367C133.518 13.7684 134.688 12.3734 136.233 11.5282C134.688 10.683 133.517 9.28795 132.954 7.61967Z" fill="white"/>
<path d="M39.5398 1.47853L39.1024 0.182816L38.6649 1.47853C38.1013 3.14681 36.9311 4.54187 35.3864 5.38705C36.9311 6.23223 38.102 7.62729 38.6649 9.29557L39.1024 10.5913L39.5398 9.29557C40.1035 7.62729 41.2736 6.23223 42.8184 5.38705C41.2736 4.54187 40.1035 3.14681 39.5398 1.47853Z" fill="white"/>
<path d="M30.2725 14.4425L29.9752 13.5621L29.6778 14.4425C29.2949 15.5761 28.5001 16.5234 27.4507 17.0974C28.5001 17.6714 29.2949 18.6187 29.6778 19.7523L29.9752 20.6327L30.2725 19.7523C30.6555 18.6187 31.4503 17.6714 32.4997 17.0974C31.4503 16.5234 30.6555 15.5754 30.2725 14.4425Z" fill="white"/>
<path d="M24.021 103.833L23.7236 102.953L23.4262 103.833C23.0433 104.966 22.2485 105.914 21.1991 106.488C22.2485 107.062 23.0433 108.01 23.4262 109.143L23.7236 110.023L24.021 109.143C24.4039 108.01 25.1987 107.062 26.2481 106.488C25.1987 105.914 24.4039 104.966 24.021 103.833Z" fill="white"/>
<path d="M184.075 89.2371L183.778 88.3568L183.481 89.2371C183.098 90.3707 182.303 91.318 181.253 91.892C182.303 92.4661 183.098 93.4133 183.481 94.5469L183.778 95.4273L184.075 94.5469C184.458 93.414 185.253 92.4661 186.302 91.892C185.253 91.318 184.458 90.3707 184.075 89.2371Z" fill="white"/>
<path d="M225.018 91.0358C226.483 81.8894 220.257 73.2867 211.11 71.8213C201.964 70.3558 193.361 76.5825 191.895 85.729C190.43 94.8755 196.657 103.478 205.803 104.944C214.95 106.409 223.552 100.182 225.018 91.0358Z" fill="#FFD524"/>
<path d="M221.926 90.5403C223.118 83.1012 218.054 76.1044 210.614 74.9126C203.175 73.7207 196.179 78.7851 194.987 86.2241C193.795 93.6632 198.859 100.66 206.298 101.852C213.737 103.044 220.734 97.9794 221.926 90.5403Z" fill="#FFB02D"/>
<path d="M221.337 92.8207C219.233 98.9819 212.934 102.909 206.289 101.844C198.849 100.653 193.783 93.6542 194.975 86.2145C195.306 84.1509 196.08 82.2763 197.188 80.6702C196.93 81.3987 196.734 82.1666 196.606 82.9601C195.415 90.3997 200.48 97.3985 207.92 98.59C213.303 99.4525 218.448 97.0425 221.337 92.8207Z" fill="#F89723"/>
<path d="M208.935 95.0858L208.483 97.9138L206.024 97.5199L206.48 94.6739C204.781 94.155 203.215 93.165 202.139 91.95L203.875 89.5172C205.023 90.8764 206.906 92.0121 208.256 92.2287C209.253 92.3888 209.941 92.119 210.051 91.436C210.403 89.2364 203.37 89.4745 204.104 84.8912C204.433 82.8393 206.139 81.6533 208.567 81.6443L209.002 78.9273L211.46 79.3213L211.029 82.0196C212.517 82.4288 213.876 83.1774 214.854 84.0543L213.149 86.5298C211.906 85.5349 210.267 84.6462 209.194 84.4744C208.381 84.344 207.798 84.5538 207.703 85.1458C207.359 87.2894 214.375 87.1625 213.629 91.8196C213.265 94.0916 211.313 95.1444 208.935 95.0858Z" fill="#FFD524"/>
<path opacity="0.2" d="M207.654 80.3499C207.824 81.7257 208.516 82.9931 209.39 84.0694C210.911 85.9433 213.022 87.3308 215.346 87.9828C216.062 88.1835 216.811 88.3167 217.551 88.2311C219.785 87.9724 220.316 85.6701 219.73 83.8024C218.994 81.4545 217.24 79.3474 215.25 77.9406C213.608 76.7808 210.194 75.2754 208.481 77.0679C207.698 77.8868 207.52 79.2667 207.654 80.3499Z" fill="white"/>
<defs>
<linearGradient id="paint0_linear_430_811" x1="124.401" y1="179.403" x2="124.401" y2="91.1676" gradientUnits="userSpaceOnUse">
<stop stop-color="#3D2A39" stop-opacity="0"/>
<stop offset="0.3704" stop-color="#4C3049" stop-opacity="0.3704"/>
<stop offset="1" stop-color="#6E3E6D"/>
</linearGradient>
<linearGradient id="paint1_linear_430_811" x1="-1.94251" y1="103.972" x2="85.0742" y2="117.841" gradientUnits="userSpaceOnUse">
<stop stop-color="#3D2A39"/>
<stop offset="0.3081" stop-color="#482E49"/>
<stop offset="0.4189" stop-color="#4D3050"/>
<stop offset="0.7724" stop-color="#603860"/>
<stop offset="1" stop-color="#6E3E6D"/>
</linearGradient>
<linearGradient id="paint2_linear_430_811" x1="176.701" y1="85.9413" x2="238.126" y2="85.9413" gradientUnits="userSpaceOnUse">
<stop stop-color="#3D2A39"/>
<stop offset="0.3081" stop-color="#482E49"/>
<stop offset="0.4189" stop-color="#4D3050"/>
<stop offset="0.7724" stop-color="#603860"/>
<stop offset="1" stop-color="#6E3E6D"/>
</linearGradient>
<linearGradient id="paint3_linear_430_811" x1="125.316" y1="50.3267" x2="139.47" y2="128.123" gradientUnits="userSpaceOnUse">
<stop stop-color="#CB7319"/>
<stop offset="1" stop-color="#9A4F0F"/>
</linearGradient>
<linearGradient id="paint4_linear_430_811" x1="126.605" y1="57.4099" x2="129.214" y2="71.7523" gradientUnits="userSpaceOnUse">
<stop stop-color="#CB7319"/>
<stop offset="1" stop-color="#9A4F0F"/>
</linearGradient>
</defs>
</svg>
