<svg width="686" height="476" viewBox="0 0 686 476" fill="none" xmlns="http://www.w3.org/2000/svg">
<path d="M343 475.83C532.434 475.83 686 425.585 686 363.606C686 301.626 532.434 251.382 343 251.382C153.566 251.382 0 301.626 0 363.606C0 425.585 153.566 475.83 343 475.83Z" fill="#EAF2E4"/>
<path d="M343 452.631C511.281 452.631 647.699 412.773 647.699 363.606C647.699 314.439 511.281 274.582 343 274.582C174.72 274.582 38.3018 314.439 38.3018 363.606C38.3018 412.773 174.72 452.631 343 452.631Z" fill="#F9F8FF"/>
<path d="M343 452.631C511.281 452.631 647.699 412.773 647.699 363.606C647.699 314.439 511.281 274.582 343 274.582C174.72 274.582 38.3018 314.439 38.3018 363.606C38.3018 412.773 174.72 452.631 343 452.631Z" fill="#DFEAD6"/>
<path d="M343 429.451C490.138 429.451 609.417 399.98 609.417 363.626C609.417 327.272 490.138 297.801 343 297.801C195.863 297.801 76.584 327.272 76.584 363.626C76.584 399.98 195.863 429.451 343 429.451Z" fill="#ECFFDF"/>
<path fill-rule="evenodd" clip-rule="evenodd" d="M435.429 28.4302L432.174 26.4684V13.62C430.993 14.0621 429.575 14.0897 427.948 13.6753V10.5806C428.814 10.8017 429.733 10.8017 430.73 10.5806C431.728 10.3596 432.41 9.83459 432.778 8.97803L435.429 10.553V28.4302Z" fill="#E56A70"/>
<path fill-rule="evenodd" clip-rule="evenodd" d="M415.977 6.10213C418.299 2.22793 424.955 8.16648 424.955 13.3981C424.955 18.46 420.452 18.46 415.977 20.9485C411.475 13.3132 407 8.1382 407 3.07629C407 -2.15529 413.656 -0.430275 415.977 6.10213Z" fill="#E56A70"/>
<path fill-rule="evenodd" clip-rule="evenodd" d="M281.308 23.3923L277.388 25.4375V11.8225C275.966 13.8092 274.259 15.5914 272.33 17.1984V13.9261C273.342 13.0788 274.48 11.9101 275.65 10.4493C276.851 8.9592 277.673 7.52757 278.115 6.15438L281.308 4.48901V23.3923Z" fill="#70A09D"/>
<path fill-rule="evenodd" clip-rule="evenodd" d="M260.36 18.49C262.661 11.4828 269.338 9.66281 269.338 15.3049C269.338 20.7347 264.849 26.2555 260.36 34.4153C255.871 31.7459 251.382 31.6852 251.382 26.2555C251.382 20.6437 258.059 14.3039 260.36 18.49Z" fill="#70A09D"/>
<path fill-rule="evenodd" clip-rule="evenodd" d="M551.772 69.2327L474.842 24.7975C470.261 22.1599 461.273 24.2392 455.191 26.9731C458.79 25.7024 463.101 25.6639 467.124 27.9742L544.054 72.4094C556.045 79.3404 565.861 94.8388 565.861 106.833C565.861 162.242 565.861 311.451 565.861 366.86C565.861 376.236 559.837 380.857 551.483 379.066C562.031 381.665 573.579 373.868 573.579 363.683C573.579 308.274 573.579 159.066 573.579 103.657C573.579 91.6621 563.763 76.1637 551.772 69.2327Z" fill="#DF5C5F"/>
<path fill-rule="evenodd" clip-rule="evenodd" d="M544.054 72.4097L467.124 27.9745C460.792 24.3164 453.728 26.5305 449.898 30.1693C445.914 33.9813 445.317 39.4491 445.317 45.0516C445.317 103.118 445.317 249.496 445.317 302.402C445.317 309.911 451.245 321.597 459.194 326.256L544.035 376.063C555.987 383.071 565.842 378.874 565.842 366.879C565.842 311.47 565.842 162.262 565.842 106.853C565.861 94.839 556.064 79.3406 544.054 72.4097Z" fill="#39353B"/>
<path fill-rule="evenodd" clip-rule="evenodd" d="M542.745 76.9725C547.095 79.4946 550.983 83.1334 554.101 87.0802C558.682 92.856 563.032 101.212 563.032 108.759C563.032 183.902 563.032 291.698 563.032 366.841C563.032 377.969 553.909 377.719 546.171 373.175L460.484 322.868C454.248 319.21 448.166 308.967 448.166 301.748C448.166 227.509 448.166 120.618 448.166 46.38C448.166 42.0866 448.416 37.0039 451.746 33.8272C455.268 30.458 460.811 29.6494 465.065 32.0945C492.261 47.8432 520.881 64.3235 542.745 76.9725Z" fill="#F4D7E0"/>
<path fill-rule="evenodd" clip-rule="evenodd" d="M560.857 377.853C563.436 376.371 567.901 374.022 567.901 363.086C567.901 291.351 568.652 183.035 568.652 111.281C568.652 106.929 568.806 104.138 567.959 99.9792C566.284 93.1445 563.205 87.5035 558.932 81.978C555.236 77.4536 551.657 74.1229 546.652 71.081L509.717 49.6912C498.881 43.4148 468.895 26.5302 463.659 26.511C464.833 26.819 466.008 27.2811 467.162 27.9549L544.092 72.3901H544.112C545.228 73.0255 546.325 73.7571 547.384 74.5272L547.403 74.5464L547.422 74.5657C550.29 76.6642 552.985 79.2441 555.371 82.0742C559.875 87.4072 563.301 93.7221 564.898 99.7674C565.534 102.174 565.88 104.561 565.88 106.814V107.661C565.899 109.009 565.88 110.453 565.88 112.166C565.88 157.622 565.88 203.077 565.88 248.514C565.88 273.985 565.88 335.998 565.88 361.469V366.821C565.88 367.187 565.88 367.553 565.861 367.919V367.938C565.784 369.382 565.553 370.71 565.187 371.904C564.995 372.559 564.744 373.175 564.437 373.791C563.84 375.004 563.07 376.024 562.146 376.871C561.723 377.256 561.299 377.564 560.857 377.853Z" fill="#E56A70"/>
<path fill-rule="evenodd" clip-rule="evenodd" d="M544.054 72.4094L467.124 27.9742C464.93 26.7035 462.658 26.1452 460.464 26.1067C461.273 26.3955 462.081 26.7613 462.87 27.2233L541.763 72.7752C554.024 79.8602 564.051 95.7051 564.051 107.969C564.051 164.611 564.051 316.283 564.051 372.925C564.051 373.502 564.032 374.08 563.974 374.619C565.187 372.617 565.861 369.998 565.861 366.86C565.861 311.451 565.861 162.242 565.861 106.833C565.861 94.8388 556.064 79.3404 544.054 72.4094Z" fill="#4B474F"/>
<path fill-rule="evenodd" clip-rule="evenodd" d="M542.745 76.9723C547.095 79.4944 550.983 83.1332 554.101 87.08C558.682 92.8558 563.032 101.211 563.032 108.759C563.032 183.902 563.032 291.698 563.032 366.841C563.032 372.155 560.953 374.888 557.912 375.774C560.722 374.715 562.108 371.635 562.108 367.572C562.108 292.429 561.068 184.845 561.068 109.702C561.068 102.155 556.719 93.7992 552.138 88.0234C549.02 84.0958 545.132 80.4378 540.782 77.9157C514.991 62.9949 488.989 48.0163 463.082 33.0377C460.214 31.382 456.731 31.2087 453.69 32.3446C457.096 30.3038 461.523 30.0728 465.026 32.1136C490.933 47.0729 516.916 62.013 542.745 76.9723Z" fill="white"/>
<path fill-rule="evenodd" clip-rule="evenodd" d="M459.984 224.005L541.11 271.078V275.083L459.984 228.01V224.005Z" fill="#DF5C5F"/>
<path fill-rule="evenodd" clip-rule="evenodd" d="M459.984 230.59L541.11 277.663V281.668L459.984 234.595V230.59Z" fill="#DF5C5F"/>
<path fill-rule="evenodd" clip-rule="evenodd" d="M470.588 205.946L522.035 235.788V239.85L470.588 210.008V205.946ZM459.271 199.381L466.758 203.732V207.794L459.271 203.443V199.381ZM526.847 238.599L541.821 247.301V251.363L526.847 242.661V238.599ZM459.271 207.679V211.741L541.84 259.642V255.579L459.271 207.679Z" fill="#DF5C5F"/>
<path fill-rule="evenodd" clip-rule="evenodd" d="M521.843 281.744L506.041 272.541C504.867 271.867 503.905 272.445 503.905 273.85V293.661C503.905 295.066 504.867 296.78 506.041 297.454L521.843 306.657C523.017 307.33 523.979 306.753 523.979 305.347V285.536C523.96 284.131 522.998 282.417 521.843 281.744Z" fill="white"/>
<path fill-rule="evenodd" clip-rule="evenodd" d="M513.933 285.055C513.105 282.745 512.258 281.359 510.603 280.396C508.756 279.318 507.274 280.088 507.274 282.09C507.274 285.729 510.603 291.312 513.952 296.876C517.282 295.182 520.631 293.488 520.631 289.849C520.631 287.847 519.13 285.344 517.301 284.266C515.607 283.303 514.761 283.727 513.933 285.055Z" fill="#E56A70"/>
<path fill-rule="evenodd" clip-rule="evenodd" d="M488.199 262.164L472.398 252.961C471.224 252.287 470.261 252.865 470.261 254.27V274.081C470.261 275.487 471.224 277.2 472.398 277.874L488.199 287.077C489.373 287.751 490.336 287.173 490.336 285.768V265.957C490.336 264.551 489.373 262.838 488.199 262.164Z" fill="white"/>
<path fill-rule="evenodd" clip-rule="evenodd" d="M480.29 261.182L478.018 265.071L473.168 263.242L476.613 269.461L475.901 274.89L480.29 274.832L484.697 280.011L483.985 273.754L487.43 271.54L482.58 267.728L480.29 261.182Z" fill="#F1CC36"/>
<path fill-rule="evenodd" clip-rule="evenodd" d="M515.76 312.645L478.459 291.101C476.939 290.215 475.688 290.754 475.688 292.275V313.684C475.688 315.205 476.939 317.169 478.459 318.035L515.76 339.579C517.281 340.465 518.532 339.926 518.532 338.405V316.996C518.532 315.494 517.281 313.53 515.76 312.645Z" fill="white"/>
<path fill-rule="evenodd" clip-rule="evenodd" d="M515.715 312.003L478.414 290.46C477.49 289.92 476.644 289.824 476.047 290.074C475.431 290.325 475.065 290.96 475.065 291.884V292.982V313.293C475.065 313.582 475.104 313.89 475.181 314.198H475.162L475.316 314.66C475.373 314.833 475.431 315.026 475.508 315.199L475.527 315.238C475.546 315.276 475.566 315.334 475.585 315.373V315.392C475.623 315.469 475.662 315.565 475.7 315.642L475.739 315.719C475.835 315.892 475.931 316.085 476.047 316.258C476.586 317.086 477.279 317.856 478.068 318.395L478.087 318.414C478.145 318.453 478.183 318.491 478.241 318.511L478.318 318.549L478.357 318.568L478.453 318.626L515.753 340.17L515.811 340.208H515.83L515.85 340.228L515.888 340.247L515.907 340.266C515.946 340.285 515.984 340.305 516.023 340.324L516.081 340.343C516.87 340.728 517.582 340.767 518.121 340.555C518.506 340.401 518.794 340.093 518.968 339.65L519.083 339.4L519.064 339.361C519.102 339.169 519.122 338.957 519.122 338.745V317.818V317.336C519.122 316.412 518.737 315.353 518.14 314.391C517.486 313.409 516.658 312.542 515.715 312.003ZM476.259 294.541L489.501 311.714L476.259 314.006V313.986V294.541ZM504.359 320.34L517.89 317.991V337.86L504.359 320.34ZM490.501 311.541L476.259 293.059V292.577C476.259 291.98 476.509 291.576 476.894 291.422C477.279 291.249 477.818 291.326 478.414 291.672L515.715 313.216C516.311 313.563 516.85 314.121 517.235 314.737L517.255 314.776L517.293 314.833L517.332 314.891V314.91L517.37 314.968L517.389 315.007L517.409 315.045V315.064C517.428 315.103 517.447 315.141 517.466 315.18V315.199L517.505 315.276L517.524 315.334L517.582 315.45V315.469L517.601 315.507L517.62 315.546L517.64 315.604L517.659 315.681L517.678 315.758L517.697 315.796L517.717 315.873V315.892V315.912C517.736 315.95 517.736 315.989 517.755 316.046C517.794 316.2 517.813 316.335 517.832 316.489V316.508V316.585L503.301 319.108L501.183 319.473C500.067 319.666 498.547 319.223 497.007 318.337C495.467 317.452 493.927 316.143 492.753 314.602L490.501 311.541ZM503.358 320.513L517.582 338.957C517.486 339.053 517.37 339.13 517.255 339.188C516.908 339.323 516.465 339.304 515.965 339.073L515.946 339.053L515.869 339.015L515.792 338.976H515.773L515.715 338.957L478.414 317.413L478.376 317.394C478.357 317.375 478.318 317.356 478.299 317.336H478.28L478.26 317.317L478.164 317.259H478.145C477.721 316.97 477.356 316.585 477.048 316.162L477.028 316.143L477.009 316.123L476.99 316.085L476.952 316.027L476.932 315.989L476.913 315.969L476.894 315.95L476.875 315.912V315.892V315.873L476.817 315.796C476.74 315.681 476.682 315.565 476.624 315.45L490.501 313.043L492.08 315.084C493.465 316.893 495.255 318.414 497.045 319.454C498.816 320.474 500.587 320.994 501.934 320.763L503.358 320.513Z" fill="#DF5C5F"/>
<path fill-rule="evenodd" clip-rule="evenodd" d="M523.19 183.247C518.917 187.252 480.885 184.325 479.557 184.325C474.11 176.489 486.409 145.897 481.462 140.776C497.052 131.823 504.616 130.591 515.01 125.219C527.79 137.849 532.294 174.699 523.19 183.247Z" fill="#301E1E"/>
<path fill-rule="evenodd" clip-rule="evenodd" d="M479.846 178.184C471.108 199.458 498.554 211.375 518.571 214.494C523.998 215.341 527.771 211.125 529.426 204.656C531.101 198.11 533.083 191.16 529.83 188.33C515.934 176.162 487.68 159.104 479.846 178.184Z" fill="#DF5C5F"/>
<path fill-rule="evenodd" clip-rule="evenodd" d="M524.037 207.659C526.327 203.038 528.925 196.743 528.483 192.141C528.098 188.195 520.919 184.363 517.743 182.053C510.545 176.835 488.796 167.036 481.77 178.453C471.108 195.761 500.517 208.41 512.488 211.279C517.223 212.414 521.977 211.818 524.037 207.659Z" fill="#E56A70"/>
<path fill-rule="evenodd" clip-rule="evenodd" d="M481.462 140.775C465.68 124.449 503.596 114.341 515.01 125.219C516.453 126.644 518.763 179.358 481.462 140.775Z" fill="#301E1E"/>
<path fill-rule="evenodd" clip-rule="evenodd" d="M509.043 123.756C495.917 122.042 482.482 124.352 479.422 131.303C478.575 133.228 478.402 135.866 481.462 140.775C476.419 127.933 488.333 127.914 495.012 127.933C498.919 127.086 503.346 125.065 509.043 123.756Z" fill="#3F2626"/>
<path fill-rule="evenodd" clip-rule="evenodd" d="M494.492 183.151C496.705 179.801 497.071 175.546 495.416 169.789C493.953 170.328 490.181 170.983 489.026 170.867C484.387 170.405 479.037 154.772 479.653 149.959C479.884 148.207 480.326 146.513 480.942 145.3C482.386 142.45 481.115 140.198 480.904 137.656C480.307 130.206 487.794 129.898 492.837 129.859C506.752 133.979 496.936 141.045 509.197 148.746C510.101 149.304 511.275 148.496 511.853 147.918C512.931 146.84 514.162 145.82 515.413 145.858C516.664 145.897 517.935 146.994 517.608 148.996C517.511 149.632 516.953 150.594 516.434 151.48C514.855 154.156 515.471 158.392 512.334 156.601C512.103 160.548 512.43 167.46 512.854 170.887C513.7 177.721 517.28 178.742 511.756 181.995C505.232 185.807 495.936 186.712 494.492 183.151Z" fill="#EAAD89"/>
<path fill-rule="evenodd" clip-rule="evenodd" d="M490.047 170.848V170.828H490.258L490.047 170.848ZM495.667 170.694C498.823 170.694 501.729 171.136 503.539 173.697C505.329 176.219 506.349 180.339 506.734 184.209C501.229 185.98 495.609 185.845 494.512 183.15C496.59 179.993 497.033 176.007 495.667 170.694Z" fill="#EFC3A9"/>
<path fill-rule="evenodd" clip-rule="evenodd" d="M482.098 136.463C481.366 140.275 483.599 142.335 482.386 144.722C481.847 145.8 481.039 147.61 480.847 149.15C480.327 153.213 484.369 168.942 488.314 170.328C489.238 170.656 491.028 170.27 492.01 170.136C496.321 169.5 502.827 165.785 505.078 162.03C510.968 152.269 500.113 146.84 500.17 146.262C496.956 132.343 482.887 132.381 482.098 136.463Z" fill="#EFC3A9"/>
<path fill-rule="evenodd" clip-rule="evenodd" d="M502.826 166.035C505.502 164.552 510.198 160.374 512.354 156.793C512.142 160.779 512.469 167.498 512.893 170.867C513.739 177.702 517.319 178.722 511.796 181.976C510.314 182.842 508.697 183.555 507.061 184.113C510.14 166.805 503.096 168.018 502.826 166.035Z" fill="#EAAD89"/>
<path fill-rule="evenodd" clip-rule="evenodd" d="M492.125 129.609C496.571 124.391 509.178 122.735 513.951 124.353C519.148 125.373 540.531 151.884 530.504 186.096C529.888 188.156 519.591 196.454 517.705 193.605C520.669 191.583 518.532 176.142 514.105 163.609C511.276 155.542 503.058 151.903 499.227 144.626C496.302 139.062 495.936 132.015 492.125 129.609Z" fill="#3F2626"/>
<path fill-rule="evenodd" clip-rule="evenodd" d="M496.514 126.74C514.259 123.14 534.18 134.769 528.848 187.656C524.383 135.77 514.663 128.742 496.514 126.74ZM523.536 192.373C524.98 151.634 508.427 127.087 492.298 129.57C493.838 129.878 495.436 130.668 497.033 131.823C500.016 133.998 501.441 137.945 504.617 142.2C508.273 147.11 513.624 152.597 516.338 159.316C520.649 169.943 522.67 182.4 523.536 192.373Z" fill="#5B3636"/>
<path fill-rule="evenodd" clip-rule="evenodd" d="M523.093 114.592C522.708 116.691 522.15 118.173 521.958 120.175C521.881 120.965 522.882 122.332 523.44 122.178C525.827 121.465 525.769 121.003 527.174 120.714C528.059 121.908 529.002 123.025 530.022 124.045C537.837 131.997 546.402 131.727 549.135 123.487C551.868 115.227 547.749 102.097 539.935 94.1457C532.12 86.1944 523.555 86.4639 520.822 94.7041C519.071 99.9793 520.129 107.276 523.17 113.918C523.132 114.149 523.093 114.361 523.093 114.592Z" fill="white"/>
<path fill-rule="evenodd" clip-rule="evenodd" d="M534.969 104.234C532.948 98.3428 527.097 96.8796 527.097 101.654C527.097 106.236 531.024 110.857 534.969 117.711C538.896 115.381 542.841 115.304 542.841 110.722C542.822 105.928 536.99 100.672 534.969 104.234Z" fill="#E56A70"/>
<path fill-rule="evenodd" clip-rule="evenodd" d="M497.803 77.6649L460.502 56.1211C458.982 55.2355 457.731 55.7746 457.731 57.2955V78.7045C457.731 80.2255 458.982 82.1892 460.502 83.0556L497.803 104.599C499.323 105.485 500.574 104.946 500.574 103.425V82.016C500.555 80.495 499.323 78.5312 497.803 77.6649Z" fill="white"/>
<path fill-rule="evenodd" clip-rule="evenodd" d="M497.803 77.0489L460.503 55.5052C459.579 54.9661 458.732 54.8698 458.135 55.1201C457.519 55.3704 457.154 56.0057 457.154 56.9299V58.0273V78.3581C457.154 78.6469 457.192 78.955 457.269 79.263H457.25L457.404 79.7251C457.462 79.8983 457.519 80.0909 457.596 80.2641L457.616 80.3026C457.635 80.3411 457.654 80.3989 457.673 80.4374V80.4567C457.712 80.5337 457.75 80.6299 457.789 80.7069L457.827 80.784C457.923 80.9572 458.02 81.1498 458.135 81.323C458.674 82.1509 459.367 82.921 460.156 83.4601L460.175 83.4793C460.233 83.5178 460.272 83.5563 460.329 83.5756L460.406 83.6141L460.445 83.6334L460.541 83.6911L497.842 105.235L497.899 105.273H497.919L497.938 105.293L497.976 105.312L497.996 105.331C498.034 105.35 498.073 105.37 498.111 105.389L498.169 105.408C498.958 105.793 499.67 105.832 500.209 105.62C500.594 105.466 500.883 105.158 501.056 104.715L501.171 104.465L501.152 104.426C501.191 104.234 501.21 104.022 501.21 103.81V82.844V82.3627C501.21 81.4385 500.825 80.3796 500.228 79.417C499.574 78.4544 498.727 77.588 497.803 77.0489ZM458.328 59.5867L471.57 76.7601L458.328 79.0512V79.032V59.5867ZM486.447 85.4046L499.978 83.0558V102.925L486.447 85.4046ZM472.57 76.5869L458.328 58.1043V57.623C458.328 57.0261 458.578 56.6218 458.963 56.4678C459.348 56.2945 459.887 56.3715 460.483 56.7181L497.784 78.2619C498.381 78.6084 498.919 79.1667 499.304 79.7828L499.324 79.8213L499.362 79.8791L499.401 79.9368V79.9561L499.439 80.0138L499.458 80.0524L499.478 80.0909V80.1101C499.497 80.1486 499.516 80.1871 499.535 80.2256V80.2449L499.574 80.3219L499.593 80.3796L499.651 80.4952V80.5144L499.67 80.5529L499.689 80.5914L499.709 80.6492L499.728 80.7262L499.747 80.8032L499.766 80.8417L499.786 80.9187V80.938V80.9572C499.805 80.9957 499.805 81.0342 499.824 81.092C499.863 81.246 499.882 81.3808 499.901 81.5348V81.5541V81.6311L485.37 84.1532L483.252 84.519C482.136 84.7115 480.616 84.2687 479.076 83.3831C477.536 82.4974 475.996 81.1883 474.822 79.648L472.57 76.5869ZM485.427 85.5779L499.651 104.022C499.555 104.118 499.439 104.195 499.324 104.253C498.977 104.388 498.535 104.369 498.034 104.137L498.015 104.118L497.938 104.08L497.861 104.041H497.842L497.784 104.022L460.483 82.4782L460.445 82.4589C460.426 82.4397 460.387 82.4204 460.368 82.4012H460.349L460.329 82.3819L460.233 82.3242H460.214C459.79 82.0354 459.425 81.6503 459.117 81.2268L459.098 81.2075L459.078 81.1883L459.059 81.1498L459.021 81.092L459.001 81.0535L458.982 81.0342L458.963 81.015L458.944 80.9765V80.9572V80.938L458.886 80.861C458.809 80.7454 458.751 80.6299 458.693 80.5144L472.57 78.1078L474.149 80.1486C475.534 81.9584 477.324 83.4793 479.114 84.519C480.885 85.5394 482.656 86.0592 484.003 85.8282L485.427 85.5779Z" fill="#DF5C5F"/>
<path fill-rule="evenodd" clip-rule="evenodd" d="M466.431 53.9843C464.256 52.7329 462.485 53.9265 462.485 56.6604C462.485 59.3943 464.256 62.6287 466.431 63.8802C468.606 65.1316 470.376 63.9379 470.376 61.204C470.357 58.4702 468.606 55.2357 466.431 53.9843Z" fill="#DF5C5F"/>
<path fill-rule="evenodd" clip-rule="evenodd" d="M273.096 125.389C270.589 120.724 263.352 122.617 263.352 127.303C263.352 131.836 268.235 134.146 273.096 138.657C277.979 134.124 282.841 131.814 282.841 127.303C282.841 122.617 275.604 120.724 273.096 125.389Z" fill="#DF66A3"/>
<path fill-rule="evenodd" clip-rule="evenodd" d="M255.03 62.735C253.534 59.9626 249.244 61.0848 249.244 63.8792C249.244 66.5635 252.148 67.9497 255.03 70.6341C257.933 67.9497 260.815 66.5635 260.815 63.8792C260.815 61.0848 256.525 59.9626 255.03 62.735Z" fill="#E698C2"/>
<path fill-rule="evenodd" clip-rule="evenodd" d="M429.176 119.538C426.537 114.653 418.97 116.634 418.97 121.54C418.97 126.271 424.073 128.713 429.176 133.444C434.28 128.713 439.383 126.271 439.383 121.54C439.383 116.612 431.816 114.653 429.176 119.538Z" fill="#C52F79"/>
<path fill-rule="evenodd" clip-rule="evenodd" d="M433.733 77.912C432.237 75.1396 427.948 76.2618 427.948 79.0562C427.948 81.7405 430.851 83.1267 433.733 85.8111C436.636 83.1267 439.518 81.7405 439.518 79.0562C439.518 76.2618 435.229 75.1396 433.733 77.912Z" fill="#E698C2"/>
<path fill-rule="evenodd" clip-rule="evenodd" d="M134.209 69.2327L211.139 24.7782C215.72 22.1406 224.708 24.2199 230.79 26.9538C227.191 25.6831 222.88 25.6446 218.857 27.9549L141.927 72.4094C129.917 79.3403 120.12 94.8388 120.12 106.852C120.12 162.262 120.12 311.47 120.12 366.879C120.12 376.255 126.145 380.876 134.498 379.085C123.951 381.685 112.402 373.887 112.402 363.683C112.402 308.274 112.402 159.066 112.402 103.656C112.402 91.6621 122.218 76.1637 134.209 69.2327Z" fill="#5A8F8E"/>
<path fill-rule="evenodd" clip-rule="evenodd" d="M141.927 72.4092L218.857 27.974C225.19 24.316 232.253 26.53 236.083 30.1688C240.067 33.9808 240.664 39.4486 240.664 45.0511C240.664 103.117 240.664 249.495 240.664 302.402C240.664 309.91 234.736 321.597 226.787 326.256L141.946 376.063C129.994 383.071 120.14 378.873 120.14 366.879C120.14 311.47 120.14 162.261 120.14 106.852C120.12 94.8385 129.936 79.3401 141.927 72.4092Z" fill="#39353B"/>
<path fill-rule="evenodd" clip-rule="evenodd" d="M143.255 76.972C138.905 79.4941 135.017 83.1329 131.899 87.0797C127.319 92.8555 122.969 101.211 122.969 108.758C122.969 183.901 122.969 291.697 122.969 366.84C122.969 377.969 132.092 377.718 139.829 373.175L225.517 322.867C231.753 319.209 237.835 308.967 237.835 301.747C237.835 227.509 237.835 120.618 237.835 46.3795C237.835 42.0861 237.584 37.0034 234.255 33.8267C230.732 30.4575 225.189 29.6489 220.936 32.094C193.721 47.8427 165.1 64.323 143.255 76.972Z" fill="#70A09D"/>
<path fill-rule="evenodd" clip-rule="evenodd" d="M125.125 377.853C122.545 376.37 118.08 374.021 118.08 363.086C118.08 291.35 117.33 183.035 117.33 111.28C117.33 106.929 117.176 104.137 118.022 99.9787C119.697 93.144 122.776 87.503 127.049 81.9775C130.745 77.4531 134.325 74.1224 139.329 71.0805L176.264 49.6907C187.1 43.4144 217.087 26.5298 222.322 26.5105C221.148 26.8185 219.974 27.2806 218.819 27.9544L141.927 72.4089H141.908C140.792 73.0442 139.695 73.7758 138.636 74.5459L138.617 74.5652L138.597 74.5844C135.73 76.683 133.035 79.2629 130.648 82.093C126.145 87.426 122.719 93.7409 121.121 99.7862C120.486 102.193 120.14 104.58 120.14 106.833V107.68C120.12 109.027 120.14 110.471 120.14 112.185C120.14 157.641 120.14 203.096 120.14 248.532C120.14 274.004 120.14 336.017 120.14 361.488V366.84C120.14 367.206 120.14 367.572 120.159 367.938V367.957C120.236 369.401 120.467 370.729 120.833 371.923C121.025 372.578 121.275 373.194 121.583 373.81C122.18 375.023 122.95 376.043 123.874 376.89C124.258 377.256 124.682 377.564 125.125 377.853Z" fill="#4B474F"/>
<path fill-rule="evenodd" clip-rule="evenodd" d="M141.927 72.4089L218.857 27.9737C221.052 26.703 223.323 26.1447 225.517 26.1062C224.709 26.395 223.9 26.7608 223.111 27.2229L144.218 72.7747C131.957 79.8597 121.93 95.7047 121.93 107.969C121.93 164.61 121.93 316.283 121.93 372.924C121.93 373.502 121.949 374.079 122.007 374.618C120.794 372.616 120.121 369.998 120.121 366.86C120.121 311.45 120.121 162.242 120.121 106.833C120.121 94.8383 129.917 79.3399 141.927 72.4089Z" fill="#4B474F"/>
<path fill-rule="evenodd" clip-rule="evenodd" d="M143.255 76.9723C138.905 79.4944 135.017 83.1332 131.899 87.08C127.319 92.8558 122.969 101.211 122.969 108.759C122.969 183.902 122.969 291.698 122.969 366.841C122.969 372.155 125.047 374.888 128.088 375.774C125.278 374.715 123.893 371.635 123.893 367.572C123.893 292.429 124.932 184.845 124.932 109.702C124.932 102.155 129.282 93.7992 133.863 88.0234C136.981 84.0958 140.868 80.4378 145.218 77.9157C171.009 62.9949 197.012 48.0163 222.918 33.0377C225.786 31.382 229.27 31.2087 232.311 32.3446C228.904 30.3038 224.477 30.0728 220.974 32.1136C195.068 47.0729 169.065 62.013 143.255 76.9723Z" fill="#C7C2ED"/>
<path fill-rule="evenodd" clip-rule="evenodd" d="M210.235 178.184C218.973 199.458 191.527 211.375 171.51 214.494C166.082 215.341 162.31 211.125 160.655 204.656C158.98 198.11 156.998 191.16 160.25 188.33C174.147 176.162 202.382 159.104 210.235 178.184Z" fill="#39353B"/>
<path fill-rule="evenodd" clip-rule="evenodd" d="M166.025 207.659C163.734 203.039 161.136 196.743 161.579 192.142C161.964 188.195 169.143 184.364 172.319 182.053C179.517 176.836 201.266 167.036 208.291 178.453C218.954 195.761 189.545 208.41 177.573 211.279C172.857 212.415 168.084 211.818 166.025 207.659Z" fill="#423E45"/>
<path fill-rule="evenodd" clip-rule="evenodd" d="M169.508 132.593C167.988 134.21 167.083 136.386 167.083 139.293C167.083 143.201 167.949 148.996 169.624 154.252C171.144 159.046 172.049 162.088 174.724 165.207C175.802 166.458 177.938 166.593 179.266 166.593C195.876 166.593 202.728 146.57 208.348 142.181C211.005 140.102 211.928 135.096 210.427 130.013C208.002 121.831 199.784 113.437 186.061 116.594C176.476 118.77 169.104 124.411 169.508 132.593Z" fill="#301E1E"/>
<path fill-rule="evenodd" clip-rule="evenodd" d="M186.176 188.676C190.353 189.331 200.361 190.024 202.382 185.057C202.979 183.574 201.651 182.111 200.419 181.553C196.627 179.859 179.151 176.759 173.685 178.896C171.76 179.647 172.088 181.707 173.223 183.17C175.494 186.058 182.75 188.157 186.176 188.676Z" fill="#39353B"/>
<path fill-rule="evenodd" clip-rule="evenodd" d="M199.937 184.075C197.724 180.725 197.512 177.606 199.187 171.85C199.553 171.869 200.842 172.158 201.169 172.119C205.808 171.657 210.754 156.159 210.138 151.345C209.907 149.593 209.465 147.899 208.849 146.686C207.405 143.837 208.676 141.604 208.887 139.043C209.08 136.559 208.618 134.076 207.617 131.939C207.425 132.228 207.213 132.536 206.982 132.844C204.614 135.886 192.624 137.561 187.677 135.789C185.849 135.135 185.368 136.944 185.233 138.658C185.002 141.43 184.309 144.164 182.057 145.127C182.096 145.878 182.153 146.648 182.25 147.456C182.5 149.382 182.885 151.23 183.443 153.001C183.443 153.001 181.557 154.195 181.326 154.368C179.131 142.258 173.088 146.821 172.607 151.846C172.28 155.234 173.819 162.82 177.168 161.164C177.399 165.111 177.361 168.808 176.937 172.235C176.09 179.069 172.511 180.09 178.034 183.343C184.578 187.194 198.494 187.617 199.937 184.075Z" fill="#EAAD89"/>
<path fill-rule="evenodd" clip-rule="evenodd" d="M199.938 184.075C197.975 181.11 197.59 178.338 198.668 173.755C194.606 173.813 190.103 172.812 187.793 176.066C186.157 178.376 185.31 182.361 185.118 185.808C191.604 187.098 198.918 186.597 199.938 184.075Z" fill="#EFC3A9"/>
<path fill-rule="evenodd" clip-rule="evenodd" d="M207.598 131.92L207.636 132.016L207.675 132.112L207.713 132.209L207.752 132.305L207.79 132.401L207.829 132.497L207.867 132.594L207.906 132.69L207.944 132.786L207.983 132.882L208.021 132.979L208.06 133.075L208.098 133.171L208.137 133.267L208.175 133.364L208.214 133.46L208.252 133.575L208.291 133.691L208.329 133.807L208.368 133.922L208.406 134.038L208.445 134.153L208.464 134.269L208.483 134.384L208.503 134.5L208.522 134.615L208.541 134.731L208.56 134.846L208.58 134.962L208.599 135.077L208.618 135.193L208.637 135.308L208.657 135.424L208.676 135.539L208.695 135.655L208.714 135.77L208.734 135.886L208.753 136.001L208.772 136.117L208.791 136.232L208.811 136.348L208.83 136.463L208.849 136.579L208.868 136.694V136.81V136.925V137.041V137.156V137.272V137.388V137.503V137.619V137.734V137.85V137.965V138.196V138.427V138.543V138.658V138.774V138.889V139.005L208.849 139.12C208.618 141.623 207.425 143.837 208.83 146.648C209.446 147.88 209.888 149.555 210.119 151.307C210.716 155.909 206.193 170.367 201.728 171.946C200.669 172.312 198.667 171.888 197.532 171.715C192.643 171.003 187.35 169.905 184.79 165.65C183.289 163.167 183.828 153.155 185.522 150.672C186.292 149.555 188.64 149.921 189.198 148.997C189.756 148.111 188.524 145.916 188.428 145.127C188.024 141.719 187.793 138.581 187.966 135.847C189.005 136.175 190.314 136.367 191.758 136.425L192.085 136.444C192.316 136.444 192.528 136.463 192.759 136.463H193.105H193.124H193.451H193.471H193.798H193.836H194.164H194.202L194.529 136.444H194.568L194.876 136.425H194.933L195.241 136.406H195.299L195.607 136.386H195.684L195.973 136.367H196.05L196.338 136.348H196.415L196.704 136.329H196.8L197.07 136.29L197.166 136.271L197.436 136.232L197.532 136.213L197.782 136.175L197.897 136.155L198.263 136.098L198.494 136.059L198.629 136.04L198.86 136.001L198.995 135.982L199.226 135.944L199.36 135.924L199.572 135.886L199.726 135.867L199.938 135.828L200.092 135.79L200.284 135.751L200.438 135.713L200.631 135.674H200.669C200.862 135.636 201.054 135.578 201.246 135.539L201.343 135.52L201.574 135.462L201.612 135.443L201.785 135.404L201.939 135.366L202.113 135.308L202.151 135.289L202.363 135.231L202.459 135.212L202.671 135.154L202.767 135.116L202.94 135.058L203.017 135.039L203.133 135L203.325 134.942H203.344L203.556 134.865L203.614 134.846L203.71 134.808L203.903 134.731L203.98 134.692L204.172 134.615L204.211 134.596L204.384 134.519L204.441 134.5L204.518 134.461L204.711 134.384H204.73L204.903 134.307L204.961 134.288L205.019 134.269L205.211 134.172L205.25 134.153L205.327 134.115L205.442 134.057H205.462L205.635 133.961L205.673 133.941L205.847 133.826L205.962 133.749L206.077 133.672L206.231 133.556L206.251 133.537L206.405 133.421L206.424 133.402L206.559 133.287C206.597 133.248 206.655 133.21 206.693 133.152L206.828 133.017L206.944 132.882L206.963 132.863L206.982 132.844L207.001 132.825L207.021 132.805L207.04 132.786L207.059 132.767L207.078 132.748L207.098 132.728L207.117 132.709L207.136 132.69L207.155 132.671L207.175 132.651L207.194 132.632L207.213 132.613L207.232 132.594L207.252 132.574L207.271 132.555L207.29 132.536L207.309 132.517L207.329 132.497L207.348 132.478L207.367 132.459L207.386 132.44L207.406 132.42L207.425 132.401L207.444 132.382L207.463 132.363L207.482 132.343L207.502 132.324L207.521 132.305L207.54 132.286L207.559 132.266L207.579 132.247L207.598 132.228V132.209L207.617 132.189L207.636 132.17V132.151L207.656 132.132L207.675 132.112V132.093V132.074L207.694 132.055V132.035V132.016L207.713 131.997V131.978V131.958V131.939V131.92V131.9V131.881V131.862V131.843V131.823V131.804V131.785V131.766V131.746V131.727V131.708V131.689L207.598 131.92Z" fill="#EFC3A9"/>
<path fill-rule="evenodd" clip-rule="evenodd" d="M186.907 135.635C187.138 135.635 187.389 135.673 187.658 135.77C195.376 138.542 206.943 136.79 209.965 128.646C211.312 125.027 211.178 119.848 206.501 116.594C197.782 124.064 190.891 110.183 177.881 117.557C172.28 120.714 169.316 126.24 169.508 132.477C175.937 131.053 182.384 132.285 186.907 135.635Z" fill="#3F2626"/>
<path fill-rule="evenodd" clip-rule="evenodd" d="M198.648 132.94C208.214 131.188 209.349 123.583 206.481 116.594C206.828 121.985 203.286 122.659 198.244 122.254C188.755 121.484 175.571 113.899 169.489 132.477C178.092 122.659 187.542 134.98 198.648 132.94Z" fill="#5B3636"/>
<path fill-rule="evenodd" clip-rule="evenodd" d="M198.706 173.582C198.84 173.004 198.956 172.581 199.129 172.023C198.244 171.792 194.471 171.849 190.603 170.482C188.081 169.597 183.655 168.576 182.23 165.765C180.729 162.762 180.787 159.258 181.249 153.983C178.997 142.373 173.088 146.879 172.607 151.865C172.28 155.253 173.819 162.839 177.168 161.183C177.399 165.13 177.361 168.827 176.937 172.254C176.09 179.088 172.511 180.109 178.034 183.362C178.785 183.805 179.651 184.209 180.575 184.556C180.729 180.821 181.268 176.797 183.982 174.891C187.542 172.388 193.586 173.178 198.706 173.582Z" fill="#EAAD89"/>
<path fill-rule="evenodd" clip-rule="evenodd" d="M226.132 224.005L144.987 271.078V275.083L226.132 228.01V224.005Z" fill="#5A8F8E"/>
<path fill-rule="evenodd" clip-rule="evenodd" d="M226.132 230.59L144.987 277.663V281.667L226.132 234.595V230.59Z" fill="#5A8F8E"/>
<path fill-rule="evenodd" clip-rule="evenodd" d="M215.527 205.946L164.08 235.788V239.85L215.527 210.008V205.946ZM226.844 199.381L219.357 203.732V207.794L226.844 203.443V199.381ZM159.268 238.599L144.294 247.301V251.363L159.268 242.661V238.599ZM226.844 207.679V211.741L144.275 259.642V255.579L226.844 207.679Z" fill="#5A8F8E"/>
<path fill-rule="evenodd" clip-rule="evenodd" d="M211.678 253.346L195.876 262.414C194.702 263.088 193.74 264.782 193.74 266.188V285.999C193.74 287.404 194.702 288.001 195.876 287.327L211.678 278.259C212.852 277.585 213.814 275.891 213.814 274.486V254.675C213.814 253.269 212.852 252.672 211.678 253.346Z" fill="white"/>
<path fill-rule="evenodd" clip-rule="evenodd" d="M203.786 265.803C202.959 264.455 202.112 264.031 200.457 264.994C198.609 266.053 197.127 268.536 197.127 270.539C197.127 274.177 200.457 275.891 203.806 277.624C207.135 272.079 210.484 266.515 210.484 262.876C210.484 260.874 208.983 260.104 207.155 261.163C205.442 262.125 204.614 263.511 203.786 265.803Z" fill="#E56A70"/>
<path fill-rule="evenodd" clip-rule="evenodd" d="M178.034 272.676L162.233 281.744C161.059 282.417 160.096 284.112 160.096 285.517V305.328C160.096 306.733 161.059 307.33 162.233 306.656L178.034 297.588C179.208 296.915 180.171 295.22 180.171 293.815V274.004C180.171 272.598 179.208 272.002 178.034 272.676Z" fill="white"/>
<path fill-rule="evenodd" clip-rule="evenodd" d="M170.143 280.82L167.852 287.366L163.021 291.12L166.447 293.373L165.735 299.63L170.143 294.47L174.55 294.567L173.838 289.137L177.264 282.938L172.414 284.728L170.143 280.82Z" fill="#F1CC36"/>
<path fill-rule="evenodd" clip-rule="evenodd" d="M205.615 291.12L168.315 312.644C166.794 313.53 165.543 315.474 165.543 316.995V338.404C165.543 339.925 166.794 340.445 168.315 339.579L205.615 318.054C207.136 317.169 208.387 315.224 208.387 313.703V292.294C208.368 290.773 207.136 290.253 205.615 291.12Z" fill="white"/>
<path fill-rule="evenodd" clip-rule="evenodd" d="M205.615 290.523L168.315 312.047C167.391 312.586 166.544 313.453 165.947 314.396C165.332 315.359 164.966 316.418 164.966 317.342V318.439V338.751C164.966 339.039 165.004 339.29 165.081 339.521L165.062 339.559L165.216 339.848C165.274 339.964 165.332 340.06 165.409 340.156L165.428 340.175C165.447 340.195 165.466 340.214 165.485 340.233C165.524 340.272 165.562 340.31 165.601 340.349L165.639 340.368C165.736 340.445 165.832 340.503 165.947 340.541C166.486 340.772 167.179 340.714 167.968 340.349H167.988C168.045 340.329 168.084 340.291 168.142 340.272L168.219 340.233L168.257 340.214L168.353 340.156L205.654 318.632L205.712 318.593H205.731L205.75 318.574L205.789 318.555L205.808 318.535C205.846 318.516 205.885 318.478 205.923 318.458L205.981 318.42C206.77 317.881 207.482 317.111 208.021 316.264C208.406 315.667 208.695 315.012 208.868 314.396L208.984 314.03H208.964C209.003 313.799 209.022 313.549 209.022 313.337V292.409V291.928C209.022 291.004 208.637 290.388 208.041 290.118C207.386 289.887 206.539 289.984 205.615 290.523ZM166.14 318.632L179.382 320.518L166.14 338.096V338.077V318.632ZM194.26 311.97L207.79 294.027V313.895L194.26 311.97ZM180.383 319.171L166.14 317.149V316.668C166.14 316.071 166.39 315.397 166.775 314.781C167.16 314.165 167.699 313.607 168.296 313.26L205.596 291.736C206.193 291.389 206.732 291.331 207.117 291.485H207.136L207.174 291.505L207.213 291.524L207.251 291.543L207.271 291.562L207.29 291.582C207.309 291.601 207.328 291.601 207.348 291.62L207.386 291.659L207.405 291.678L207.463 291.736L207.482 291.755L207.502 291.774L207.521 291.793L207.54 291.832L207.559 291.89L207.579 291.909L207.598 291.967V291.986C207.617 292.024 207.617 292.044 207.636 292.082C207.675 292.198 207.694 292.313 207.713 292.429V292.448V292.506L193.182 311.797L191.065 314.608C189.948 316.09 188.428 317.38 186.888 318.266C185.348 319.151 183.809 319.614 182.635 319.459L180.383 319.171ZM193.24 313.318L207.463 315.339C207.367 315.551 207.251 315.763 207.136 315.955C206.789 316.495 206.347 316.976 205.846 317.322L205.827 317.342L205.75 317.399L205.673 317.438L205.654 317.457L205.596 317.496L168.296 339.02L168.257 339.039C168.238 339.059 168.199 339.078 168.18 339.078H168.161L168.142 339.097L168.045 339.136H168.026C167.603 339.328 167.237 339.386 166.929 339.309H166.91H166.891H166.871L166.833 339.29H166.814H166.794H166.775L166.756 339.27L166.698 339.251C166.621 339.213 166.563 339.174 166.506 339.116L180.383 320.692L181.961 320.923C183.347 321.115 185.137 320.576 186.927 319.556C188.697 318.535 190.468 317.014 191.815 315.224L193.24 313.318Z" fill="#5A8F8E"/>
<path fill-rule="evenodd" clip-rule="evenodd" d="M160.847 114.765C161.232 116.863 161.79 118.346 161.982 120.348C162.059 121.138 161.059 122.505 160.5 122.351C158.114 121.638 158.172 121.176 156.767 120.887C155.881 122.081 154.938 123.198 153.918 124.218C146.104 132.169 137.539 131.9 134.806 123.66C132.073 115.4 136.192 102.27 144.006 94.3186C151.82 86.3672 160.385 86.6368 163.118 94.8769C164.869 100.152 163.811 107.449 160.77 114.091C160.808 114.303 160.828 114.515 160.847 114.765Z" fill="white"/>
<path fill-rule="evenodd" clip-rule="evenodd" d="M148.972 104.388C150.993 98.4965 156.844 97.0333 156.844 101.789C156.844 106.371 152.917 110.991 148.972 117.845C145.045 115.516 141.1 115.439 141.1 110.857C141.1 106.101 146.951 100.826 148.972 104.388Z" fill="#E56A70"/>
<path fill-rule="evenodd" clip-rule="evenodd" d="M184.655 78.3582L225.151 54.7929C226.248 54.1576 227.153 54.7159 227.153 56.0251V74.6232C227.153 75.9516 226.248 77.5496 225.151 78.1849L184.655 101.769C183.558 102.405 182.654 101.846 182.654 100.537V81.9392C182.654 80.6108 183.558 79.0128 184.655 78.3582Z" fill="white"/>
<path fill-rule="evenodd" clip-rule="evenodd" d="M193.393 82.8827C193.778 81.8239 194.163 81.1885 194.933 80.7264C195.78 80.2259 196.473 80.5917 196.473 81.5158C196.473 83.1908 194.933 85.7514 193.393 88.3313C191.854 87.5419 190.314 86.7718 190.314 85.0968C190.314 84.1727 191.007 83.0175 191.854 82.5362C192.624 82.0741 193.009 82.2859 193.393 82.8827Z" fill="#E56A70"/>
<path fill-rule="evenodd" clip-rule="evenodd" d="M216.413 69.4831C216.798 68.4242 217.183 67.7889 217.953 67.3268C218.8 66.8262 219.493 67.192 219.493 68.1161C219.493 69.7911 217.953 72.3517 216.413 74.9316C214.873 74.1422 213.334 73.3721 213.334 71.6971C213.334 70.773 214.027 69.6179 214.873 69.1365C215.643 68.6745 216.028 68.867 216.413 69.4831Z" fill="#E56A70"/>
<path fill-rule="evenodd" clip-rule="evenodd" d="M204.903 76.1828C205.287 75.1239 205.672 74.4886 206.442 74.0265C207.289 73.5259 207.982 73.8917 207.982 74.8159C207.982 76.4908 206.442 79.0514 204.903 81.6313C203.363 80.8419 201.823 80.0718 201.823 78.3969C201.823 77.4727 202.516 76.3176 203.363 75.8362C204.133 75.3742 204.518 75.5667 204.903 76.1828Z" fill="#E56A70"/>
<path fill-rule="evenodd" clip-rule="evenodd" d="M409.75 220.767C407.344 223.019 385.941 221.383 385.191 221.383C382.13 216.974 389.04 199.743 386.269 196.874C395.045 191.83 399.299 191.137 405.15 188.114C412.329 195.199 414.869 215.953 409.75 220.767Z" fill="#301E1E"/>
<path fill-rule="evenodd" clip-rule="evenodd" d="M343.983 254.959C344.676 254.555 345.619 253.9 345.523 253.246C345.523 253.246 344.907 252.591 344.599 252.553C343.559 252.399 343.078 252.572 342.193 251.917C341.635 251.513 341.539 251.224 341.616 250.955C341.731 250.57 342.251 250.223 343.155 250.454C343.175 250.454 347.216 250.993 347.563 251.032C348.39 251.147 348.891 251.244 349.584 251.494C350.277 251.744 350.084 252.245 351.451 252.071C352.817 251.898 362.345 247.258 362.345 247.258C363.403 247.586 365.578 252.476 364.596 252.803C362.287 253.727 357.109 255.479 353.144 257.019C349.43 259.811 351.22 258.714 347.139 260.774C346.273 261.217 344.464 262.044 343.81 262.352C342.79 262.814 341.866 262.853 341.981 262.121C341.481 262.295 341 262.487 340.499 262.66C338.421 263.411 338.69 261.659 339.999 261.467C340.672 261.371 342.79 260.235 342.79 260.235C343.54 259.811 343.521 259.522 343.252 259.561C343.252 259.561 339.999 260.928 339.46 261.217C339.075 261.409 338.401 261.602 337.651 261.871C337.054 262.064 336.149 261.159 337.054 260.504C337.631 260.081 338.17 259.696 339.113 259.349C339.922 259.041 341.077 258.483 341.789 258.136C342.578 257.751 342.867 257.597 342 257.809C340.672 258.117 338.882 258.463 338.613 258.598C337.612 258.906 336.958 258.925 336.862 258.463C336.804 258.213 336.842 257.828 337.381 257.539C338.382 257.039 340.288 256.307 341.288 255.999C342.328 255.672 343.983 254.959 343.983 254.959Z" fill="#EAAD89"/>
<path fill-rule="evenodd" clip-rule="evenodd" d="M373.008 239.499C370.486 242.349 376.973 249.395 380.187 245.853C384.729 240.885 388.867 233.646 391.716 228.525C392.928 226.33 396.585 218.899 395.989 216.55C395.43 214.336 393.39 213.373 391.697 213.508C389.599 213.681 387.712 215.414 386.519 216.781C381.457 222.634 378.185 233.627 373.008 239.499Z" fill="#DF5C5F"/>
<path fill-rule="evenodd" clip-rule="evenodd" d="M381.168 244.486C381.553 243.485 381.919 241.964 381.226 240.886C380.379 239.557 377.954 238.441 376.761 238.345C375.895 238.268 374.143 238.268 373.162 238.941C365.925 243.909 355.069 247.798 355.531 249.819C355.262 250.531 356.667 254.748 358.399 255.499C361.421 257.713 379.705 248.221 381.168 244.486Z" fill="#DF5C5F"/>
<path fill-rule="evenodd" clip-rule="evenodd" d="M358.534 254.228C357.937 253.977 357.263 252.841 356.975 252.245C356.667 251.609 356.339 250.762 356.185 250.088L356.108 249.723L356.416 249.511C358.033 248.394 359.727 247.374 361.459 246.43C363.326 245.391 365.231 244.428 367.098 243.388C369.139 242.253 371.063 241.136 372.988 239.807C374.066 239.076 375.432 238.883 376.683 239.191C377.819 239.48 378.916 240.212 379.378 241.328C380.283 243.504 378.281 245.429 376.606 246.488C371.16 249.973 365.097 252.456 358.899 254.266L358.707 254.324L358.534 254.228Z" fill="#E56A70"/>
<path fill-rule="evenodd" clip-rule="evenodd" d="M386.056 218.938C391.561 212.738 395.622 212.738 394.275 218.129C393.948 219.4 393.101 221.113 392.158 222.961C391.272 224.694 390.887 225.175 389.944 226.87C386.653 232.761 383.477 239.268 378.916 244.274C376.433 247.008 371.294 242.079 373.142 239.981C375.009 237.863 376.587 235.476 378.011 233.05C379.705 230.162 381.187 227.139 382.746 224.174C383.843 222.056 384.478 220.728 386.056 218.938Z" fill="#E56A70"/>
<path fill-rule="evenodd" clip-rule="evenodd" d="M406.94 262.545C419.412 285.917 411.213 287.554 406.42 311.735C404.688 320.418 406.44 322.921 406.786 325.193C407.633 330.93 409.307 339.902 407.748 346.467C407.017 349.567 405.054 356.536 404.342 361.561C403.264 369.147 396.989 367.048 397.124 362.1C397.297 355.92 396.739 349.605 396.47 345.928C396.123 341.25 395.661 336.379 395.584 332.259C395.507 328.909 389.906 313.044 388.559 295.929C387.385 281.143 389.752 264.412 390.522 262.256C396.046 264.836 403.918 266.26 406.94 262.545Z" fill="#EBD1C4"/>
<path fill-rule="evenodd" clip-rule="evenodd" d="M403.841 378.947C406.286 378.312 407.286 375.058 406.902 372.613C406.671 371.169 405.439 370.553 404.63 370.11C400.974 368.088 393.198 374.615 390.792 376.348C386.038 379.756 381.438 385.416 384.517 386.398C388.925 387.822 393.429 386.841 396.97 384.472C399.472 382.817 402.282 378.639 403.841 378.947Z" fill="#39353B"/>
<path fill-rule="evenodd" clip-rule="evenodd" d="M402.513 362.986C402.513 362.986 405.015 369.744 405.131 371.688C405.285 374.268 404.207 375.327 401.416 376.405C399.184 377.271 398.587 381.969 392.005 381.988C389.984 381.988 388.617 380.486 390.08 378.426C390.426 377.926 393.41 375.635 395.123 373.556C397.99 370.052 397.336 369.397 396.778 364.526L402.513 362.986Z" fill="#EFC3A9"/>
<path fill-rule="evenodd" clip-rule="evenodd" d="M387.75 379.486C384.806 382.2 382.804 385.261 384.825 385.916C388.809 387.206 392.466 385.627 395.738 383.355C393.505 384.029 391.099 384.106 388.501 383.278C387.038 382.778 386.98 381.334 387.75 379.486Z" fill="#423E45"/>
<path fill-rule="evenodd" clip-rule="evenodd" d="M425.551 352.089C428.246 350.164 427.765 345.273 425.455 343.829C424.204 343.04 423.665 342.617 419.912 345.793C415.697 349.355 417.198 348.45 413.118 354.611C409.884 359.482 407.594 366.413 410.828 366.24C415.447 366.009 418.603 363.178 421.067 359.713C422.818 357.249 423.954 352.358 425.551 352.089Z" fill="#39353B"/>
<path fill-rule="evenodd" clip-rule="evenodd" d="M419.335 337.957C419.335 337.957 424.07 343.367 424.878 345.158C425.937 347.507 425.321 348.893 423.088 350.895C421.317 352.493 422.434 357.094 416.275 359.463C414.388 360.194 412.579 359.251 413.214 356.825C413.407 356.074 415.736 352.166 416.756 349.259C417.352 347.545 417.025 346.274 416.833 345.909L414.542 341.442L419.335 337.957Z" fill="#EAAD89"/>
<path fill-rule="evenodd" clip-rule="evenodd" d="M384.998 311.716C394.776 322.228 404.534 332.721 414.312 343.233C415.832 343.945 421.241 340.595 420.875 338.285C409.423 311.408 410.809 314.219 398.433 306.46C391.947 300.915 382.747 308.251 384.998 311.716Z" fill="#39353B"/>
<path fill-rule="evenodd" clip-rule="evenodd" d="M384.998 311.716L394.583 322.016C394.352 321.092 394.121 320.168 393.89 319.244C392.736 314.45 391.716 309.598 390.965 304.708C386.769 305.748 383.555 309.502 384.998 311.716ZM411.251 339.96L412.56 341.365C415.293 341.885 417.834 339.286 417.41 336.552C413.137 326.522 410.655 320.63 408.576 316.78C408.499 318.127 408.499 319.475 408.672 320.765C408.788 321.593 408.961 322.382 409.173 323.172C409.346 323.788 409.538 324.423 409.634 325.058C410.308 329.583 411.232 334.916 411.251 339.96Z" fill="#423E45"/>
<path fill-rule="evenodd" clip-rule="evenodd" d="M402.07 262.468C402.955 273.365 404.245 286.977 397.72 298.317C395.103 302.879 394.775 305.421 395.006 307.173C395.526 311.004 384.671 312.756 384.363 308.309C384.036 303.688 383.439 297.489 382.188 289.634C380.109 276.657 383.978 259.753 385.075 256.885C385.171 259.599 395.026 263.142 402.07 262.468Z" fill="#E5C1AF"/>
<path fill-rule="evenodd" clip-rule="evenodd" d="M402.667 262.41C404.592 286.283 397.278 291.424 396.893 307.962C396.72 314.989 384.402 316.895 383.766 308.135C382.573 291.462 379.436 283.107 382.419 265.76C382.746 263.854 383.131 261.929 383.593 260.042C383.843 258.983 384.132 257.789 384.536 256.75L384.652 256.442C384.883 256.961 385.171 257.462 385.556 257.943C387.654 260.504 396.469 263.219 402.667 262.41Z" fill="#39353B"/>
<path fill-rule="evenodd" clip-rule="evenodd" d="M383.458 287.035C383.747 290.231 384.171 293.427 384.555 296.622C385.017 300.338 385.422 304.073 385.691 307.828C385.941 311.447 392.62 309.426 392.716 306.076C392.832 301.282 391.08 296.834 390.291 291.963C390.06 290.5 389.868 289.037 389.714 287.554C389.502 285.648 388.52 277.639 387.308 273.096C386.442 269.842 385.614 267.801 383.978 272.095C382.381 276.215 383.208 284.339 383.458 287.035Z" fill="#423E45"/>
<path fill-rule="evenodd" clip-rule="evenodd" d="M406.901 261.005L407.228 261.64C409.48 265.876 411.944 271.132 413.175 275.791C414.041 279.083 414.349 282.26 413.907 285.687C413.445 289.364 412.194 293.022 411.058 296.564C409.422 301.647 408.325 306.691 407.286 311.928C406.708 314.797 406.323 317.954 406.689 320.88C406.805 321.708 406.978 322.498 407.19 323.287C407.363 323.903 407.555 324.539 407.651 325.174C408.633 331.739 410.173 340.075 408.614 346.66C407.074 353.187 405.015 360.426 404.168 367.068C402.763 368.204 396.662 367.992 396.18 366.971C396.315 365.335 396.431 363.718 396.469 362.062C396.623 356.633 396.2 351.338 395.815 345.948C395.487 341.404 395.006 336.802 394.929 332.24C394.91 331.701 394.775 331.046 394.679 330.526C394.487 329.583 394.256 328.62 394.005 327.696C393.313 324.924 392.581 322.151 391.908 319.379C390.041 311.697 388.559 303.9 387.923 295.987C387.789 294.37 387.712 292.733 387.654 291.116C387.461 284.878 387.75 278.544 388.347 272.325C389.925 272.537 389.925 269.457 390.195 266.934C390.502 264.181 390.637 261.659 390.137 261.236L390.156 261.159C393.871 262.949 403.09 265.606 406.901 261.005Z" fill="#39353B"/>
<path fill-rule="evenodd" clip-rule="evenodd" d="M402.301 361.908C403.283 356.594 404.707 351.357 405.92 346.082C408.788 333.607 400.954 315.143 401.512 312.236C402.532 306.98 403.649 301.743 405.246 296.622C406.305 293.195 407.498 289.691 407.941 286.11C409.596 272.768 389.002 261.082 389.483 281.798C389.502 282.414 389.541 283.087 389.598 283.761C390.407 293.407 391.812 310.349 393.737 318.705C394.372 321.477 395.084 324.25 395.738 327.003C395.969 327.965 396.2 328.947 396.393 329.929C396.527 330.622 396.662 331.315 396.681 332.009C396.758 336.552 397.297 341.096 397.624 345.62C397.99 351.049 398.394 356.479 398.221 361.946C398.144 364.796 399.087 365.431 400.049 365.354C400.973 365.277 401.82 364.507 402.301 361.908Z" fill="#423E45"/>
<path fill-rule="evenodd" clip-rule="evenodd" d="M411.405 358.616C409.615 362.197 408.826 365.758 410.943 365.662C415.139 365.45 417.988 362.678 420.239 359.386C418.392 360.811 416.159 361.735 413.445 361.889C411.906 361.966 411.328 360.637 411.405 358.616Z" fill="#423E45"/>
<path fill-rule="evenodd" clip-rule="evenodd" d="M387.423 217.224C386.172 220.285 381.823 226.235 381.746 228.256C381.63 231.317 382.881 237.42 383.844 243.312C384.633 248.029 382.208 253.496 385.075 257.597C387.847 261.563 402.821 266.627 406.901 261.082C407.96 260.331 407.44 256.981 408.364 254.209C409.019 252.226 409.923 250.05 411.059 247.778C414.85 240.212 420.201 231.779 418.296 227.197C416.64 223.231 392.851 203.978 387.423 217.224Z" fill="#DF5C5F"/>
<path fill-rule="evenodd" clip-rule="evenodd" d="M382.342 228.429C382.304 230.046 382.612 232.029 382.862 233.608C383.574 237.94 389.098 236.9 393.198 238.768C396.739 240.385 404.669 245.044 406.459 241.983C407.036 240.886 408.287 238.614 409.423 236.169C409.904 235.11 413.85 228.699 413.465 224.694C413.33 223.327 412.541 222.769 411.79 222.23C410.481 221.306 408.98 220.208 407.71 219.303C403.86 216.512 392.408 211.39 388.444 217.378C385.48 221.864 382.669 227.12 382.342 228.429Z" fill="#E56A70"/>
<path fill-rule="evenodd" clip-rule="evenodd" d="M409.942 233.685C409.269 239.365 412.175 249.511 411.059 259.003C410.597 262.93 419.97 266.03 420.624 261.12C421.009 258.252 421.914 242.426 420.605 233.377C419.065 222.442 411.097 223.886 409.942 233.685Z" fill="#DF5C5F"/>
<path fill-rule="evenodd" clip-rule="evenodd" d="M384.921 248.837C384.748 251.667 384.094 254.767 385.826 257.154C388.27 260.485 401.551 264.72 405.15 260.061C406.093 259.426 405.631 256.634 406.439 254.305C408.403 248.741 397.566 245.314 393.39 243.581C389.002 241.771 385.98 239.942 384.844 243.639C384.575 244.582 385.017 247.123 384.921 248.837Z" fill="#E56A70"/>
<path fill-rule="evenodd" clip-rule="evenodd" d="M386.249 196.855C377.357 187.652 398.721 181.972 405.131 188.095C405.958 188.903 407.248 218.572 386.249 196.855Z" fill="#301E1E"/>
<path fill-rule="evenodd" clip-rule="evenodd" d="M401.782 187.267C394.391 186.304 386.827 187.613 385.095 191.522C384.614 192.6 384.518 194.082 386.25 196.855C383.421 189.616 390.118 189.616 393.891 189.616C396.085 189.154 398.568 188.018 401.782 187.267Z" fill="#3F2626"/>
<path fill-rule="evenodd" clip-rule="evenodd" d="M393.583 220.709C394.834 218.822 395.046 216.435 394.103 213.181C393.275 213.489 391.158 213.855 390.504 213.778C387.886 213.528 384.883 204.71 385.23 201.996C385.365 201.014 385.615 200.051 385.961 199.358C386.77 197.76 386.058 196.489 385.942 195.045C385.596 190.848 389.83 190.675 392.659 190.656C400.493 192.966 394.969 196.951 401.859 201.283C402.36 201.611 403.033 201.148 403.341 200.821C403.957 200.205 404.65 199.628 405.343 199.647C406.055 199.666 406.767 200.282 406.575 201.418C406.517 201.765 406.209 202.323 405.92 202.823C405.035 204.325 405.381 206.712 403.611 205.711C403.476 207.925 403.669 211.834 403.899 213.759C404.381 217.61 406.402 218.187 403.284 220.016C399.627 222.211 394.391 222.711 393.583 220.709Z" fill="#EAAD89"/>
<path fill-rule="evenodd" clip-rule="evenodd" d="M391.081 213.777L391.196 213.758L391.081 213.777ZM394.237 213.7C396.008 213.7 397.644 213.951 398.664 215.395C399.665 216.819 400.242 219.13 400.454 221.325C397.355 222.326 394.179 222.249 393.564 220.728C394.757 218.937 395.026 216.685 394.237 213.7Z" fill="#EFC3A9"/>
<path fill-rule="evenodd" clip-rule="evenodd" d="M386.615 194.429C386.211 196.566 387.462 197.74 386.769 199.088C386.461 199.704 386.019 200.705 385.903 201.591C385.614 203.882 387.886 212.738 390.099 213.528C390.619 213.72 391.619 213.489 392.178 213.412C394.603 213.066 398.26 210.967 399.53 208.849C402.84 203.362 396.739 200.301 396.778 199.974C394.968 192.099 387.058 192.119 386.615 194.429Z" fill="#EFC3A9"/>
<path fill-rule="evenodd" clip-rule="evenodd" d="M398.279 211.082C399.781 210.254 402.437 207.886 403.649 205.884C403.534 208.117 403.707 211.91 403.957 213.797C404.438 217.647 406.459 218.225 403.341 220.054C402.514 220.535 401.59 220.94 400.666 221.267C402.398 211.506 398.433 212.199 398.279 211.082Z" fill="#EAAD89"/>
<path fill-rule="evenodd" clip-rule="evenodd" d="M392.255 190.559C394.757 187.632 401.859 186.689 404.534 187.613C407.46 188.191 419.508 203.112 413.85 222.384C413.503 223.539 407.71 228.217 406.651 226.619C408.326 225.483 407.113 216.781 404.63 209.735C403.033 205.191 398.414 203.15 396.258 199.049C394.603 195.892 394.391 191.926 392.255 190.559Z" fill="#3F2626"/>
<path fill-rule="evenodd" clip-rule="evenodd" d="M394.718 188.961C404.708 186.939 415.928 193.485 412.926 223.269C410.405 194.024 404.938 190.077 394.718 188.961ZM409.943 225.907C410.751 202.957 401.436 189.153 392.351 190.539C393.217 190.713 394.122 191.156 395.026 191.81C396.701 193.042 397.509 195.256 399.299 197.644C401.359 200.397 404.361 203.497 405.901 207.289C408.307 213.277 409.442 220.304 409.943 225.907Z" fill="#5B3636"/>
<path fill-rule="evenodd" clip-rule="evenodd" d="M403.783 294.928C403.783 294.908 403.783 294.928 403.783 294.908C405.265 293.099 406.728 291.27 408.21 289.46C408.73 282.548 408.229 280.758 411.655 282.144C414.735 283.376 414.985 284.185 412.579 290.846C412.56 292.425 412.194 293.695 411.694 294.851C412.252 295.755 412.079 298.162 409.596 298.951C409.114 299.625 407.786 300.145 406.805 299.914C403.283 299.048 402.051 300.184 403.783 294.928Z" fill="#EAAD89"/>
<path fill-rule="evenodd" clip-rule="evenodd" d="M403.937 294.985C403.34 299.086 404.822 297.507 405.188 296.91C407.69 298.778 408.922 296.853 409.384 295.486C409.557 294.966 409.615 294.176 409.307 293.695L409.268 293.637L409.307 293.56C409.75 292.54 410.962 291 409.48 290.441C408.71 290.153 407.594 290.48 406.728 291.558C405.785 292.694 404.861 293.83 403.937 294.985Z" fill="#EFC3A9"/>
<path fill-rule="evenodd" clip-rule="evenodd" d="M420.509 262.102C420.644 260.793 420.74 258.733 420.201 257.866C418.45 255.094 414.023 255.71 411.829 258.02C410.732 259.175 410.963 260.87 410.847 262.564C410.212 272.691 406.459 285.128 407.902 286.148C408.384 286.899 412.714 288.516 414.35 287.304C416.737 285.571 420.201 265.279 420.509 262.102Z" fill="#DF5C5F"/>
<path fill-rule="evenodd" clip-rule="evenodd" d="M410.789 233.666C411.04 231.606 411.636 229.392 413.022 227.774C413.811 226.85 415.601 227.428 416.371 228.121C417.295 228.949 417.795 232.414 417.969 233.666C418.219 235.572 418.315 237.478 418.507 239.384C419.046 244.486 419.258 250.127 419.181 255.364C419.085 261.447 412.156 261.544 412.31 256.634C412.425 252.668 411.867 246.738 411.367 242.792C411.155 241.097 410.943 239.403 410.789 237.709C410.693 236.361 410.635 234.994 410.789 233.666Z" fill="#E56A70"/>
<path fill-rule="evenodd" clip-rule="evenodd" d="M419.046 257.751C419.546 253.246 412.848 251.956 412.367 257.52C411.559 266.934 407.69 284.955 408.652 285.744C408.96 286.399 412.329 287.747 413.522 286.457C415.254 284.608 418.719 260.716 419.046 257.751Z" fill="#E56A70"/>
<path fill-rule="evenodd" clip-rule="evenodd" d="M318.585 259.584C318.354 258.506 318.354 257.697 318.796 256.946C320.028 254.886 323.781 255.656 324.744 257.639C327.342 263.011 329.633 270.385 331.057 276.7C331.827 277.932 334.348 283.534 334.54 284.67C334.464 287.327 334.444 287.327 334.136 289.445C333.79 290.696 329.863 294.643 329.017 293.257C328.593 292.583 330.499 291.332 331.884 290.042C331.942 289.849 332 289.637 332.038 289.445C332.289 288.194 332.308 286.923 332.058 285.941C331.769 285.479 331.403 285.055 331.095 284.632C330.961 284.459 330.884 284.401 330.941 284.69L331.653 287.924C332.077 289.618 330.595 290.254 330.229 289.137L327.477 283.149C327.477 283.13 327.477 283.149 327.477 283.13C326.842 280.877 326.957 279.78 327.207 277.643C323.647 271.944 319.778 265.013 318.585 259.584Z" fill="#EFC3A9"/>
<path fill-rule="evenodd" clip-rule="evenodd" d="M330.73 290.985C329.421 291.601 328.324 292.159 327.9 291.524C327.515 290.946 329.094 290.253 330.364 289.406C330.422 289.483 330.479 289.541 330.537 289.579L330.556 289.598L330.576 289.618C330.614 289.637 330.672 289.656 330.71 289.676H330.73H330.749C330.826 289.695 330.884 289.676 330.961 289.676C331.018 289.656 331.057 289.656 331.114 289.618C331.191 289.579 331.268 289.521 331.345 289.464C331.596 289.213 331.75 288.79 331.673 288.193C331.865 287.962 332.019 287.731 332.173 287.481C332.173 287.519 332.192 287.558 332.212 287.596V287.635V287.654C332.212 288.232 332.135 288.848 332.019 289.444C331.981 289.637 331.923 289.83 331.865 290.041C331.653 290.272 331.422 290.503 331.191 290.734C331.095 290.792 330.922 290.888 330.73 290.985Z" fill="#EAAD89"/>
<path fill-rule="evenodd" clip-rule="evenodd" d="M328.862 290.33C328.015 290.619 327.322 290.638 327.034 290.215C326.63 289.618 328.574 288.886 329.69 287.981C329.863 288.347 330.017 288.694 330.19 289.04L330.21 289.079L330.229 289.117L330.248 289.156C330.248 289.175 330.267 289.194 330.267 289.213L330.287 289.252L330.306 289.271V289.29L330.325 289.31C329.863 289.733 329.324 290.041 328.862 290.33Z" fill="#EAAD89"/>
<path fill-rule="evenodd" clip-rule="evenodd" d="M328.42 288.829C327.977 288.906 327.631 288.848 327.477 288.617C327.246 288.251 328.266 287.712 329.286 287.096L329.69 287.982C329.325 288.29 328.863 288.559 328.42 288.829Z" fill="#EAAD89"/>
<path fill-rule="evenodd" clip-rule="evenodd" d="M332.211 288.309C332.288 287.462 332.25 286.634 332.057 285.96C331.769 285.498 331.403 285.074 331.095 284.651C330.96 284.477 330.883 284.42 330.941 284.708L331.653 287.943C331.711 288.136 331.73 288.328 331.73 288.482C331.922 288.136 332.076 287.847 332.211 287.5C332.211 287.789 332.23 288.039 332.211 288.309Z" fill="#EAAD89"/>
<path fill-rule="evenodd" clip-rule="evenodd" d="M287.597 360.546L287.635 360.584C288.598 361.451 291.639 363.645 293.467 363.703C295.507 363.761 295.892 363.472 296.508 362.432C296.758 361.836 296.681 361.181 296.489 360.257C295.95 357.735 294.16 355.617 293.467 352.768C293.159 351.555 294.237 349.572 293.929 348.59C293.717 347.916 293.602 347.3 293.544 346.742C293.294 344.566 289.502 340.08 286.48 339.888C285.826 339.849 284.421 340.427 283.67 340.985C283.574 341.081 283.478 341.197 283.401 341.332C282.304 343.315 282.246 344.2 283.497 346.01C284.036 346.78 284.594 347.608 284.575 348.494C284.498 352.825 282.362 354.885 287.597 360.546Z" fill="#544F59"/>
<path fill-rule="evenodd" clip-rule="evenodd" d="M287.462 361.219C288.367 362.047 290.6 364.743 292.467 364.781C294.834 364.839 295.912 363.992 296.547 362.413C295.912 363.472 295.546 363.761 293.487 363.703C291.62 363.645 289.387 360.969 288.482 360.141C283.247 354.481 284.498 352.825 284.575 348.493C284.594 347.608 284.036 346.761 283.497 346.01C282.246 344.219 282.323 343.314 283.401 341.331C283.478 341.197 283.555 341.081 283.671 340.985C280.938 341.659 280.707 344.835 282.304 346.992C282.92 347.82 283.555 348.705 283.555 349.572C283.555 353.903 282.227 355.559 287.462 361.219Z" fill="#39353B"/>
<path fill-rule="evenodd" clip-rule="evenodd" d="M286.711 356.888C287.904 358.871 291.119 362.24 293.39 362.683C294.487 362.895 296.238 362.741 295.796 360.854C295.545 359.737 295.007 358.543 294.41 357.35C292.889 354.327 294.641 354.616 290.945 354.423C288.867 354.327 284.844 353.788 286.711 356.888Z" fill="#655F6B"/>
<path fill-rule="evenodd" clip-rule="evenodd" d="M284.421 339.81C283.516 340.715 287.866 350.322 293.89 349.417C295.815 347.8 298.279 345.528 302.263 342.852C305.67 340.58 319.585 328.066 324.301 323.523C330.787 317.265 318.334 307.62 312.425 314.089C307.729 319.229 291.003 332.591 284.421 339.81Z" fill="#5A8F8E"/>
<path fill-rule="evenodd" clip-rule="evenodd" d="M292.948 348.802C292.775 348.782 292.621 348.763 292.447 348.705C291.485 348.455 290.08 347.993 289.387 347.261C288.559 346.376 287.847 345.317 287.308 344.239C287.174 343.95 286.981 343.546 286.846 343.18C287.154 342.852 287.482 342.506 287.809 342.179C289.214 340.735 291.466 338.694 294.064 336.384C296.662 334.092 295.989 334.381 296.277 337.982C296.412 339.753 296.585 341.774 296.682 343.276C296.951 346.78 295.912 346.299 292.948 348.802Z" fill="#70A09D"/>
<path fill-rule="evenodd" clip-rule="evenodd" d="M326.322 255.175C328.016 263.666 330.691 270.751 331.307 275.025C330.133 277.162 322.53 279.087 321.818 276.43C321.183 274.101 317.468 265.841 315.159 256.85C313.965 252.249 313.619 246.743 312.964 241.91C312.329 237.213 311.983 232.707 311.502 228.934C311.117 225.815 310.597 223.12 311.001 221.06C311.617 217.864 313.118 217.228 314.928 217.113C317.449 216.959 320.99 217.902 323.011 224.872C323.993 228.241 323.723 233.92 324.012 239.889C324.243 244.914 325.321 250.208 326.322 255.175Z" fill="#39353B"/>
<path fill-rule="evenodd" clip-rule="evenodd" d="M330.075 274.851C329.363 275.391 327.804 275.93 327.227 276.084C326.611 276.238 324.474 276.623 323.839 276.218C323.57 275.275 323.185 274.293 322.838 273.369C322.261 271.867 321.684 270.366 321.125 268.864C319.643 264.879 318.277 260.855 317.218 256.735C315.986 251.979 315.717 246.858 315.063 241.987C314.466 237.675 314.139 233.343 313.6 229.03C313.35 226.989 312.695 223.659 313.08 221.676C313.407 220.001 313.792 219.153 315.505 219.038C319.335 218.788 321.01 222.484 321.934 225.642C322.473 227.49 322.55 229.858 322.627 231.783C322.723 234.613 322.742 237.444 322.877 240.293C323.127 245.491 324.205 250.689 325.225 255.791C326.014 259.719 327.053 263.569 328.151 267.42C328.805 269.788 329.652 272.406 330.075 274.851Z" fill="#423E45"/>
<path fill-rule="evenodd" clip-rule="evenodd" d="M326.572 317.092C326.611 316.418 326.63 315.725 326.668 315.051C326.649 302.845 329.998 287.02 326.514 273.504C323.935 267.979 307.364 272.118 307.614 276.026C307.383 288.983 309.134 305.021 311.155 317.208C310.886 321.289 316.198 324.562 320.682 324.274C323.627 324.081 326.303 323.157 326.572 317.092Z" fill="#5A8F8E"/>
<path fill-rule="evenodd" clip-rule="evenodd" d="M321.799 272.098C323.012 272.252 324.782 272.676 325.418 273.869C326.842 279.491 327.054 285.421 326.88 291.139C326.746 295.259 326.418 299.36 326.091 303.48C325.802 307.292 325.495 311.143 325.495 314.974C325.437 316.071 325.379 317.169 325.341 318.266C325.129 324.061 315.39 325.062 315.043 318.632C314.716 312.664 314.351 306.695 313.696 300.727C313.484 298.744 313.292 296.78 313.119 294.797C312.599 288.578 312.272 282.283 312.368 276.083V276.026V275.968C312.349 275.775 312.618 275.448 312.734 275.333C313.176 274.851 313.831 274.466 314.389 274.158C316.121 273.234 318.277 272.637 320.221 272.291C320.76 272.233 321.279 272.156 321.799 272.098Z" fill="#70A09D"/>
<path fill-rule="evenodd" clip-rule="evenodd" d="M303.36 378.758C305.42 381.164 308.172 384.572 309.866 385.669C310.924 386.363 314.755 388.038 316.564 387.787C318.527 387.518 319.874 386.42 320.278 385.304C320.49 384.745 320.567 383.629 320.24 382.897C320.76 384.803 319.162 386.055 316.468 386.42C314.639 386.671 311.021 384.688 309.943 383.995C308.249 382.897 305.728 379.624 303.611 377.237C302.436 375.889 300.627 374.214 300.319 372.732C300.319 372.982 300.339 373.232 300.358 373.483C300.416 374.233 300.608 375.543 301.262 376.37C301.936 377.198 302.744 378.026 303.36 378.758Z" fill="#39353B"/>
<path fill-rule="evenodd" clip-rule="evenodd" d="M303.63 377.237C305.728 379.625 308.249 382.898 309.962 383.995C311.021 384.688 314.658 386.671 316.487 386.421C319.412 386.017 321.048 384.573 320.067 382.378C318.508 378.874 314.697 375.043 312.945 371.924C312.58 371.288 312.329 370.672 312.137 370.133C311.194 367.38 301.416 366.629 300.531 369.729C300.3 370.518 300.223 371.442 300.3 372.501C300.416 374.022 302.379 375.832 303.63 377.237Z" fill="#544F59"/>
<path fill-rule="evenodd" clip-rule="evenodd" d="M306.902 380.241C308.191 381.743 309.442 383.148 310.424 383.764C311.386 384.38 314.678 386.19 316.333 385.959C318.989 385.593 320.471 384.284 319.586 382.282C319.047 381.069 318.219 379.817 317.295 378.585C314.986 375.447 315.216 375.986 311.348 376.448C309.192 376.698 304.207 377.103 306.902 380.241Z" fill="#655F6B"/>
<path fill-rule="evenodd" clip-rule="evenodd" d="M299.857 371.019C299.934 371.519 308.172 374.484 313.099 370.999C312.541 356.829 314.735 337.654 314.966 322.328C314.485 309.102 316.082 290.927 312.079 276.257C310.135 272.079 292.351 267.131 292.332 282.167C292.332 285.941 292.87 290.215 292.986 292.371C293.679 304.423 295.334 315.051 297.24 325.236C297.49 342.351 298.106 355.27 299.857 371.019Z" fill="#5A8F8E"/>
<path fill-rule="evenodd" clip-rule="evenodd" d="M303.591 371.019C303.63 371.288 305.94 372.232 308.846 372.559C310.347 372.366 311.829 371.904 313.099 371C312.541 356.83 314.735 337.654 314.966 322.329C314.735 315.995 314.774 306.176 314.678 297.839C314.658 296.107 317.218 293.219 317.161 291.467C316.93 284.074 316.352 281.282 314.658 275.102C313.85 273.35 307.653 272.618 303.765 272.118C301.494 272.445 299.396 273.408 297.971 275.333C300.435 277.143 302.167 280.146 302.398 283.554C302.706 288.02 300.319 291.813 296.759 293.103C297.471 304.982 299.107 315.263 300.974 325.236C301.224 342.351 301.84 355.27 303.591 371.019Z" fill="#70A09D"/>
<path fill-rule="evenodd" clip-rule="evenodd" d="M291.177 222.253C293.352 221.194 297.317 219.808 301.705 218.538C308.538 216.574 316.949 215.38 320.644 215.958C322.857 216.304 324.705 217.941 325.475 219.635C326.553 222.042 326.014 224.968 326.149 228.087C326.957 244.933 323.3 253.5 327.727 274.351C328.189 276.488 328.439 276.989 327.188 277.913C322.857 281.07 316.66 282.283 311.155 282.553C307.826 282.726 295.969 282.63 292.948 281.455C291.831 281.013 290.888 279.992 291.081 278.279C292.389 267.131 292.678 268.749 292.312 260.585C292.005 253.558 291.235 245.684 289.695 239.889C287.424 231.244 282.285 226.527 291.177 222.253Z" fill="#39353B"/>
<path fill-rule="evenodd" clip-rule="evenodd" d="M324.647 232.534C324.532 239.908 323.454 245.452 323.473 252.48C323.473 254.732 323.666 259.719 324.205 264.859C325.09 273.196 327.977 276.546 317.487 277.989C295.431 281.012 301.82 263.049 301.359 246.319C301.147 238.598 300.338 231.61 299.723 227.105C299.588 226.161 299.569 224.679 300.974 224.14C304.688 222.696 310.366 224.101 315.909 221.425C318.508 220.174 319.046 218.845 321.125 218.845C325.302 218.845 324.782 223.87 324.647 232.534Z" fill="#423E45"/>
<path fill-rule="evenodd" clip-rule="evenodd" d="M298.529 193.801C297.663 194.725 297.162 195.938 297.162 197.574C297.162 199.769 297.644 203.042 298.606 206.026C299.472 208.741 299.972 210.454 301.493 212.206C302.109 212.899 303.302 212.976 304.053 212.976C313.445 212.976 317.314 201.675 320.47 199.191C321.972 198.017 322.491 195.187 321.644 192.318C320.278 187.698 315.639 182.961 307.883 184.733C302.475 185.984 298.317 189.18 298.529 193.801Z" fill="#301E1E"/>
<path fill-rule="evenodd" clip-rule="evenodd" d="M307.94 225.488C310.308 225.854 315.947 226.239 317.083 223.447C317.429 222.619 316.679 221.772 315.966 221.464C313.83 220.501 303.956 218.749 300.877 219.962C299.78 220.386 299.972 221.541 300.627 222.369C301.916 224.005 306.016 225.18 307.94 225.488Z" fill="#39353B"/>
<path fill-rule="evenodd" clip-rule="evenodd" d="M315.716 222.888C314.465 221.002 314.35 219.23 315.293 215.977C315.505 215.996 316.236 216.15 316.409 216.131C319.027 215.88 321.818 207.121 321.471 204.387C321.337 203.385 321.086 202.442 320.74 201.749C319.932 200.151 320.644 198.88 320.759 197.436C320.875 196.031 320.605 194.626 320.028 193.413C319.912 193.586 319.797 193.759 319.662 193.932C318.334 195.646 311.559 196.609 308.768 195.607C307.729 195.242 307.46 196.262 307.383 197.225C307.248 198.803 306.863 200.324 305.593 200.883C305.612 201.306 305.65 201.749 305.708 202.192C305.843 203.27 306.074 204.329 306.382 205.33C306.382 205.33 305.323 206.004 305.188 206.1C303.957 199.265 300.531 201.845 300.261 204.675C300.069 206.581 300.954 210.875 302.84 209.951C302.975 212.184 302.956 214.263 302.706 216.208C302.224 220.058 300.203 220.655 303.321 222.484C307.055 224.64 314.908 224.891 315.716 222.888Z" fill="#EAAD89"/>
<path fill-rule="evenodd" clip-rule="evenodd" d="M315.717 222.889C314.62 221.214 314.389 219.654 315.005 217.055C312.714 217.074 310.174 216.516 308.865 218.364C307.941 219.674 307.46 221.907 307.364 223.871C311.021 224.583 315.14 224.294 315.717 222.889Z" fill="#EFC3A9"/>
<path fill-rule="evenodd" clip-rule="evenodd" d="M320.047 193.432L320.066 193.49L320.086 193.548L320.105 193.605L320.124 193.663L320.143 193.721L320.163 193.779L320.182 193.836L320.201 193.894L320.22 193.952L320.24 194.01L320.259 194.067L320.278 194.125L320.297 194.183L320.317 194.241L320.336 194.298L320.355 194.356L320.374 194.414L320.394 194.472L320.413 194.53L320.432 194.587L320.451 194.645L320.471 194.703L320.49 194.761L320.509 194.818L320.528 194.876L320.548 194.934L320.567 194.992L320.586 195.049L320.605 195.107L320.625 195.165L320.644 195.223L320.663 195.28L320.682 195.338L320.702 195.396L320.721 195.454L320.74 195.511V195.569V195.627V195.685V195.742V195.8V195.858V195.916V195.973V196.031V196.089V196.147V196.205V196.262V196.32V196.378V196.436V196.493V196.551V196.609V196.744V196.878V196.936V196.994V197.052V197.109V197.167V197.225C320.605 198.63 319.932 199.882 320.721 201.48C321.067 202.173 321.317 203.116 321.452 204.117C321.779 206.716 319.239 214.88 316.717 215.784C316.121 215.996 314.985 215.746 314.35 215.65C311.578 215.245 308.595 214.629 307.152 212.223C306.305 210.817 306.613 205.157 307.575 203.752C307.999 203.116 309.327 203.328 309.654 202.808C309.962 202.308 309.269 201.075 309.211 200.613C308.98 198.688 308.845 196.917 308.961 195.377C309.538 195.569 310.289 195.665 311.097 195.704H311.29C311.424 195.704 311.54 195.704 311.675 195.704H311.867H312.06H312.079H312.271H312.291H312.483H312.502H312.676H312.695H312.868H312.907L313.08 195.685H313.118L313.291 195.665H313.33L313.503 195.646H313.542L313.696 195.627H313.734L313.888 195.608H313.946L314.1 195.588H314.158L314.312 195.569H314.369L314.523 195.55H314.581L314.793 195.511L314.927 195.492L315.004 195.473L315.139 195.454L315.216 195.434L315.332 195.415L315.409 195.396L315.524 195.377L315.601 195.357L315.717 195.338L315.794 195.319L315.909 195.3L316.005 195.28L316.101 195.261H316.121C316.236 195.242 316.352 195.203 316.448 195.184L316.506 195.165L316.64 195.126H316.66L316.756 195.107L316.833 195.088L316.929 195.069H316.948L317.064 195.03L317.122 195.011L317.237 194.972L317.295 194.953L317.391 194.915L317.449 194.895L317.507 194.876L317.622 194.838H317.641L317.757 194.799L317.776 194.78L317.834 194.761L317.949 194.722L318.007 194.703L318.122 194.664H318.142L318.238 194.626L318.276 194.607L318.315 194.587L318.43 194.549L318.527 194.491L318.565 194.472L318.604 194.453L318.7 194.395L318.719 194.376L318.777 194.356L318.854 194.318L318.95 194.26L318.969 194.241L319.066 194.183L319.123 194.144L319.181 194.106L319.277 194.048H319.296L319.373 193.971L319.45 193.894C319.47 193.875 319.508 193.836 319.527 193.817L319.604 193.74L319.662 193.663L320.047 193.432Z" fill="#EFC3A9"/>
<path fill-rule="evenodd" clip-rule="evenodd" d="M308.364 195.53C308.499 195.53 308.633 195.55 308.787 195.607C313.137 197.167 319.681 196.185 321.375 191.584C322.126 189.543 322.049 186.616 319.412 184.768C314.485 188.984 310.597 181.149 303.244 185.307C300.088 187.098 298.413 190.197 298.529 193.74C302.166 192.931 305.804 193.624 308.364 195.53Z" fill="#3F2626"/>
<path fill-rule="evenodd" clip-rule="evenodd" d="M315.004 194.009C320.413 193.008 321.048 188.734 319.431 184.768C319.624 187.81 317.622 188.195 314.793 187.964C309.423 187.521 301.994 183.247 298.548 193.74C303.379 188.195 308.711 195.145 315.004 194.009Z" fill="#5B3636"/>
<path fill-rule="evenodd" clip-rule="evenodd" d="M315.024 216.94C315.101 216.612 315.158 216.381 315.255 216.054C314.754 215.919 312.618 215.958 310.443 215.188C309.019 214.687 306.516 214.11 305.708 212.512C304.861 210.817 304.9 208.834 305.15 205.869C303.88 199.304 300.531 201.865 300.261 204.676C300.069 206.582 300.954 210.875 302.84 209.951C302.975 212.184 302.956 214.264 302.706 216.208C302.224 220.059 300.203 220.656 303.321 222.485C303.745 222.735 304.226 222.966 304.746 223.158C304.842 221.041 305.131 218.769 306.67 217.71C308.711 216.285 312.137 216.728 315.024 216.94Z" fill="#EAAD89"/>
<path fill-rule="evenodd" clip-rule="evenodd" d="M345.473 255.811C344.607 255.618 343.413 255.233 343.317 254.521C343.317 254.521 343.74 253.635 344.048 253.5C345.088 253 345.646 253.038 346.358 252.076C346.801 251.479 346.82 251.152 346.647 250.882C346.397 250.516 345.761 250.324 344.876 250.863C344.857 250.882 340.815 252.73 340.468 252.884C339.641 253.25 339.16 253.539 338.525 254.02C337.889 254.502 338.236 254.964 336.754 255.233C335.272 255.503 323.839 253.693 323.839 253.693C322.838 254.367 322.126 260.162 323.262 260.2C325.976 260.431 331.942 260.605 336.561 260.932C337.081 261.124 337.504 261.278 337.87 261.413C341.104 263.011 339.891 262.761 344.299 264.243C345.935 264.571 347.551 264.898 349.187 265.225C350.458 265.476 350.727 264.59 349.63 264.109C348.725 263.704 347.551 263.358 346.647 262.973C346.3 262.819 346.281 262.511 346.878 262.588L347.744 262.626C347.879 262.626 348.052 262.645 348.263 262.645C348.61 262.665 349.091 262.665 349.861 262.703C350.438 262.722 351.016 262.761 351.574 262.78C352.652 262.838 352.921 262.511 352.921 262.183C352.96 261.221 351.112 261.375 350.458 261.298C349.495 261.182 348.379 260.951 348.379 260.951C347.455 260.739 347.378 260.431 347.686 260.393C347.686 260.393 351.516 260.778 352.171 260.893C352.633 260.97 353.402 260.97 354.269 260.99C354.961 261.009 355.597 259.758 354.461 259.372C353.73 259.122 353.056 258.891 351.94 258.814C351.016 258.756 349.611 258.545 348.745 258.41C347.802 258.256 347.436 258.198 348.417 258.14C349.899 258.044 351.882 257.832 352.209 257.89C353.364 257.89 354.057 257.698 353.999 257.197C353.98 256.908 353.807 256.523 353.152 256.408C351.959 256.196 349.726 256.061 348.571 256.042C347.417 256.042 345.473 255.811 345.473 255.811Z" fill="#EFC3A9"/>
<path fill-rule="evenodd" clip-rule="evenodd" d="M299.145 230.281C302.667 234.536 305.651 244.182 311.425 251.363C312.175 252.287 312.637 253.115 312.58 254.058C312.31 257.947 305.959 261.317 303.168 258.005C297.644 251.44 293.66 243.335 290.215 237.52C288.598 234.806 287.058 232.553 286.616 230.512C285.903 227.336 287.02 226.161 288.636 225.333C290.888 224.159 294.507 224.679 299.145 230.281Z" fill="#39353B"/>
<path fill-rule="evenodd" clip-rule="evenodd" d="M309.616 248.783C320.144 251.459 329.844 251.729 334.887 253.038C336.542 254.983 335.618 262.857 332.789 262.453C329.844 262.048 317.334 262.318 306.17 259.873C302.879 259.16 301.57 256.446 302.821 253.231C304.072 250.131 306.363 247.955 309.616 248.783Z" fill="#39353B"/>
<path fill-rule="evenodd" clip-rule="evenodd" d="M298.337 230.917C301.936 235.249 304.958 245.164 310.944 252.384C313.407 255.368 307.364 261.24 304.207 257.524C299.761 252.307 296.662 246.03 293.872 240.755C292.678 238.503 288.656 231.668 289.233 229.338C289.657 227.606 291.37 226.258 292.794 226.739C294.43 227.278 296.297 228.453 298.337 230.917Z" fill="#423E45"/>
<path fill-rule="evenodd" clip-rule="evenodd" d="M332.769 260.835C328.362 261.336 306.536 260.373 304.091 257.582C302.937 256.272 303.206 254.636 304.13 253.307C306.343 250.111 309.827 251.382 313.253 251.709C321.106 252.499 333.039 254.097 334.906 254.52C335.579 255.31 335.329 260.566 332.769 260.835Z" fill="#423E45"/>
<g clip-path="url(#clip0_4731_1340)">
<path d="M382.87 163.377L392.036 171.65V154.581L382.87 163.377Z" fill="#FBB03B"/>
<path d="M381.293 165.901C379.659 167.312 379.563 167.393 378.847 168.401L378.565 168.796L378.283 168.401C377.567 167.393 377.471 167.312 375.845 165.909C375.073 165.24 374.702 164.587 374.542 164.055L365.649 172.077H391.489L382.589 164.047C382.428 164.579 382.066 165.232 381.293 165.901Z" fill="#FBB03B"/>
<path d="M365.102 154.581V171.65L374.268 163.377L365.102 154.581Z" fill="#FBB03B"/>
<path d="M374.501 162.652C374.63 162.055 375.113 161.192 376.328 160.934C377.398 160.709 378.155 161.233 378.573 161.749C379 161.225 379.748 160.709 380.818 160.934C382.033 161.192 382.516 162.055 382.645 162.652L391.529 154.121H365.609L374.501 162.652Z" fill="#FBB03B"/>
<path d="M378.565 167.611C378.67 167.465 378.774 167.336 378.871 167.215C379.209 166.804 379.563 166.482 380.319 165.829C380.472 165.692 380.649 165.546 380.834 165.377C381.092 165.159 381.293 164.942 381.454 164.732C381.728 164.377 381.88 164.047 381.953 163.781C382.017 163.555 382.033 163.37 382.025 163.232C382.025 163.112 382.001 163.031 382.001 163.023L381.993 162.991V162.95C381.993 162.91 381.921 161.862 380.673 161.604C379.426 161.338 378.903 162.483 378.879 162.531L378.565 163.232L378.251 162.531C378.235 162.491 377.801 161.572 376.819 161.572C376.706 161.572 376.585 161.58 376.457 161.612C375.201 161.878 375.137 162.95 375.137 162.958V162.999L375.129 163.039C375.129 163.047 375.113 163.12 375.105 163.241C375.105 163.37 375.113 163.555 375.177 163.781C375.25 164.047 375.394 164.377 375.676 164.732C375.837 164.942 376.038 165.151 376.296 165.377C376.489 165.546 376.666 165.692 376.819 165.829C377.575 166.482 377.921 166.804 378.267 167.215C378.364 167.336 378.46 167.465 378.565 167.611Z" fill="#F15A24"/>
</g>
<g clip-path="url(#clip1_4731_1340)">
<path d="M312.512 146.964L323.206 156.615V136.702L312.512 146.964Z" fill="#FBB03B"/>
<path d="M310.672 149.909C308.766 151.555 308.654 151.649 307.818 152.825L307.489 153.286L307.161 152.825C306.325 151.649 306.213 151.555 304.316 149.918C303.415 149.137 302.983 148.375 302.795 147.755L292.421 157.114H322.567L312.184 147.745C311.996 148.366 311.573 149.128 310.672 149.909Z" fill="#FBB03B"/>
<path d="M291.783 136.702V156.615L302.476 146.964L291.783 136.702Z" fill="#FBB03B"/>
<path d="M302.748 146.118C302.898 145.422 303.462 144.415 304.879 144.114C306.128 143.851 307.01 144.462 307.499 145.064C307.996 144.453 308.869 143.851 310.118 144.114C311.536 144.415 312.099 145.422 312.249 146.118L322.614 136.166H292.374L302.748 146.118Z" fill="#FBB03B"/>
<path d="M307.489 151.903C307.611 151.733 307.733 151.583 307.846 151.442C308.24 150.962 308.654 150.586 309.536 149.824C309.714 149.664 309.921 149.495 310.137 149.297C310.437 149.043 310.672 148.789 310.86 148.545C311.179 148.131 311.357 147.745 311.442 147.435C311.517 147.171 311.536 146.955 311.526 146.795C311.526 146.654 311.498 146.56 311.498 146.55L311.489 146.513V146.466C311.489 146.419 311.404 145.196 309.949 144.895C308.494 144.584 307.884 145.92 307.856 145.977L307.489 146.795L307.123 145.977C307.104 145.93 306.597 144.857 305.452 144.857C305.321 144.857 305.18 144.867 305.03 144.904C303.565 145.215 303.49 146.466 303.49 146.475V146.522L303.481 146.569C303.481 146.579 303.462 146.663 303.452 146.804C303.452 146.955 303.462 147.171 303.537 147.435C303.621 147.745 303.79 148.131 304.119 148.545C304.307 148.789 304.541 149.034 304.842 149.297C305.067 149.495 305.274 149.664 305.452 149.824C306.335 150.586 306.738 150.962 307.142 151.442C307.255 151.583 307.367 151.733 307.489 151.903Z" fill="#F15A24"/>
</g>
<g clip-path="url(#clip2_4731_1340)">
<path d="M347.468 118.488L356.125 126.76V109.691L347.468 118.488Z" fill="#FBB03B"/>
<path d="M345.978 121.012C344.435 122.423 344.344 122.503 343.668 123.511L343.402 123.906L343.136 123.511C342.459 122.503 342.368 122.423 340.833 121.02C340.103 120.351 339.754 119.697 339.602 119.165L331.204 127.188H355.608L347.202 119.157C347.05 119.689 346.708 120.342 345.978 121.012Z" fill="#FBB03B"/>
<path d="M330.687 109.691V126.76L339.344 118.488L330.687 109.691Z" fill="#FBB03B"/>
<path d="M339.564 117.762C339.685 117.166 340.141 116.303 341.289 116.045C342.3 115.819 343.014 116.343 343.409 116.859C343.812 116.335 344.519 115.819 345.53 116.045C346.678 116.303 347.134 117.166 347.255 117.762L355.646 109.232H331.166L339.564 117.762Z" fill="#FBB03B"/>
<path d="M343.402 122.721C343.501 122.576 343.6 122.447 343.691 122.326C344.01 121.915 344.344 121.592 345.059 120.939C345.203 120.802 345.37 120.657 345.545 120.488C345.788 120.27 345.978 120.052 346.13 119.843C346.389 119.488 346.533 119.157 346.602 118.891C346.662 118.666 346.678 118.48 346.67 118.343C346.67 118.222 346.647 118.141 346.647 118.133L346.64 118.101V118.061C346.64 118.021 346.571 116.972 345.393 116.714C344.215 116.448 343.721 117.593 343.698 117.642L343.402 118.343L343.106 117.642C343.09 117.601 342.68 116.682 341.753 116.682C341.646 116.682 341.532 116.69 341.411 116.722C340.225 116.989 340.164 118.061 340.164 118.069V118.109L340.157 118.15C340.157 118.158 340.142 118.23 340.134 118.351C340.134 118.48 340.142 118.666 340.202 118.891C340.271 119.157 340.408 119.488 340.674 119.843C340.826 120.052 341.016 120.262 341.259 120.488C341.441 120.657 341.608 120.802 341.753 120.939C342.467 121.592 342.794 121.915 343.121 122.326C343.212 122.447 343.303 122.576 343.402 122.721Z" fill="#F15A24"/>
</g>
<g clip-path="url(#clip3_4731_1340)">
<path d="M321.259 78.7109L318.655 81.1493L318.347 81.4357L318.047 81.7152V81.7222L309.742 89.4914L301.43 81.7152L301.13 81.4357L300.822 81.1493L298.219 78.7109H300.822V78.4175H318.655V78.7109H321.259Z" fill="url(#paint0_linear_4731_1340)"/>
<path d="M300.823 78.1152V78.7091H318.655V78.1152H300.823Z" fill="white"/>
<path d="M321.259 78.1152H318.655V78.4156H300.822V78.1152H298.219L300.822 75.6769V75.2646L301.13 74.9852L301.43 74.6987L305.343 71.0377L305.665 70.7372L305.98 70.4438H306.416L309.742 67.3347L313.061 70.4438H313.498L313.812 70.7372L314.134 71.0377L318.047 74.6987L318.347 74.9852L318.655 75.2646V75.6769L321.259 78.1152Z" fill="#FBB03B"/>
<path d="M318.347 74.573L318.047 74.2865L314.571 71.0377L314.256 70.7443L313.941 70.4508H313.061L313.376 70.7443L313.691 71.0377L318.04 75.111L318.34 75.3974L318.641 75.6839V74.8595L318.347 74.573ZM305.543 70.4438L305.229 70.7373L304.907 71.0377L301.431 74.2865L301.13 74.573L300.83 74.8595V75.6839L301.13 75.3974L301.431 75.111L305.787 71.0377L306.101 70.7443L306.416 70.4508H305.543V70.4438ZM300.823 78.1153V78.7091H318.655V78.1153H300.823Z" fill="white"/>
<path d="M305.915 86.7369L301.795 90.3561L301.459 90.6565H301.13V82.2515L301.431 82.5379L305.915 86.7369Z" fill="white"/>
<path d="M316.774 90.356L317.11 90.6564H302.368L302.704 90.356L306.352 87.1421L309.742 90.314L313.126 87.1421L316.774 90.356Z" fill="white"/>
<path d="M318.347 82.2583V90.6563H318.018L317.682 90.3559L313.562 86.7368L318.047 82.5378L318.347 82.2583Z" fill="white"/>
<path d="M318.349 70.739V81.4357L318.049 81.7151V81.7221L309.744 89.4914L301.432 81.7151L301.132 81.4357V70.739H318.349Z" fill="white"/>
<path d="M313.376 70.7373H306.101L305.787 71.0307H313.698L313.376 70.7373ZM301.13 78.4157V78.7091H300.83V81.1475L301.13 81.4339L301.431 81.7204V78.4157H301.13ZM301.13 75.3974V78.1222H301.431V75.118L301.13 75.3974ZM313.376 70.7373H306.101L305.787 71.0307H313.698L313.376 70.7373ZM300.823 70.4438V81.1475L301.123 81.4339L301.423 81.7204V71.0377H318.033V81.7204L318.333 81.4339L318.634 81.1475V70.4438H300.823ZM317.11 90.6564L316.774 90.363H302.704L302.368 90.6564L302.031 90.9499H317.446L317.11 90.6564ZM318.347 82.2514L318.047 82.5379V90.356H317.682L318.018 90.6494L318.355 90.9429H318.655V81.9719L318.347 82.2514ZM301.431 90.356V82.5379L301.13 82.2514L300.83 81.9649V90.9499H301.123L301.459 90.6564L301.795 90.363H301.431V90.356ZM300.823 78.7091V81.1475L301.123 81.4339L301.423 81.7204V78.7161H300.823V78.7091ZM313.376 70.7373H306.101L305.787 71.0307H313.698L313.376 70.7373Z" fill="#FBB03B"/>
<path d="M301.123 90.9499L297.768 93.8983V79.1074L300.822 81.972L301.13 82.2514L301.43 82.5379L305.915 86.7369L301.795 90.356L301.459 90.6565L301.123 90.9499Z" fill="#FBB03B"/>
<path d="M317.446 90.9499L321.223 94.2685H298.254L302.031 90.9499L302.367 90.6564L302.704 90.356L306.352 87.1421L309.742 90.3141L313.126 87.1421L316.774 90.356L317.11 90.6564L317.446 90.9499Z" fill="#FBB03B"/>
<path d="M321.709 79.1074V93.8983L318.355 90.9499L318.018 90.6565L317.682 90.356L313.562 86.7369L318.047 82.5379L318.347 82.2584V82.2514L318.655 81.972L321.709 79.1074Z" fill="#FBB03B"/>
<path d="M301.13 82.2514L301.431 82.5379L301.13 82.2514ZM300.823 81.9719L301.123 82.2584L300.823 81.9719Z" fill="white"/>
<path d="M315.865 73.7346H306.101C305.987 73.7346 305.894 73.6437 305.894 73.532C305.894 73.4202 305.987 73.3293 306.101 73.3293H315.865C315.98 73.3293 316.073 73.4202 316.073 73.532C316.08 73.6437 315.987 73.7346 315.865 73.7346Z" fill="#FBB03B"/>
<path d="M315.865 75.5512H303.612C303.498 75.5512 303.405 75.4604 303.405 75.3486C303.405 75.2368 303.498 75.146 303.612 75.146H315.865C315.98 75.146 316.073 75.2368 316.073 75.3486C316.08 75.4604 315.987 75.5512 315.865 75.5512Z" fill="#FBB03B"/>
<path d="M315.865 77.3747H303.612C303.498 77.3747 303.405 77.2839 303.405 77.1721C303.405 77.0603 303.498 76.9695 303.612 76.9695H315.865C315.98 76.9695 316.073 77.0603 316.073 77.1721C316.08 77.2839 315.987 77.3747 315.865 77.3747Z" fill="#FBB03B"/>
<path d="M315.865 79.1911H306.101C305.987 79.1911 305.894 79.1003 305.894 78.9885C305.894 78.8767 305.987 78.7859 306.101 78.7859H315.865C315.98 78.7859 316.073 78.8767 316.073 78.9885C316.08 79.1003 315.987 79.1911 315.865 79.1911Z" fill="#FBB03B"/>
<path d="M315.865 81.0078H303.612C303.498 81.0078 303.405 80.9169 303.405 80.8052C303.405 80.6934 303.498 80.6025 303.612 80.6025H315.865C315.98 80.6025 316.073 80.6934 316.073 80.8052C316.08 80.9169 315.987 81.0078 315.865 81.0078Z" fill="#FBB03B"/>
<path d="M315.865 82.8313H303.612C303.498 82.8313 303.405 82.7404 303.405 82.6286C303.405 82.5169 303.498 82.426 303.612 82.426H315.865C315.98 82.426 316.073 82.5169 316.073 82.6286C316.073 82.7404 315.987 82.8313 315.865 82.8313Z" fill="#FBB03B"/>
</g>
<g clip-path="url(#clip4_4731_1340)">
<path d="M391.726 80.0396L389.936 81.8006L389.725 82.0075L389.518 82.2093V82.2144L383.809 87.8255L378.095 82.2093L377.888 82.0075L377.677 81.8006L375.886 80.0396H377.677V79.8276H389.936V80.0396H391.726Z" fill="url(#paint1_linear_4731_1340)"/>
<path d="M377.677 79.6094V80.0383H389.936V79.6094H377.677Z" fill="white"/>
<path d="M391.728 79.6094H389.938V79.8264H377.678V79.6094H375.888L377.678 77.8484V77.5507L377.89 77.3488L378.096 77.1419L380.786 74.4978L381.008 74.2809L381.224 74.0689H381.524L383.811 71.8235L386.093 74.0689H386.393L386.609 74.2809L386.83 74.4978L389.52 77.1419L389.727 77.3488L389.938 77.5507V77.8484L391.728 79.6094Z" fill="#FBB03B"/>
<path d="M389.725 77.051L389.518 76.8441L387.128 74.4978L386.912 74.2858L386.696 74.0739H386.091L386.307 74.2858L386.523 74.4978L389.513 77.4395L389.72 77.6464L389.926 77.8533V77.2579L389.725 77.051ZM380.922 74.0688L380.706 74.2808L380.485 74.4978L378.095 76.8441L377.888 77.051L377.681 77.2579V77.8533L377.888 77.6464L378.095 77.4395L381.089 74.4978L381.306 74.2858L381.522 74.0739H380.922V74.0688ZM377.677 79.6093V80.0382H389.936V79.6093H377.677Z" fill="white"/>
<path d="M381.178 85.8359L378.345 88.4498L378.114 88.6667H377.888V82.5964L378.094 82.8033L381.178 85.8359Z" fill="white"/>
<path d="M388.643 88.4498L388.874 88.6668H378.739L378.97 88.4498L381.478 86.1287L383.809 88.4195L386.135 86.1287L388.643 88.4498Z" fill="white"/>
<path d="M389.725 82.6016V88.6668H389.499L389.268 88.4498L386.435 85.836L389.518 82.8034L389.725 82.6016Z" fill="white"/>
<path d="M389.726 74.282V82.0074L389.52 82.2092V82.2142L383.81 87.8253L378.096 82.2092L377.889 82.0074V74.282H389.726Z" fill="white"/>
<path d="M386.307 74.2808H381.306L381.089 74.4927H386.528L386.307 74.2808ZM377.888 79.8263V80.0382H377.681V81.7993L377.888 82.0061L378.095 82.213V79.8263H377.888ZM377.888 77.6464V79.6144H378.095V77.4446L377.888 77.6464ZM386.307 74.2808H381.306L381.089 74.4927H386.528L386.307 74.2808ZM377.677 74.0688V81.7993L377.883 82.0061L378.09 82.213V74.4978H389.509V82.213L389.715 82.0061L389.922 81.7993V74.0688H377.677ZM388.874 88.6668L388.643 88.4549H378.97L378.739 88.6668L378.508 88.8787H389.105L388.874 88.6668ZM389.725 82.5965L389.518 82.8034V88.4498H389.268L389.499 88.6618L389.73 88.8737H389.936V82.3947L389.725 82.5965ZM378.095 88.4498V82.8034L377.888 82.5965L377.681 82.3896V88.8787H377.883L378.114 88.6668L378.345 88.4549H378.095V88.4498ZM377.677 80.0382V81.7993L377.883 82.0061L378.09 82.213V80.0433H377.677V80.0382ZM386.307 74.2808H381.306L381.089 74.4927H386.528L386.307 74.2808Z" fill="#FBB03B"/>
<path d="M377.883 88.8788L375.577 91.0082V80.3259L377.677 82.3948L377.888 82.5966L378.095 82.8035L381.178 85.8361L378.345 88.4499L378.114 88.6669L377.883 88.8788Z" fill="#FBB03B"/>
<path d="M389.105 88.879L391.702 91.2758H375.911L378.508 88.879L378.739 88.667L378.97 88.45L381.478 86.1289L383.809 88.4198L386.135 86.1289L388.643 88.45L388.874 88.667L389.105 88.879Z" fill="#FBB03B"/>
<path d="M392.036 80.3259V91.0082L389.73 88.8788L389.499 88.6669L389.268 88.4499L386.435 85.8361L389.518 82.8035L389.725 82.6017V82.5966L389.936 82.3948L392.036 80.3259Z" fill="#FBB03B"/>
<path d="M377.888 82.5966L378.095 82.8035L377.888 82.5966ZM377.677 82.3948L377.883 82.6017L377.677 82.3948Z" fill="white"/>
<path d="M388.018 76.4455H381.306C381.227 76.4455 381.163 76.3799 381.163 76.2992C381.163 76.2184 381.227 76.1528 381.306 76.1528H388.018C388.097 76.1528 388.161 76.2184 388.161 76.2992C388.166 76.3799 388.102 76.4455 388.018 76.4455Z" fill="#FBB03B"/>
<path d="M388.018 77.7575H379.594C379.516 77.7575 379.452 77.6919 379.452 77.6112C379.452 77.5304 379.516 77.4648 379.594 77.4648H388.018C388.097 77.4648 388.161 77.5304 388.161 77.6112C388.166 77.6919 388.102 77.7575 388.018 77.7575Z" fill="#FBB03B"/>
<path d="M388.018 79.0744H379.594C379.516 79.0744 379.452 79.0088 379.452 78.9281C379.452 78.8473 379.516 78.7817 379.594 78.7817H388.018C388.097 78.7817 388.161 78.8473 388.161 78.9281C388.166 79.0088 388.102 79.0744 388.018 79.0744Z" fill="#FBB03B"/>
<path d="M388.018 80.3864H381.306C381.227 80.3864 381.163 80.3208 381.163 80.2401C381.163 80.1593 381.227 80.0938 381.306 80.0938H388.018C388.097 80.0938 388.161 80.1593 388.161 80.2401C388.166 80.3208 388.102 80.3864 388.018 80.3864Z" fill="#FBB03B"/>
<path d="M388.018 81.6984H379.594C379.516 81.6984 379.452 81.6328 379.452 81.5521C379.452 81.4714 379.516 81.4058 379.594 81.4058H388.018C388.097 81.4058 388.161 81.4714 388.161 81.5521C388.166 81.6328 388.102 81.6984 388.018 81.6984Z" fill="#FBB03B"/>
<path d="M388.018 83.0153H379.594C379.516 83.0153 379.452 82.9497 379.452 82.869C379.452 82.7883 379.516 82.7227 379.594 82.7227H388.018C388.097 82.7227 388.161 82.7883 388.161 82.869C388.161 82.9497 388.102 83.0153 388.018 83.0153Z" fill="#FBB03B"/>
</g>
<defs>
<linearGradient id="paint0_linear_4731_1340" x1="309.738" y1="89.4936" x2="309.738" y2="78.4151" gradientUnits="userSpaceOnUse">
<stop stop-color="#DCDBDB"/>
<stop offset="0.0426716" stop-color="#EAEAEA"/>
<stop offset="0.4453" stop-color="#C4C4C4"/>
<stop offset="0.7941" stop-color="#AEB3B5"/>
<stop offset="1" stop-color="#CFD0D0"/>
</linearGradient>
<linearGradient id="paint1_linear_4731_1340" x1="383.806" y1="87.8271" x2="383.806" y2="79.8259" gradientUnits="userSpaceOnUse">
<stop stop-color="#DCDBDB"/>
<stop offset="0.0426716" stop-color="#EAEAEA"/>
<stop offset="0.4453" stop-color="#C4C4C4"/>
<stop offset="0.7941" stop-color="#AEB3B5"/>
<stop offset="1" stop-color="#CFD0D0"/>
</linearGradient>
<clipPath id="clip0_4731_1340">
<rect width="26.9338" height="17.9559" fill="white" transform="translate(365.102 154.121)"/>
</clipPath>
<clipPath id="clip1_4731_1340">
<rect width="31.4227" height="20.9485" fill="white" transform="translate(291.783 136.166)"/>
</clipPath>
<clipPath id="clip2_4731_1340">
<rect width="25.4375" height="17.9559" fill="white" transform="translate(330.687 109.232)"/>
</clipPath>
<clipPath id="clip3_4731_1340">
<rect width="23.9411" height="26.9338" fill="white" transform="translate(297.768 67.3347)"/>
</clipPath>
<clipPath id="clip4_4731_1340">
<rect width="16.4595" height="19.4522" fill="white" transform="translate(375.577 71.8235)"/>
</clipPath>
</defs>
</svg>
