<svg width="435" height="248" viewBox="0 0 435 248" fill="none" xmlns="http://www.w3.org/2000/svg">
<rect width="435" height="248" rx="30" fill="#57B0AF"/>
<path d="M52.754 76H54.914L54.212 63.868H51.332L49.658 68.728C49.19 70.15 48.776 71.644 48.452 72.958H48.398C48.092 71.608 47.714 70.168 47.282 68.746L45.698 63.868H42.782L41.972 76H44.042L44.312 71.122C44.402 69.466 44.474 67.54 44.528 65.956H44.564C44.888 67.468 45.32 69.124 45.788 70.672L47.408 75.856H49.1L50.882 70.6C51.422 69.07 51.926 67.432 52.322 65.956H52.376C52.358 67.594 52.448 69.484 52.52 71.05L52.754 76ZM61.1426 67.036C58.4966 67.036 56.6066 68.8 56.6066 71.68C56.6066 74.506 58.5326 76.198 60.9986 76.198C63.2306 76.198 65.4986 74.758 65.4986 71.536C65.4986 68.872 63.7526 67.036 61.1426 67.036ZM61.0886 68.638C62.6006 68.638 63.2126 70.222 63.2126 71.59C63.2126 73.372 62.3306 74.596 61.0706 74.596C59.7386 74.596 58.8926 73.318 58.8926 71.626C58.8926 70.168 59.5226 68.638 61.0886 68.638ZM67.3247 76H69.5387V70.834C69.5387 70.582 69.5747 70.312 69.6467 70.132C69.8807 69.466 70.4927 68.836 71.3747 68.836C72.5807 68.836 73.0487 69.79 73.0487 71.05V76H75.2627V70.798C75.2627 68.026 73.6787 67.036 72.1487 67.036C70.6907 67.036 69.7367 67.864 69.3407 68.548H69.2867L69.1787 67.234H67.2527C67.2887 67.99 67.3247 68.836 67.3247 69.844V76ZM85.0595 72.238C85.0955 72.04 85.1315 71.716 85.1315 71.302C85.1315 69.376 84.1955 67.036 81.3515 67.036C78.5435 67.036 77.0675 69.322 77.0675 71.752C77.0675 74.434 78.7415 76.18 81.5855 76.18C82.8455 76.18 83.8895 75.946 84.6455 75.622L84.3215 74.11C83.6375 74.344 82.9175 74.506 81.8915 74.506C80.4695 74.506 79.2455 73.822 79.1915 72.238H85.0595ZM79.1915 70.69C79.2815 69.79 79.8575 68.548 81.2255 68.548C82.7015 68.548 83.0615 69.88 83.0435 70.69H79.1915ZM85.81 67.234L89.032 75.28C89.122 75.496 89.14 75.622 89.14 75.712C89.14 75.82 89.104 75.946 89.014 76.108C88.708 76.702 88.222 77.224 87.79 77.494C87.34 77.818 86.89 78.016 86.512 78.106L87.016 79.96C87.556 79.888 88.456 79.6 89.338 78.844C90.364 77.944 91.174 76.486 92.38 73.21L94.576 67.234H92.218L90.85 71.914C90.67 72.472 90.508 73.138 90.382 73.624H90.328C90.202 73.138 90.004 72.472 89.824 71.932L88.258 67.234H85.81ZM110.147 76H112.307L111.605 63.868H108.725L107.051 68.728C106.583 70.15 106.169 71.644 105.845 72.958H105.791C105.485 71.608 105.107 70.168 104.675 68.746L103.091 63.868H100.175L99.3646 76H101.435L101.705 71.122C101.795 69.466 101.867 67.54 101.921 65.956H101.957C102.281 67.468 102.713 69.124 103.181 70.672L104.801 75.856H106.493L108.275 70.6C108.815 69.07 109.319 67.432 109.715 65.956H109.769C109.751 67.594 109.841 69.484 109.913 71.05L110.147 76ZM121.344 70.744C121.344 68.818 120.534 67.036 117.726 67.036C116.34 67.036 115.206 67.414 114.558 67.81L114.99 69.25C115.584 68.872 116.484 68.602 117.348 68.602C118.896 68.602 119.13 69.556 119.13 70.132V70.276C115.89 70.258 113.928 71.392 113.928 73.588C113.928 74.92 114.918 76.198 116.682 76.198C117.834 76.198 118.752 75.712 119.274 75.028H119.328L119.49 76H121.488C121.38 75.46 121.344 74.686 121.344 73.894V70.744ZM119.184 72.922C119.184 73.084 119.184 73.246 119.13 73.408C118.914 74.038 118.284 74.614 117.384 74.614C116.682 74.614 116.124 74.218 116.124 73.354C116.124 72.022 117.618 71.698 119.184 71.716V72.922ZM125.894 63.22H123.68V76H125.894V73.012L126.632 72.13L129.152 76H131.87L128.162 70.816L131.42 67.234H128.756L126.614 70.06C126.398 70.366 126.146 70.744 125.93 71.086H125.894V63.22ZM140.149 72.238C140.185 72.04 140.221 71.716 140.221 71.302C140.221 69.376 139.285 67.036 136.441 67.036C133.633 67.036 132.157 69.322 132.157 71.752C132.157 74.434 133.831 76.18 136.675 76.18C137.935 76.18 138.979 75.946 139.735 75.622L139.411 74.11C138.727 74.344 138.007 74.506 136.981 74.506C135.559 74.506 134.335 73.822 134.281 72.238H140.149ZM134.281 70.69C134.371 69.79 134.947 68.548 136.315 68.548C137.791 68.548 138.151 69.88 138.133 70.69H134.281ZM145.813 76H153.013V74.146H148.027V63.868H145.813V76ZM161.404 70.744C161.404 68.818 160.594 67.036 157.786 67.036C156.4 67.036 155.266 67.414 154.618 67.81L155.05 69.25C155.644 68.872 156.544 68.602 157.408 68.602C158.956 68.602 159.19 69.556 159.19 70.132V70.276C155.95 70.258 153.988 71.392 153.988 73.588C153.988 74.92 154.978 76.198 156.742 76.198C157.894 76.198 158.812 75.712 159.334 75.028H159.388L159.55 76H161.548C161.44 75.46 161.404 74.686 161.404 73.894V70.744ZM159.244 72.922C159.244 73.084 159.244 73.246 159.19 73.408C158.974 74.038 158.344 74.614 157.444 74.614C156.742 74.614 156.184 74.218 156.184 73.354C156.184 72.022 157.678 71.698 159.244 71.716V72.922ZM163.201 75.568C163.849 75.928 164.803 76.18 165.865 76.18C168.187 76.18 169.429 75.028 169.429 73.426C169.411 72.13 168.691 71.32 167.089 70.762C165.973 70.348 165.559 70.096 165.559 69.538C165.559 68.998 165.991 68.602 166.783 68.602C167.557 68.602 168.277 68.89 168.637 69.106L169.087 67.558C168.565 67.27 167.719 67.036 166.747 67.036C164.713 67.036 163.435 68.224 163.435 69.772C163.435 70.816 164.137 71.752 165.847 72.328C166.927 72.724 167.287 73.012 167.287 73.606C167.287 74.182 166.855 74.596 165.883 74.596C165.091 74.596 164.137 74.254 163.651 73.948L163.201 75.568ZM171.607 65.596V67.234H170.365V68.89H171.607V73.012C171.607 74.164 171.823 74.974 172.309 75.478C172.723 75.928 173.389 76.198 174.217 76.198C174.901 76.198 175.495 76.09 175.819 75.964L175.783 74.29C175.531 74.362 175.315 74.38 174.919 74.38C174.073 74.38 173.785 73.84 173.785 72.76V68.89H175.891V67.234H173.785V64.984L171.607 65.596Z" fill="white"/>
<path d="M41.4721 51.309C42.3841 51.861 44.0881 52.389 46.1041 52.389C50.0641 52.389 52.4881 50.373 52.4881 47.637C52.4881 45.573 50.9761 44.157 49.1041 43.821V43.773C51.0241 43.125 51.9601 41.805 51.9601 40.149C51.9601 38.013 50.1121 36.261 46.8001 36.261C44.7601 36.261 42.9121 36.837 41.9761 37.437L42.7201 40.077C43.3441 39.693 44.6881 39.141 45.9601 39.141C47.5201 39.141 48.2641 39.837 48.2641 40.773C48.2641 42.093 46.7281 42.573 45.5041 42.573H44.0641V45.189H45.5521C47.1601 45.189 48.6961 45.885 48.6961 47.445C48.6961 48.597 47.7361 49.509 45.8401 49.509C44.3521 49.509 42.8641 48.909 42.2161 48.549L41.4721 51.309ZM60.5926 36.261C56.5606 36.261 54.6646 39.813 54.6646 44.349C54.6886 48.765 56.4646 52.389 60.4966 52.389C64.4566 52.389 66.4006 49.053 66.4006 44.253C66.4006 39.981 64.7446 36.261 60.5926 36.261ZM60.5446 39.021C62.0086 39.021 62.7526 40.845 62.7526 44.301C62.7526 47.853 61.9846 49.629 60.5686 49.629C59.1766 49.629 58.3126 47.925 58.3126 44.349C58.3126 40.701 59.2246 39.021 60.5446 39.021ZM73.6206 52.053C74.5086 52.173 75.8766 52.293 77.7726 52.293C80.9406 52.293 83.5566 51.621 85.2606 50.205C86.7966 48.885 87.9246 46.749 87.9246 43.653C87.9246 40.797 86.8686 38.805 85.1886 37.557C83.6526 36.405 81.6366 35.829 78.5406 35.829C76.7166 35.829 74.9646 35.973 73.6206 36.189V52.053ZM77.2686 38.781C77.5806 38.709 78.1326 38.637 78.9246 38.637C82.0926 38.637 84.0606 40.413 84.0606 43.773C84.0606 47.637 81.8766 49.461 78.5406 49.437C78.1086 49.437 77.5806 49.437 77.2686 49.365V38.781ZM99.9796 45.189C99.9796 42.405 98.7556 40.101 94.8436 40.101C92.7076 40.101 91.0996 40.701 90.2836 41.157L90.9556 43.509C91.7236 43.029 92.9956 42.621 94.1956 42.621C95.9956 42.621 96.3316 43.509 96.3316 44.157V44.301C92.1796 44.301 89.4436 45.741 89.4436 48.789C89.4436 50.661 90.8596 52.389 93.2356 52.389C94.6276 52.389 95.8276 51.885 96.5956 50.949H96.6676L96.8836 52.125H100.172C100.028 51.477 99.9796 50.397 99.9796 49.293V45.189ZM96.4516 47.853C96.4516 48.069 96.4276 48.285 96.3796 48.477C96.1396 49.221 95.3716 49.821 94.4836 49.821C93.6676 49.821 93.0436 49.365 93.0436 48.429C93.0436 47.037 94.5316 46.581 96.4516 46.581V47.853ZM101.29 40.389L105.61 51.141C105.73 51.429 105.754 51.597 105.754 51.741C105.754 51.885 105.682 52.077 105.562 52.269C105.226 52.845 104.602 53.445 104.05 53.733C103.498 54.045 102.922 54.261 102.466 54.357L103.258 57.429C104.17 57.333 105.514 56.925 106.762 55.821C108.082 54.645 109.21 52.797 110.89 48.117L113.626 40.389H109.738L108.274 46.149C108.106 46.845 107.914 47.709 107.77 48.357H107.674C107.53 47.733 107.29 46.845 107.098 46.173L105.346 40.389H101.29ZM114.125 51.549C115.013 52.029 116.381 52.389 117.917 52.389C121.277 52.389 122.981 50.781 122.981 48.573C122.957 46.869 122.045 45.717 119.813 44.949C118.373 44.445 117.917 44.157 117.917 43.581C117.917 43.005 118.421 42.645 119.309 42.645C120.293 42.645 121.325 43.029 121.853 43.317L122.477 40.797C121.757 40.437 120.557 40.101 119.189 40.101C116.285 40.101 114.413 41.757 114.413 43.965C114.389 45.357 115.325 46.677 117.773 47.493C119.117 47.949 119.477 48.237 119.477 48.861C119.477 49.461 119.021 49.821 117.917 49.821C116.837 49.821 115.445 49.365 114.773 48.957L114.125 51.549Z" fill="white"/>
<rect x="38" y="173" width="109.655" height="45.79" rx="10" fill="white"/>
<path d="M133 192.5L126 199.5L119 192.5" stroke="#130F26" stroke-width="1.5" stroke-linecap="round" stroke-linejoin="round"/>
<path d="M54.676 194.204C55.3853 194.372 55.9593 194.703 56.398 195.198C56.846 195.683 57.07 196.295 57.07 197.032C57.07 198.012 56.7387 198.782 56.076 199.342C55.4133 199.902 54.6013 200.182 53.64 200.182C52.8933 200.182 52.2213 200.009 51.624 199.664C51.036 199.319 50.6113 198.815 50.35 198.152L51.722 197.354C52.0113 198.194 52.6507 198.614 53.64 198.614C54.2 198.614 54.6433 198.474 54.97 198.194C55.2967 197.905 55.46 197.517 55.46 197.032C55.46 196.547 55.2967 196.164 54.97 195.884C54.6433 195.604 54.2 195.464 53.64 195.464H53.276L52.632 194.498L54.746 191.712H50.644V190.2H56.664V191.572L54.676 194.204ZM64.7985 198.796C64.1265 199.72 63.1839 200.182 61.9705 200.182C60.7572 200.182 59.8099 199.72 59.1285 198.796C58.4565 197.872 58.1205 196.64 58.1205 195.1C58.1205 193.56 58.4565 192.328 59.1285 191.404C59.8099 190.48 60.7572 190.018 61.9705 190.018C63.1839 190.018 64.1265 190.48 64.7985 191.404C65.4799 192.328 65.8205 193.56 65.8205 195.1C65.8205 196.64 65.4799 197.872 64.7985 198.796ZM61.9705 198.614C62.6985 198.614 63.2539 198.311 63.6365 197.704C64.0192 197.097 64.2105 196.229 64.2105 195.1C64.2105 193.971 64.0192 193.103 63.6365 192.496C63.2539 191.889 62.6985 191.586 61.9705 191.586C61.2519 191.586 60.6965 191.889 60.3045 192.496C59.9219 193.103 59.7305 193.971 59.7305 195.1C59.7305 196.229 59.9219 197.097 60.3045 197.704C60.6965 198.311 61.2519 198.614 61.9705 198.614ZM78.4049 192.818C79.1982 192.818 79.8376 193.075 80.3229 193.588C80.8082 194.101 81.0509 194.792 81.0509 195.66V200H79.5389V195.758C79.5389 195.273 79.4176 194.899 79.1749 194.638C78.9322 194.367 78.6009 194.232 78.1809 194.232C77.7142 194.232 77.3409 194.386 77.0609 194.694C76.7902 195.002 76.6549 195.464 76.6549 196.08V200H75.1429V195.758C75.1429 195.273 75.0262 194.899 74.7929 194.638C74.5689 194.367 74.2469 194.232 73.8269 194.232C73.3696 194.232 72.9962 194.391 72.7069 194.708C72.4176 195.016 72.2729 195.473 72.2729 196.08V200H70.7609V193H72.2729V193.84C72.7209 193.159 73.3882 192.818 74.2749 192.818C75.1709 192.818 75.8336 193.187 76.2629 193.924C76.7296 193.187 77.4436 192.818 78.4049 192.818ZM85.9731 200.182C84.9464 200.182 84.0738 199.827 83.3551 199.118C82.6364 198.409 82.2771 197.536 82.2771 196.5C82.2771 195.464 82.6364 194.591 83.3551 193.882C84.0738 193.173 84.9464 192.818 85.9731 192.818C87.0091 192.818 87.8818 193.173 88.5911 193.882C89.3098 194.591 89.6691 195.464 89.6691 196.5C89.6691 197.536 89.3098 198.409 88.5911 199.118C87.8818 199.827 87.0091 200.182 85.9731 200.182ZM84.4191 198.082C84.8391 198.502 85.3571 198.712 85.9731 198.712C86.5891 198.712 87.1071 198.502 87.5271 198.082C87.9471 197.662 88.1571 197.135 88.1571 196.5C88.1571 195.865 87.9471 195.338 87.5271 194.918C87.1071 194.498 86.5891 194.288 85.9731 194.288C85.3571 194.288 84.8391 194.498 84.4191 194.918C83.9991 195.338 83.7891 195.865 83.7891 196.5C83.7891 197.135 83.9991 197.662 84.4191 198.082ZM92.5483 194.176C92.931 193.308 93.6496 192.874 94.7043 192.874V194.512C94.1256 194.475 93.6216 194.615 93.1923 194.932C92.763 195.24 92.5483 195.753 92.5483 196.472V200H91.0363V193H92.5483V194.176ZM96.6833 197.144C96.7953 197.676 97.052 198.087 97.4533 198.376C97.8547 198.656 98.3447 198.796 98.9233 198.796C99.726 198.796 100.328 198.507 100.729 197.928L101.975 198.656C101.285 199.673 100.263 200.182 98.9093 200.182C97.7707 200.182 96.8513 199.837 96.1513 199.146C95.4513 198.446 95.1013 197.564 95.1013 196.5C95.1013 195.455 95.4467 194.582 96.1373 193.882C96.828 193.173 97.7147 192.818 98.7973 192.818C99.824 192.818 100.664 193.177 101.317 193.896C101.98 194.615 102.311 195.487 102.311 196.514C102.311 196.673 102.293 196.883 102.255 197.144H96.6833ZM96.6693 195.912H100.785C100.683 195.343 100.445 194.913 100.071 194.624C99.7073 194.335 99.278 194.19 98.7833 194.19C98.2233 194.19 97.7567 194.344 97.3833 194.652C97.01 194.96 96.772 195.38 96.6693 195.912Z" fill="#18243C"/>
<path d="M49.9049 135.855V131.735C54.5049 130.975 56.9849 127.935 56.9849 124.375C56.9849 120.735 55.1049 118.535 50.3449 116.855C46.9049 115.615 45.5049 114.735 45.5049 113.455C45.5049 112.335 46.3449 111.175 48.9449 111.175C51.8249 111.175 53.7049 112.095 54.7049 112.575L55.9049 108.055C54.5049 107.415 52.7049 106.815 50.0649 106.735V103.215H46.1449V107.015C41.8649 107.815 39.3849 110.575 39.3849 114.135C39.3849 118.015 42.3049 120.015 46.5849 121.455C49.5849 122.455 50.8649 123.415 50.8649 124.935C50.8649 126.495 49.3049 127.415 46.9849 127.415C44.3849 127.415 42.0249 126.575 40.3449 125.655L39.1449 130.335C40.6649 131.175 43.2649 131.935 45.9449 132.055V135.855H49.9049ZM68.5724 132.375H74.4524V106.375H69.4524L62.5324 109.575L63.5324 114.135L68.4924 111.775H68.5724V132.375ZM92.5199 105.935C85.7999 105.935 82.6399 111.855 82.6399 119.415C82.6799 126.775 85.6399 132.815 92.3599 132.815C98.9599 132.815 102.2 127.255 102.2 119.255C102.2 112.135 99.4399 105.935 92.5199 105.935ZM92.4399 110.535C94.8799 110.535 96.1199 113.575 96.1199 119.335C96.1199 125.255 94.8399 128.215 92.4799 128.215C90.1599 128.215 88.7199 125.375 88.7199 119.415C88.7199 113.335 90.2399 110.535 92.4399 110.535ZM107.067 132.735C107.747 132.775 108.827 132.815 109.827 132.735C113.867 132.575 117.307 131.375 119.787 129.135C122.627 126.495 124.347 122.575 124.347 117.135C124.347 111.055 121.187 105.935 114.507 105.935C108.787 105.935 104.707 110.215 104.707 115.295C104.707 120.375 108.387 123.415 112.787 123.415C115.147 123.415 116.867 122.735 118.027 121.535L118.107 121.575C117.667 123.535 116.547 125.255 114.827 126.415C113.467 127.375 111.587 127.895 109.707 128.015C108.507 128.055 107.867 128.095 107.067 128.015V132.735ZM114.267 110.375C117.107 110.375 118.147 113.095 118.107 115.855C118.107 116.615 118.027 117.015 117.827 117.415C117.267 118.335 116.107 119.095 114.427 119.095C111.987 119.095 110.747 117.175 110.747 114.935C110.747 112.215 112.227 110.375 114.267 110.375ZM136.895 105.935C130.175 105.935 127.015 111.855 127.015 119.415C127.055 126.775 130.015 132.815 136.735 132.815C143.335 132.815 146.575 127.255 146.575 119.255C146.575 112.135 143.815 105.935 136.895 105.935ZM136.815 110.535C139.255 110.535 140.495 113.575 140.495 119.335C140.495 125.255 139.215 128.215 136.855 128.215C134.535 128.215 133.095 125.375 133.095 119.415C133.095 113.335 134.615 110.535 136.815 110.535ZM153.402 132.815C155.602 132.815 157.042 131.255 157.042 129.135C157.002 126.895 155.562 125.415 153.482 125.415C151.362 125.415 149.882 126.935 149.882 129.135C149.882 131.255 151.362 132.815 153.402 132.815ZM176.473 132.375V126.175H179.553V121.615H176.473V106.375H168.993L159.193 122.215V126.175H170.713V132.375H176.473ZM164.833 121.615L164.873 121.535L168.313 115.855C169.193 114.215 169.913 112.695 170.753 111.015H170.873C170.793 112.695 170.713 114.295 170.713 115.855V121.615H164.833Z" fill="white"/>
<path d="M312.401 211C368.004 211 413.079 207.045 413.079 202.167C413.079 197.288 368.004 193.333 312.401 193.333C256.799 193.333 211.724 197.288 211.724 202.167C211.724 207.045 256.799 211 312.401 211Z" fill="url(#paint0_linear_430_505)"/>
<path opacity="0.3" d="M270.044 180.937C269.71 179.535 269.156 177.471 269.023 177.178C266.375 171.386 260.658 167.303 259.091 160.971C258.611 159.016 258.558 156.885 257.481 155.181C256.405 153.48 253.684 152.592 252.412 154.156C251.101 155.766 251.735 160.1 248.268 159.257C245.618 158.611 245.952 154.117 246.094 152.058C246.215 150.215 246.361 148.253 245.475 146.635C244.586 145.015 242.212 144.085 240.845 145.322C239.458 146.573 239.756 149.287 238.028 149.984C237.018 150.395 235.838 149.781 235.206 148.889C234.577 148.001 234.354 146.9 234.069 145.85C233.079 142.215 231.16 138.836 228.545 136.128C227.641 135.193 226.604 134.309 225.344 133.994C224.082 133.682 222.558 134.108 221.959 135.26C221.061 136.991 222.587 138.928 223.876 140.392C225.166 141.855 226.271 144.251 224.816 145.552C223.593 146.643 221.539 145.796 220.637 144.428C219.737 143.057 219.547 141.355 218.942 139.833C217.75 136.829 214.728 134.341 211.404 134.41C210.364 134.432 209.201 134.785 208.739 135.716C208.28 136.646 208.691 137.778 209.311 138.607C209.93 139.434 210.752 140.112 211.261 141.011C213.092 144.234 208.749 145.532 206.626 143.712C204.817 142.165 204.394 139.637 203.254 137.648C201.632 134.81 198.432 132.949 195.161 132.941C187.987 132.923 186.691 138.736 189.127 144.584C190.412 147.673 192.413 151.023 194.957 153.249C199.232 156.991 204.997 158.977 210.671 158.664C212.22 158.579 213.806 158.335 215.291 158.78C216.777 159.227 218.121 160.648 217.837 162.174C217.302 165.052 212.173 165.062 211.701 167.955C211.453 169.487 212.878 170.884 214.403 171.186C215.925 171.485 217.483 170.992 218.96 170.51C221.653 169.627 224.342 168.74 227.034 167.857C228.117 167.501 229.254 167.143 230.373 167.354C231.492 167.565 232.549 168.565 232.402 169.693C232.185 171.336 229.861 171.877 229.305 173.437C228.807 174.842 230.118 176.371 231.583 176.655C233.048 176.941 234.529 176.354 235.884 175.725C237.474 174.985 243.301 173.235 243.644 176.638C243.735 177.578 242.923 178.332 242.199 178.943C240.807 180.117 240.098 182.646 242.528 183.215C243.514 183.446 244.533 183.133 245.504 182.854C253.164 180.65 261.362 180.352 269.161 181.992C269.541 182.07 269.917 182.149 270.291 182.24C270.341 182.252 270.225 181.691 270.044 180.937Z" fill="url(#paint1_linear_430_505)"/>
<path d="M270.093 134.467C269.472 142.389 274.511 149.307 275.348 157.02C275.389 157.411 275.237 160.01 275.084 161.758C275.004 162.701 274.923 163.394 274.873 163.362C274.475 163.114 274.07 162.877 273.661 162.641C265.275 157.748 255.681 154.942 245.979 154.548C244.75 154.498 243.451 154.468 242.4 153.822C239.81 152.229 241.602 149.578 243.662 148.756C244.733 148.328 245.961 147.768 246.217 146.646C247.129 142.581 239.719 142.365 237.597 142.609C235.788 142.815 233.85 142.924 232.267 142.032C230.683 141.139 229.755 138.869 230.869 137.436C232.111 135.846 235.006 136.113 235.889 134.297C236.493 133.05 235.654 131.489 234.442 130.815C233.23 130.141 231.777 130.117 230.389 130.113C226.937 130.099 223.486 130.091 220.035 130.078C218.141 130.068 216.15 130.039 214.505 129.109C212.859 128.174 211.748 126.011 212.624 124.335C214.281 121.172 220.215 123.131 221.939 120.009C222.853 118.355 221.844 116.195 220.298 115.107C218.753 114.023 216.825 113.695 215.002 113.199C208.322 111.381 202.42 106.87 198.915 100.901C196.83 97.3499 195.804 92.708 195.504 88.6422C194.936 80.9459 198.667 74.7233 206.954 77.5003C210.732 78.7657 213.717 82.1464 214.503 86.0515C215.055 88.7885 214.573 91.8739 216.07 94.357C217.825 97.2761 223.344 97.4438 222.467 93.015C222.224 91.7807 221.534 90.6817 221.136 89.486C220.738 88.2903 220.697 86.8228 221.585 85.9252C222.477 85.0255 223.958 85.0648 225.168 85.4388C229.038 86.6365 231.576 90.6748 231.8 94.6047C231.915 96.5965 231.479 98.6374 231.993 100.568C232.511 102.497 234.559 104.265 236.392 103.474C238.575 102.529 238.217 99.3342 237.289 97.1471C236.361 94.96 235.34 92.1333 237.043 90.4774C238.178 89.3756 240.104 89.4687 241.444 90.3146C242.779 91.1619 243.638 92.5824 244.324 94.0113C246.307 98.1461 247.227 102.79 246.975 107.372C246.901 108.696 246.735 110.056 247.122 111.324C247.51 112.596 248.638 113.761 249.963 113.673C252.229 113.531 252.927 110.278 255.012 109.365C257.067 108.461 259.455 110.448 259.86 112.663C260.263 114.873 259.34 117.085 258.492 119.169C257.537 121.495 255.425 126.562 258.24 128.327C261.925 130.636 262.856 125.381 264.991 124.024C267.062 122.703 269.866 124.775 270.456 127.155C271.047 129.539 270.289 132.023 270.093 134.467Z" fill="#00BEC5"/>
<path d="M275.084 161.758C275.004 162.701 274.922 163.394 274.872 163.362C274.474 163.114 274.069 162.877 273.66 162.641C271.459 156.197 268.421 150.146 264.833 144.339C257.666 132.741 247.565 122.633 235.841 115.646C229.7 111.989 223.015 109.336 216.929 105.599C212.048 102.607 206.394 98.0909 204.794 92.3548C204.696 92.0084 205.19 91.7945 205.37 92.1043C207.476 95.7099 209.632 99.1493 212.985 101.737C216.267 104.27 219.857 106.296 223.549 108.154C229.93 111.365 236.127 114.405 241.987 118.521C247.316 122.264 252.143 126.533 256.52 131.354C264.658 140.322 270.844 150.492 275.084 161.758Z" fill="white"/>
<path opacity="0.3" d="M404.424 144.92L395.119 142.45C395.119 142.45 401.505 141.467 407.54 140.863C410.126 137.456 411.224 135.476 413.347 131.755L402.465 131.762L415.334 128.068C417.135 124.724 418.286 122.331 419.677 119.246L412.669 119.84L421.02 116.047C424.654 107.72 426.127 102.74 426.127 102.74C426.127 102.74 418.633 104.983 411.429 107.747L408.64 117.106L408.107 109.366C403.835 111.091 404.008 110.938 399.238 113.45L396.744 124.425L395.003 115.562C391.863 117.294 390.77 117.945 387.862 120.003L386.008 130.927L384.246 122.422C382.729 123.557 381.276 124.738 379.91 125.964L380.418 137.24L376.657 129.071C374.375 131.201 374.822 131.079 373.196 133.467C372.688 134.214 372.209 134.944 371.753 135.66L372.337 144.32L369.582 138.489C362.793 154.071 365.069 161.958 365.069 161.958C365.069 161.958 372.379 166.599 389.06 157.507L384.57 155.487L393.174 155.1C393.772 154.74 393.174 155.1 393.794 154.706C397.631 152.26 401.185 148.844 404.424 144.92Z" fill="url(#paint2_linear_430_505)"/>
<path d="M408.244 70.3525L400.719 77.1836L407.912 74.1796C407.49 77.9067 407.079 80.8203 406.315 84.9586L393.999 93.2165L405.471 89.5198C404.487 94.161 404.004 96.6221 402.427 101.092C396.269 103.775 389.87 106.979 389.87 106.979L400.519 106.426C398.429 111.66 395.847 116.472 392.623 120.349C392.101 120.972 392.613 120.389 392.101 120.972L383.16 124.297L388.585 124.91C374.068 140.149 364.787 137.728 364.787 137.728C364.787 137.728 364.566 137.397 364.224 136.693C363.973 136.161 363.642 135.407 363.31 134.423C361.974 130.585 360.407 123.232 361.592 111.448L366.474 116.662L362.928 107.732C363.169 106.817 363.42 105.883 363.712 104.929C364.615 101.855 364.184 102.136 365.871 99.1224L372.602 106.456L368.242 94.7427C369.266 92.9847 370.401 91.2467 371.617 89.5391L376.358 97.9074L374.61 85.7624C376.981 82.608 377.915 81.553 380.637 78.6601L385.479 87.4203L384.384 74.9938C388.563 70.7341 388.433 70.9555 392.361 67.6804L395.546 75.6664L395.314 64.8475C401.975 59.4928 409.117 54.5908 409.117 54.5908C409.117 54.5908 409.249 60.347 408.244 70.3525Z" fill="#00BEC5"/>
<path d="M401.314 82.143C399.911 82.4424 398.647 83.449 397.421 84.1707C396.762 84.5585 396.097 84.94 395.434 85.3257C397.589 80.1152 399.407 74.7992 400.679 69.4287C400.71 69.3183 400.539 69.2279 400.479 69.348C397.628 75.652 394.952 81.976 392.115 88.2262C391.971 84.5571 391.523 80.6134 390.509 77.2768C390.412 76.9587 389.983 77.0422 389.954 77.352C389.549 81.6103 390.14 86.4855 390.967 90.7148C388.862 95.2574 386.638 99.7517 384.182 104.165C384.107 102.093 383.559 100.006 383.176 97.9882C382.722 95.592 382.6 92.7281 381.173 90.7052C381.114 90.6217 380.972 90.623 380.944 90.7348C380.37 93.0109 381.208 95.5472 381.617 97.8178C382.077 100.371 382.345 103.13 383.439 105.501C383.334 105.684 383.237 105.871 383.131 106.054C381.87 108.24 380.557 110.387 379.211 112.51C378.259 108.686 376.382 104.521 374.6 101.117C374.409 100.753 373.866 101.009 373.955 101.39C374.902 105.411 376.355 110.205 378.365 113.843C377.052 115.876 375.695 117.876 374.313 119.859C373.576 118.288 372.839 116.719 372.085 115.157C371.304 113.535 370.64 111.755 369.411 110.42C369.275 110.272 368.953 110.377 368.982 110.597C369.206 112.31 370.065 113.883 370.768 115.448C371.627 117.36 372.502 119.264 373.381 121.167C371.938 123.206 370.459 125.218 368.954 127.213C368.126 125.598 367.168 124.023 366.117 122.56C365.998 122.394 365.676 122.486 365.759 122.711C366.442 124.563 367.291 126.395 368.269 128.122C366.65 130.246 364.999 132.348 363.311 134.424C363.643 135.409 363.974 136.162 364.225 136.695C365.944 134.628 367.6 132.508 369.228 130.365C370.396 130.578 371.659 130.174 372.833 129.925C374.847 129.497 376.818 128.811 378.787 128.213C379.099 128.118 378.968 127.67 378.653 127.729C376.539 128.127 374.414 128.302 372.283 128.571C371.655 128.651 371.028 128.676 370.426 128.758C373.547 124.556 376.518 120.24 379.306 115.814C381.494 115.582 383.668 115.076 385.811 114.589C387.928 114.108 390.367 113.789 392.2 112.592C392.475 112.412 392.346 112.039 392.041 112.006C390.025 111.793 387.853 112.496 385.872 112.897C384.064 113.263 382.223 113.582 380.423 114.013C381.713 111.92 382.976 109.811 384.195 107.682C385.302 105.756 386.393 103.789 387.47 101.804C389.088 101.469 390.653 100.622 392.158 99.978C394.006 99.1873 396.225 98.5015 397.729 97.1471C397.869 97.0209 397.76 96.7649 397.574 96.7718C395.548 96.8505 393.466 97.9123 391.592 98.634C390.602 99.0148 389.547 99.3536 388.548 99.7834C390.679 95.7611 392.719 91.6455 394.541 87.441C395.781 86.6228 397.003 85.7693 398.228 84.9324C399.356 84.1617 400.682 83.5001 401.52 82.4072C401.622 82.2727 401.45 82.114 401.314 82.143Z" fill="white"/>
<path d="M379.152 171.561L271.422 191.161L255.458 103.415L363.188 83.8153C366.736 83.1695 370.136 85.5229 370.781 89.0706L384.407 163.968C385.053 167.516 382.7 170.916 379.152 171.561Z" fill="#974D0E"/>
<path d="M368.682 101.597C371.693 88.7143 363.691 75.8301 350.809 72.8189C337.927 69.8077 325.042 77.8098 322.031 90.6921C319.02 103.574 327.022 116.459 339.904 119.47C352.787 122.481 365.671 114.479 368.682 101.597Z" fill="#FFD524"/>
<path d="M364.328 100.578C366.777 90.1008 360.269 79.6219 349.791 77.1728C339.314 74.7238 328.835 81.232 326.386 91.7093C323.937 102.187 330.445 112.666 340.922 115.115C351.4 117.564 361.879 111.055 364.328 100.578Z" fill="#FFB02D"/>
<path d="M363.294 103.773C359.673 112.338 350.303 117.297 340.943 115.108C330.464 112.658 323.954 102.176 326.404 91.6971C327.083 88.7904 328.376 86.1983 330.117 84.0222C329.677 85.0343 329.319 86.1079 329.057 87.2256C326.607 97.7044 333.118 108.187 343.596 110.637C351.178 112.41 358.752 109.496 363.294 103.773Z" fill="#F89723"/>
<path d="M345.397 105.746L344.466 109.729L341.003 108.92L341.94 104.912C339.573 104.001 337.441 102.432 336.031 100.592L338.75 97.3015C340.247 99.3541 342.816 101.162 344.717 101.607C346.122 101.935 347.13 101.621 347.355 100.659C348.079 97.5609 338.035 97.189 339.544 90.7339C340.219 87.8445 342.77 86.3266 346.23 86.5591L347.125 82.732L350.588 83.5413L349.699 87.3415C351.778 88.0749 353.639 89.2789 354.943 90.627L352.264 93.9815C350.593 92.4381 348.347 91.0072 346.837 90.6539C345.693 90.3862 344.84 90.6263 344.645 91.4591C343.939 94.4783 353.947 95.0061 352.413 101.567C351.666 104.769 348.78 106.071 345.397 105.746Z" fill="#FFD524"/>
<path opacity="0.2" d="M345.061 84.6239C345.165 86.6012 346.023 88.4765 347.159 90.0986C349.136 92.9225 352.004 95.1124 355.249 96.2756C356.249 96.6344 357.302 96.9 358.364 96.8524C361.572 96.7096 362.562 93.4827 361.916 90.763C361.104 87.3443 358.82 84.1644 356.126 81.9593C353.904 80.1406 349.193 77.6506 346.571 80.0316C345.374 81.1196 344.98 83.0667 345.061 84.6239Z" fill="white"/>
<path d="M298.146 98.7043C309.319 96.6316 316.696 85.8942 314.623 74.7216C312.55 63.549 301.813 56.172 290.64 58.2447C279.468 60.3175 272.091 71.0549 274.163 82.2275C276.236 93.4001 286.974 100.777 298.146 98.7043Z" fill="#FFD524"/>
<path d="M297.446 94.9267C306.532 93.241 312.532 84.5083 310.846 75.4218C309.16 66.3352 300.428 60.3356 291.341 62.0213C282.254 63.707 276.255 72.4397 277.941 81.5263C279.626 90.6129 288.359 96.6125 297.446 94.9267Z" fill="#FFB02D"/>
<path d="M311.127 78.3171C311.231 86.3032 305.57 93.4344 297.452 94.9406C288.365 96.6261 279.629 90.6243 277.944 81.537C277.476 79.016 277.599 76.5315 278.218 74.2195C278.221 75.1675 278.309 76.1355 278.489 77.1049C280.175 86.1921 288.91 92.1939 297.998 90.5084C304.573 89.2886 309.526 84.3858 311.127 78.3171Z" fill="#F89723"/>
<path d="M297.728 86.0404L298.369 89.4942L295.366 90.0517L294.721 86.5751C292.545 86.6751 290.327 86.1756 288.583 85.2145L289.587 81.6889C291.473 82.7873 294.117 83.3241 295.766 83.0184C296.985 82.7921 297.669 82.1981 297.514 81.3633C297.016 78.6766 288.987 81.8469 287.948 76.2487C287.483 73.7422 288.967 71.6696 291.769 70.6588L291.153 67.3402L294.156 66.7834L294.768 70.0793C296.657 69.9392 298.535 70.2448 300.025 70.8561L299.075 74.4183C297.229 73.7801 294.969 73.4289 293.658 73.6718C292.665 73.856 292.078 74.3383 292.212 75.0613C292.697 77.6804 300.752 74.6446 301.807 80.3339C302.323 83.1095 300.501 85.129 297.728 86.0404Z" fill="#FFD524"/>
<path opacity="0.2" d="M290.182 69.5398C290.945 71.0597 292.267 72.2388 293.719 73.1234C296.248 74.6633 299.259 75.3967 302.213 75.1932C303.124 75.1304 304.043 74.9765 304.862 74.5729C307.337 73.3545 307.003 70.4754 305.557 68.558C303.74 66.1487 300.846 64.4349 297.966 63.6284C295.592 62.964 291.027 62.6293 289.786 65.4063C289.219 66.6752 289.581 68.3427 290.182 69.5398Z" fill="white"/>
<path d="M254.276 87.3025C262.635 83.311 266.175 73.2989 262.184 64.9398C258.192 56.5807 248.18 53.04 239.821 57.0315C231.462 61.023 227.921 71.0352 231.913 79.3943C235.904 87.7534 245.916 91.2941 254.276 87.3025Z" fill="#FFD524"/>
<path d="M252.927 84.4768C259.725 81.2303 262.605 73.0872 259.359 66.2885C256.112 59.4898 247.969 56.6101 241.17 59.8565C234.372 63.1029 231.492 71.2461 234.738 78.0448C237.985 84.8435 246.128 87.7232 252.927 84.4768Z" fill="#FFB02D"/>
<path d="M260.184 68.5082C261.953 74.7735 259.001 81.584 252.928 84.4845C246.129 87.7307 237.983 84.8501 234.737 78.0514C233.836 76.1651 233.408 74.1829 233.408 72.2318C233.61 72.9776 233.884 73.7214 234.23 74.4465C237.476 81.2459 245.622 84.1264 252.421 80.8795C257.34 78.5303 260.205 73.6241 260.184 68.5082Z" fill="#F89723"/>
<path d="M251.265 77.4188L252.499 80.0033L250.252 81.0762L249.01 78.4751C247.318 79.0133 245.466 79.0885 243.89 78.7001L243.936 75.7119C245.653 76.1783 247.849 76.0424 249.082 75.4539C249.994 75.0185 250.407 74.4059 250.109 73.7815C249.149 71.7717 243.497 75.9637 241.497 71.7744C240.601 69.8992 241.331 67.9535 243.324 66.5667L242.138 64.0836L244.385 63.0108L245.563 65.4766C247.021 64.9674 248.564 64.8115 249.867 64.9778L249.871 67.9832C248.282 67.8707 246.429 68.0715 245.449 68.5393C244.706 68.8939 244.345 69.3982 244.603 69.9385C245.539 71.8979 251.239 67.8065 253.272 72.0635C254.263 74.1409 253.256 76.1155 251.265 77.4188Z" fill="#FFD524"/>
<path opacity="0.2" d="M241.838 66.021C242.76 67.0566 244.05 67.7058 245.38 68.0949C247.696 68.7732 250.222 68.7152 252.505 67.9307C253.209 67.6893 253.9 67.3733 254.461 66.8827C256.152 65.4007 255.281 63.2039 253.738 62C251.797 60.4869 249.158 59.7487 246.72 59.7218C244.71 59.6997 241.045 60.4007 240.654 62.8493C240.475 63.9684 241.112 65.2055 241.838 66.021Z" fill="white"/>
<path d="M381.222 182.941L273.491 202.541L257.527 114.795L365.258 95.1952C368.806 94.5494 372.206 96.9028 372.851 100.45L386.477 175.348C387.123 178.896 384.77 182.296 381.222 182.941Z" fill="url(#paint3_linear_430_505)"/>
<path opacity="0.3" d="M372.851 100.45L374.291 108.367C373.646 104.818 370.247 102.466 366.698 103.112L258.968 122.711L257.527 114.795L365.258 95.1952C368.806 94.5494 372.206 96.9021 372.851 100.45Z" fill="url(#paint4_linear_430_505)"/>
<path d="M383.181 148.108L345.748 154.919L341.927 133.916L379.36 127.106C381.339 126.746 383.235 128.058 383.595 130.037L386.113 143.873C386.472 145.853 385.16 147.749 383.181 148.108Z" fill="#CB7319"/>
<path d="M355.321 147.335C358.005 146.847 359.785 144.275 359.297 141.592C358.808 138.908 356.237 137.128 353.553 137.616C350.869 138.105 349.09 140.676 349.578 143.36C350.066 146.044 352.638 147.823 355.321 147.335Z" fill="#532C00"/>
<path d="M352.716 140.767C352.956 141.31 353.422 141.715 353.885 142.088C354.439 142.534 355.037 142.974 355.737 143.098C356.438 143.222 357.262 142.928 357.522 142.266C357.736 141.722 357.519 141.098 357.192 140.612C356.538 139.642 355.419 139.01 354.26 138.903C353.1 138.797 352.146 139.472 352.716 140.767Z" fill="#774206"/>
<path d="M276.942 187.462H230.903H228.14V192.606C228.14 198.915 239.683 204.028 253.927 204.028C268.162 204.028 279.705 198.915 279.705 192.606V187.462H276.942Z" fill="#CB7319"/>
<path d="M279.703 187.256V190.561C279.703 196.87 268.16 201.983 253.925 201.983C239.681 201.983 228.138 196.87 228.138 190.561V187.457C228.138 186.764 228.279 186.081 228.56 185.418H279.29C279.542 186.01 279.683 186.633 279.703 187.256Z" fill="#F89723"/>
<path d="M279.714 187.457C279.714 187.527 279.714 187.587 279.704 187.658C279.473 193.876 268.011 198.879 253.926 198.879C239.682 198.879 228.139 193.766 228.139 187.457C228.139 186.764 228.28 186.081 228.561 185.418C230.721 180.083 241.258 176.035 253.926 176.035C266.584 176.035 277.132 180.084 279.292 185.418C279.543 186.01 279.684 186.633 279.704 187.256C279.714 187.327 279.714 187.387 279.714 187.457Z" fill="#FFD524"/>
<path d="M253.926 196.748C265.507 196.748 274.896 192.589 274.896 187.458C274.896 182.328 265.507 178.168 253.926 178.168C242.344 178.168 232.956 182.328 232.956 187.458C232.956 192.589 242.344 196.748 253.926 196.748Z" fill="#FFB02D"/>
<path d="M274.574 189.06C272.877 193.431 264.272 196.75 253.926 196.75C242.344 196.75 232.952 192.59 232.952 187.458C232.952 186.034 233.671 184.69 234.963 183.491C234.75 184.009 234.637 184.546 234.637 185.094C234.637 190.225 244.029 194.386 255.612 194.386C263.992 194.386 271.215 192.211 274.574 189.06Z" fill="#F89723"/>
<path d="M256.299 190.915V192.865H252.472V190.903C249.768 190.737 247.149 190.24 245.22 189.539L247.263 187.716C249.336 188.506 252.472 189.067 254.573 189.067C256.126 189.067 257.105 188.812 257.105 188.341C257.105 186.824 246.486 187.741 246.486 184.58C246.486 183.165 248.788 182.183 252.471 181.915V180.041H256.299V181.903C258.658 182.017 260.903 182.375 262.599 182.859L260.614 184.708C258.485 184.172 255.781 183.751 254.111 183.751C252.846 183.751 252.011 183.956 252.011 184.363C252.011 185.842 262.629 185.001 262.629 188.213C262.63 189.78 259.924 190.698 256.299 190.915Z" fill="#FFD524"/>
<path opacity="0.2" d="M250.772 182.149C251.366 183.055 252.724 183.833 254.312 184.463C257.076 185.559 260.619 186.265 264.305 186.453C265.441 186.51 266.609 186.519 267.711 186.382C271.039 185.967 271.286 184.362 269.942 183.169C268.254 181.67 265.08 180.441 261.716 179.71C258.943 179.107 253.394 178.462 251.23 179.852C250.241 180.488 250.305 181.435 250.772 182.149Z" fill="white"/>
<path d="M275.268 179.301H229.228H226.465V184.444C226.465 190.753 238.008 195.866 252.253 195.866C266.488 195.866 278.03 190.753 278.03 184.444V179.301H275.268Z" fill="#CB7319"/>
<path d="M278.029 179.094V182.399C278.029 188.708 266.486 193.821 252.251 193.821C238.006 193.821 226.464 188.708 226.464 182.399V179.295C226.464 178.602 226.605 177.918 226.886 177.255H277.616C277.868 177.848 278.008 178.471 278.029 179.094Z" fill="#F89723"/>
<path d="M278.039 179.295C278.039 179.365 278.039 179.425 278.028 179.496C277.797 185.714 266.335 190.717 252.251 190.717C238.006 190.717 226.464 185.604 226.464 179.295C226.464 178.602 226.604 177.919 226.885 177.256C229.045 171.921 239.583 167.873 252.251 167.873C264.908 167.873 275.456 171.922 277.617 177.256C277.868 177.848 278.008 178.471 278.028 179.094C278.039 179.165 278.039 179.225 278.039 179.295Z" fill="#FFD524"/>
<path d="M252.251 188.586C263.833 188.586 273.221 184.427 273.221 179.296C273.221 174.166 263.833 170.006 252.251 170.006C240.67 170.006 231.281 174.166 231.281 179.296C231.281 184.427 240.67 188.586 252.251 188.586Z" fill="#FFB02D"/>
<path d="M272.899 180.899C271.203 185.268 262.598 188.588 252.251 188.588C240.669 188.588 231.277 184.428 231.277 179.296C231.277 177.873 231.996 176.529 233.288 175.33C233.075 175.847 232.962 176.385 232.962 176.933C232.962 182.064 242.354 186.225 253.936 186.225C262.317 186.224 269.541 184.049 272.899 180.899Z" fill="#F89723"/>
<path d="M254.626 182.753V184.703H250.798V182.741C248.094 182.574 245.475 182.078 243.547 181.377L245.589 179.554C247.662 180.344 250.798 180.905 252.899 180.905C254.452 180.905 255.431 180.65 255.431 180.179C255.431 178.662 244.813 179.579 244.813 176.418C244.813 175.003 247.115 174.021 250.798 173.753V171.88H254.626V173.74C256.985 173.855 259.23 174.212 260.926 174.697L258.941 176.545C256.812 176.01 254.107 175.589 252.438 175.589C251.172 175.589 250.338 175.793 250.338 176.201C250.338 177.679 260.955 176.838 260.955 180.051C260.956 181.618 258.251 182.536 254.626 182.753Z" fill="#FFD524"/>
<path opacity="0.2" d="M249.098 173.987C249.691 174.894 251.05 175.671 252.638 176.301C255.402 177.397 258.945 178.103 262.63 178.29C263.767 178.348 264.935 178.357 266.037 178.22C269.364 177.805 269.611 176.2 268.268 175.007C266.58 173.508 263.406 172.279 260.042 171.548C257.267 170.945 251.72 170.3 249.555 171.69C248.566 172.326 248.631 173.272 249.098 173.987Z" fill="white"/>
<path d="M284.205 169.672H238.165H235.402V174.815C235.402 181.124 246.945 186.237 261.19 186.237C275.425 186.237 286.967 181.124 286.967 174.815V169.672H284.205Z" fill="#CB7319"/>
<path d="M286.966 169.465V172.77C286.966 179.079 275.423 184.192 261.188 184.192C246.943 184.192 235.401 179.079 235.401 172.77V169.666C235.401 168.973 235.542 168.29 235.823 167.627H286.553C286.805 168.219 286.946 168.842 286.966 169.465Z" fill="#F89723"/>
<path d="M286.976 169.666C286.976 169.737 286.976 169.797 286.965 169.867C286.734 176.085 275.272 181.088 261.188 181.088C246.942 181.088 235.4 175.975 235.4 169.666C235.4 168.973 235.541 168.29 235.822 167.627C237.981 162.292 248.52 158.244 261.188 158.244C273.845 158.244 284.393 162.293 286.553 167.627C286.805 168.219 286.945 168.842 286.965 169.465C286.976 169.536 286.976 169.596 286.976 169.666Z" fill="#FFD524"/>
<path d="M261.188 178.958C272.769 178.958 282.158 174.798 282.158 169.668C282.158 164.537 272.769 160.378 261.188 160.378C249.607 160.378 240.218 164.537 240.218 169.668C240.218 174.798 249.607 178.958 261.188 178.958Z" fill="#FFB02D"/>
<path d="M281.836 171.27C280.14 175.639 271.535 178.959 261.188 178.959C249.606 178.959 240.213 174.799 240.213 169.667C240.213 168.244 240.932 166.9 242.224 165.7C242.011 166.218 241.898 166.755 241.898 167.303C241.898 172.434 251.29 176.595 262.872 176.595C271.254 176.595 278.478 174.421 281.836 171.27Z" fill="#F89723"/>
<path d="M263.562 173.124V175.074H259.735V173.111C257.031 172.946 254.412 172.448 252.483 171.747L254.526 169.924C256.599 170.715 259.735 171.276 261.835 171.276C263.389 171.276 264.368 171.021 264.368 170.549C264.368 169.032 253.75 169.95 253.75 166.788C253.75 165.373 256.052 164.392 259.735 164.124V162.25H263.562V164.112C265.922 164.226 268.166 164.583 269.863 165.068L267.878 166.916C265.749 166.381 263.044 165.96 261.375 165.96C260.109 165.96 259.275 166.164 259.275 166.572C259.275 168.05 269.893 167.209 269.893 170.422C269.893 171.989 267.187 172.908 263.562 173.124Z" fill="#FFD524"/>
<path opacity="0.2" d="M258.035 164.358C258.629 165.264 259.987 166.042 261.575 166.672C264.339 167.768 267.882 168.474 271.568 168.662C272.704 168.72 273.873 168.729 274.974 168.591C278.302 168.177 278.549 166.571 277.205 165.378C275.517 163.879 272.343 162.65 268.979 161.919C266.205 161.316 260.657 160.671 258.493 162.061C257.504 162.696 257.568 163.644 258.035 164.358Z" fill="white"/>
<path d="M269.245 163.744H223.205H220.442V168.887C220.442 175.196 231.985 180.309 246.23 180.309C260.465 180.309 272.007 175.196 272.007 168.887V163.744H269.245Z" fill="#CB7319"/>
<path d="M272.006 163.538V166.842C272.006 173.151 260.463 178.264 246.228 178.264C231.983 178.264 220.441 173.151 220.441 166.842V163.738C220.441 163.045 220.582 162.362 220.863 161.699H271.594C271.845 162.292 271.986 162.915 272.006 163.538Z" fill="#F89723"/>
<path d="M272.016 163.739C272.016 163.809 272.016 163.869 272.005 163.94C271.774 170.158 260.312 175.161 246.228 175.161C231.982 175.161 220.44 170.048 220.44 163.739C220.44 163.046 220.581 162.363 220.863 161.699C223.022 156.365 233.56 152.317 246.228 152.317C258.886 152.317 269.434 156.366 271.594 161.699C271.845 162.292 271.986 162.915 272.006 163.537C272.016 163.608 272.016 163.669 272.016 163.739Z" fill="#FFD524"/>
<path d="M246.228 173.03C257.81 173.03 267.198 168.87 267.198 163.74C267.198 158.609 257.81 154.45 246.228 154.45C234.647 154.45 225.258 158.609 225.258 163.74C225.258 168.87 234.647 173.03 246.228 173.03Z" fill="#FFB02D"/>
<path d="M266.876 165.343C265.18 169.713 256.575 173.032 246.228 173.032C234.646 173.032 225.254 168.871 225.254 163.74C225.254 162.316 225.973 160.972 227.265 159.773C227.051 160.291 226.939 160.828 226.939 161.376C226.939 166.507 236.33 170.668 247.913 170.668C256.294 170.668 263.518 168.493 266.876 165.343Z" fill="#F89723"/>
<path d="M248.602 167.196V169.147H244.774V167.184C242.07 167.018 239.452 166.521 237.523 165.82L239.566 163.997C241.639 164.788 244.774 165.349 246.875 165.349C248.429 165.349 249.408 165.093 249.408 164.622C249.408 163.105 238.791 164.023 238.791 160.861C238.791 159.446 241.092 158.464 244.775 158.197V156.323H248.603V158.184C250.963 158.298 253.207 158.656 254.904 159.14L252.919 160.988C250.789 160.453 248.085 160.032 246.415 160.032C245.15 160.032 244.316 160.236 244.316 160.644C244.316 162.122 254.933 161.281 254.933 164.494C254.933 166.062 252.227 166.98 248.602 167.196Z" fill="#FFD524"/>
<path opacity="0.2" d="M243.075 158.431C243.668 159.337 245.026 160.115 246.615 160.745C249.379 161.841 252.921 162.547 256.607 162.734C257.743 162.792 258.912 162.801 260.013 162.664C263.341 162.249 263.588 160.644 262.245 159.451C260.556 157.952 257.383 156.723 254.018 155.992C251.244 155.389 245.696 154.744 243.532 156.134C242.543 156.769 242.607 157.717 243.075 158.431Z" fill="white"/>
<path d="M281.756 151.88H235.716H232.953V157.024C232.953 163.333 244.496 168.446 258.74 168.446C272.975 168.446 284.518 163.333 284.518 157.024V151.88H281.756Z" fill="#CB7319"/>
<path d="M284.516 151.674V154.979C284.516 161.288 272.973 166.401 258.738 166.401C244.494 166.401 232.951 161.288 232.951 154.979V151.875C232.951 151.181 233.092 150.498 233.373 149.835H284.103C284.355 150.429 284.496 151.052 284.516 151.674Z" fill="#F89723"/>
<path d="M284.526 151.875C284.526 151.946 284.526 152.006 284.516 152.076C284.285 158.295 272.823 163.297 258.738 163.297C244.494 163.297 232.951 158.184 232.951 151.875C232.951 151.182 233.092 150.499 233.373 149.836C235.533 144.501 246.07 140.453 258.738 140.453C271.396 140.453 281.944 144.502 284.104 149.836C284.355 150.429 284.496 151.052 284.516 151.674C284.526 151.744 284.526 151.805 284.526 151.875Z" fill="#FFD524"/>
<path d="M258.738 161.166C270.32 161.166 279.708 157.007 279.708 151.876C279.708 146.745 270.32 142.586 258.738 142.586C247.157 142.586 237.768 146.745 237.768 151.876C237.768 157.007 247.157 161.166 258.738 161.166Z" fill="#FFB02D"/>
<path d="M279.387 153.479C277.69 157.849 269.085 161.168 258.738 161.168C247.156 161.168 237.764 157.008 237.764 151.876C237.764 150.453 238.483 149.109 239.775 147.91C239.561 148.427 239.449 148.964 239.449 149.512C239.449 154.643 248.841 158.804 260.423 158.804C268.805 158.804 276.028 156.629 279.387 153.479Z" fill="#F89723"/>
<path d="M261.113 155.333V157.283H257.285V155.32C254.581 155.154 251.962 154.657 250.034 153.956L252.077 152.133C254.15 152.924 257.285 153.485 259.386 153.485C260.94 153.485 261.918 153.23 261.918 152.758C261.918 151.241 251.301 152.159 251.301 148.998C251.301 147.582 253.602 146.601 257.285 146.333V144.459H261.113V146.321C263.473 146.435 265.717 146.793 267.414 147.277L265.429 149.125C263.3 148.59 260.595 148.169 258.925 148.169C257.66 148.169 256.826 148.373 256.826 148.781C256.826 150.259 267.443 149.418 267.443 152.631C267.443 154.198 264.738 155.116 261.113 155.333Z" fill="#FFD524"/>
<path opacity="0.2" d="M255.585 146.567C256.179 147.474 257.537 148.251 259.125 148.881C261.889 149.977 265.432 150.683 269.118 150.871C270.254 150.929 271.422 150.938 272.524 150.8C275.852 150.386 276.099 148.78 274.755 147.587C273.067 146.088 269.893 144.859 266.529 144.128C263.755 143.525 258.207 142.88 256.043 144.27C255.054 144.906 255.118 145.853 255.585 146.567Z" fill="white"/>
<path d="M396.464 188.148H350.424H347.662V193.292C347.662 199.601 359.204 204.714 373.449 204.714C387.684 204.714 399.227 199.601 399.227 193.292V188.148H396.464Z" fill="#CB7319"/>
<path d="M399.224 187.941V191.246C399.224 197.555 387.682 202.668 373.447 202.668C359.202 202.668 347.66 197.555 347.66 191.246V188.142C347.66 187.449 347.8 186.766 348.081 186.103H398.812C399.064 186.696 399.204 187.319 399.224 187.941Z" fill="#F89723"/>
<path d="M399.235 188.143C399.235 188.213 399.235 188.273 399.224 188.344C398.993 194.562 387.531 199.565 373.447 199.565C359.202 199.565 347.66 194.452 347.66 188.143C347.66 187.449 347.8 186.766 348.081 186.103C350.241 180.769 360.779 176.721 373.447 176.721C386.105 176.721 396.652 180.769 398.813 186.103C399.064 186.696 399.204 187.319 399.224 187.941C399.235 188.012 399.235 188.072 399.235 188.143Z" fill="#FFD524"/>
<path d="M373.447 197.434C385.029 197.434 394.417 193.274 394.417 188.143C394.417 183.013 385.029 178.853 373.447 178.853C361.866 178.853 352.477 183.013 352.477 188.143C352.477 193.274 361.866 197.434 373.447 197.434Z" fill="#FFB02D"/>
<path d="M394.095 189.746C392.399 194.116 383.794 197.436 373.447 197.436C361.865 197.436 352.473 193.275 352.473 188.144C352.473 186.72 353.192 185.376 354.484 184.177C354.27 184.695 354.158 185.232 354.158 185.78C354.158 190.911 363.55 195.072 375.132 195.072C383.513 195.072 390.736 192.897 394.095 189.746Z" fill="#F89723"/>
<path d="M375.821 191.6V193.551H371.993V191.588C369.289 191.422 366.67 190.925 364.742 190.224L366.785 188.401C368.857 189.191 371.993 189.752 374.094 189.752C375.648 189.752 376.627 189.497 376.627 189.026C376.627 187.509 366.009 188.426 366.009 185.265C366.009 183.85 368.31 182.868 371.993 182.6V180.727H375.821V182.587C378.181 182.702 380.425 183.059 382.121 183.544L380.137 185.392C378.007 184.857 375.303 184.436 373.633 184.436C372.368 184.436 371.534 184.64 371.534 185.048C371.534 186.526 382.151 185.685 382.151 188.898C382.152 190.466 379.447 191.383 375.821 191.6Z" fill="#FFD524"/>
<path opacity="0.2" d="M370.294 182.834C370.887 183.741 372.246 184.519 373.834 185.148C376.598 186.245 380.141 186.951 383.826 187.138C384.963 187.196 386.131 187.205 387.233 187.068C390.56 186.653 390.807 185.048 389.464 183.855C387.776 182.356 384.602 181.127 381.238 180.395C378.463 179.792 372.916 179.147 370.751 180.538C369.763 181.173 369.827 182.12 370.294 182.834Z" fill="white"/>
<path d="M405.168 178.519H359.128H356.366V183.662C356.366 189.971 367.909 195.084 382.153 195.084C396.388 195.084 407.931 189.971 407.931 183.662V178.519H405.168Z" fill="#CB7319"/>
<path d="M407.929 178.313V181.617C407.929 187.926 396.386 193.039 382.151 193.039C367.906 193.039 356.364 187.926 356.364 181.617V178.513C356.364 177.82 356.505 177.137 356.786 176.474H407.517C407.769 177.067 407.909 177.69 407.929 178.313Z" fill="#F89723"/>
<path d="M407.939 178.514C407.939 178.584 407.939 178.644 407.929 178.715C407.698 184.933 396.236 189.936 382.151 189.936C367.906 189.936 356.364 184.823 356.364 178.514C356.364 177.821 356.505 177.138 356.786 176.475C358.946 171.14 369.484 167.092 382.152 167.092C394.809 167.092 405.357 171.141 407.517 176.475C407.769 177.067 407.909 177.69 407.929 178.313C407.939 178.383 407.939 178.443 407.939 178.514Z" fill="#FFD524"/>
<path d="M382.151 187.805C393.732 187.805 403.121 183.646 403.121 178.515C403.121 173.384 393.732 169.225 382.151 169.225C370.569 169.225 361.181 173.384 361.181 178.515C361.181 183.646 370.569 187.805 382.151 187.805Z" fill="#FFB02D"/>
<path d="M402.8 180.118C401.103 184.488 392.498 187.807 382.151 187.807C370.569 187.807 361.177 183.647 361.177 178.515C361.177 177.092 361.896 175.748 363.188 174.548C362.975 175.066 362.863 175.603 362.863 176.151C362.863 181.282 372.254 185.443 383.837 185.443C392.217 185.443 399.441 183.268 402.8 180.118Z" fill="#F89723"/>
<path d="M384.526 181.971V183.922H380.698V181.959C377.994 181.793 375.375 181.296 373.447 180.595L375.49 178.772C377.562 179.563 380.698 180.124 382.799 180.124C384.353 180.124 385.331 179.868 385.331 179.397C385.331 177.88 374.713 178.798 374.713 175.636C374.713 174.221 377.014 173.239 380.697 172.972V171.098H384.525V172.959C386.885 173.074 389.129 173.431 390.826 173.916L388.841 175.764C386.712 175.229 384.007 174.808 382.337 174.808C381.072 174.808 380.237 175.012 380.237 175.42C380.237 176.898 390.855 176.057 390.855 179.27C390.856 180.837 388.151 181.755 384.526 181.971Z" fill="#FFD524"/>
<path opacity="0.2" d="M378.998 173.206C379.591 174.112 380.951 174.89 382.538 175.52C385.302 176.616 388.845 177.322 392.531 177.51C393.667 177.568 394.836 177.576 395.937 177.439C399.264 177.025 399.511 175.419 398.168 174.226C396.48 172.727 393.306 171.498 389.942 170.767C387.168 170.164 381.62 169.519 379.456 170.909C378.467 171.544 378.531 172.492 378.998 173.206Z" fill="white"/>
<path d="M371.49 60.6767L370.907 58.9511L370.324 60.6767C369.574 62.8983 368.016 64.7556 365.958 65.8809C368.016 67.0062 369.574 68.8635 370.324 71.0852L370.907 72.8107L371.49 71.0852C372.241 68.8635 373.799 67.0062 375.856 65.8809C373.799 64.7556 372.24 62.8976 371.49 60.6767Z" fill="white"/>
<path d="M221.023 137.382L220.44 135.656L219.857 137.382C219.107 139.603 217.549 141.461 215.491 142.586C217.549 143.711 219.107 145.569 219.857 147.79L220.44 149.516L221.023 147.79C221.774 145.569 223.333 143.711 225.389 142.586C223.333 141.461 221.774 139.603 221.023 137.382Z" fill="white"/>
<path d="M358.277 48.2956L357.84 46.9999L357.402 48.2956C356.839 49.9639 355.668 51.359 354.124 52.2042C355.668 53.0494 356.839 54.4444 357.402 56.1127L357.84 57.4084L358.277 56.1127C358.841 54.4444 360.011 53.0494 361.556 52.2042C360.012 51.359 358.841 49.9632 358.277 48.2956Z" fill="white"/>
<path d="M368.499 149.579L368.062 148.284L367.624 149.579C367.061 151.248 365.891 152.643 364.346 153.488C365.891 154.333 367.061 155.728 367.624 157.396L368.062 158.692L368.499 157.396C369.063 155.728 370.233 154.333 371.778 153.488C370.233 152.643 369.062 151.248 368.499 149.579Z" fill="white"/>
<path d="M320.954 54.6197L320.517 53.324L320.08 54.6197C319.516 56.288 318.346 57.683 316.801 58.5282C318.346 59.3734 319.517 60.7684 320.08 62.4367L320.517 63.7324L320.954 62.4367C321.518 60.7684 322.688 59.3734 324.233 58.5282C322.688 57.683 321.517 56.288 320.954 54.6197Z" fill="white"/>
<path d="M227.54 48.4785L227.102 47.1828L226.665 48.4785C226.101 50.1468 224.931 51.5419 223.386 52.3871C224.931 53.2322 226.102 54.6273 226.665 56.2956L227.102 57.5913L227.54 56.2956C228.103 54.6273 229.274 53.2322 230.818 52.3871C229.274 51.5419 228.103 50.1468 227.54 48.4785Z" fill="white"/>
<path d="M218.273 61.4425L217.975 60.5621L217.678 61.4425C217.295 62.5761 216.5 63.5234 215.451 64.0974C216.5 64.6714 217.295 65.6187 217.678 66.7523L217.975 67.6327L218.273 66.7523C218.655 65.6187 219.45 64.6714 220.5 64.0974C219.45 63.5234 218.655 62.5754 218.273 61.4425Z" fill="white"/>
<path d="M212.021 150.833L211.724 149.953L211.426 150.833C211.043 151.966 210.248 152.914 209.199 153.488C210.248 154.062 211.043 155.01 211.426 156.143L211.724 157.023L212.021 156.143C212.404 155.01 213.199 154.062 214.248 153.488C213.199 152.914 212.404 151.966 212.021 150.833Z" fill="white"/>
<path d="M372.075 136.237L371.778 135.357L371.481 136.237C371.098 137.371 370.303 138.318 369.253 138.892C370.303 139.466 371.098 140.413 371.481 141.547L371.778 142.427L372.075 141.547C372.458 140.414 373.253 139.466 374.302 138.892C373.253 138.318 372.458 137.371 372.075 136.237Z" fill="white"/>
<path d="M413.018 138.036C414.483 128.889 408.257 120.287 399.11 118.821C389.964 117.356 381.361 123.583 379.895 132.729C378.43 141.876 384.657 150.478 393.803 151.944C402.95 153.409 411.552 147.182 413.018 138.036Z" fill="#FFD524"/>
<path d="M409.926 137.54C411.118 130.101 406.054 123.104 398.614 121.913C391.175 120.721 384.179 125.785 382.987 133.224C381.795 140.663 386.859 147.66 394.298 148.852C401.737 150.044 408.734 144.979 409.926 137.54Z" fill="#FFB02D"/>
<path d="M409.337 139.821C407.233 145.982 400.934 149.909 394.289 148.844C386.849 147.653 381.783 140.654 382.975 133.215C383.306 131.151 384.08 129.276 385.188 127.67C384.93 128.399 384.734 129.167 384.606 129.96C383.415 137.4 388.48 144.398 395.92 145.59C401.303 146.452 406.448 144.042 409.337 139.821Z" fill="#F89723"/>
<path d="M396.935 142.086L396.483 144.914L394.024 144.52L394.48 141.674C392.781 141.155 391.215 140.165 390.139 138.95L391.875 136.517C393.023 137.876 394.906 139.012 396.256 139.229C397.253 139.389 397.941 139.119 398.051 138.436C398.403 136.236 391.37 136.474 392.104 131.891C392.433 129.839 394.139 128.653 396.567 128.644L397.002 125.927L399.46 126.321L399.029 129.02C400.517 129.429 401.876 130.177 402.854 131.054L401.149 133.53C399.906 132.535 398.267 131.646 397.194 131.474C396.381 131.344 395.798 131.554 395.703 132.146C395.359 134.289 402.375 134.162 401.629 138.82C401.265 141.092 399.313 142.144 396.935 142.086Z" fill="#FFD524"/>
<path opacity="0.2" d="M395.654 127.35C395.824 128.726 396.516 129.993 397.39 131.069C398.911 132.943 401.022 134.331 403.346 134.983C404.062 135.184 404.811 135.317 405.551 135.231C407.785 134.972 408.316 132.67 407.73 130.802C406.994 128.455 405.24 126.347 403.25 124.941C401.608 123.781 398.194 122.275 396.481 124.068C395.698 124.887 395.52 126.267 395.654 127.35Z" fill="white"/>
<defs>
<linearGradient id="paint0_linear_430_505" x1="312.401" y1="226.403" x2="312.401" y2="138.168" gradientUnits="userSpaceOnUse">
<stop stop-color="#3D2A39" stop-opacity="0"/>
<stop offset="0.3704" stop-color="#4C3049" stop-opacity="0.3704"/>
<stop offset="1" stop-color="#6E3E6D"/>
</linearGradient>
<linearGradient id="paint1_linear_430_505" x1="186.057" y1="150.972" x2="273.074" y2="164.841" gradientUnits="userSpaceOnUse">
<stop stop-color="#3D2A39"/>
<stop offset="0.3081" stop-color="#482E49"/>
<stop offset="0.4189" stop-color="#4D3050"/>
<stop offset="0.7724" stop-color="#603860"/>
<stop offset="1" stop-color="#6E3E6D"/>
</linearGradient>
<linearGradient id="paint2_linear_430_505" x1="364.701" y1="132.941" x2="426.126" y2="132.941" gradientUnits="userSpaceOnUse">
<stop stop-color="#3D2A39"/>
<stop offset="0.3081" stop-color="#482E49"/>
<stop offset="0.4189" stop-color="#4D3050"/>
<stop offset="0.7724" stop-color="#603860"/>
<stop offset="1" stop-color="#6E3E6D"/>
</linearGradient>
<linearGradient id="paint3_linear_430_505" x1="313.316" y1="97.3267" x2="327.47" y2="175.123" gradientUnits="userSpaceOnUse">
<stop stop-color="#CB7319"/>
<stop offset="1" stop-color="#9A4F0F"/>
</linearGradient>
<linearGradient id="paint4_linear_430_505" x1="314.605" y1="104.41" x2="317.214" y2="118.752" gradientUnits="userSpaceOnUse">
<stop stop-color="#CB7319"/>
<stop offset="1" stop-color="#9A4F0F"/>
</linearGradient>
</defs>
</svg>
